<svg height="345.984596" viewBox="0 0 543.34832 650" width="289.030209" xmlns="http://www.w3.org/2000/svg"><g transform="matrix(1.3333333 0 0 -1.3333333 544.97708 795.12465)"><g transform="matrix(1.0331115 0 0 1.0331115 13.533754 -19.745823)"><g><path d="m-408.73282 596.3435v-222.87058c.8372-38.99583 22.64892-99.75074 50.28184-138.77653 38.87279-54.89981 89.85556-91.37378 146.94336-110.2284 57.08781 18.85462 108.07057 55.32859 146.943363 110.2284 27.632917 39.02579 49.444632 99.7807 50.281838 138.77653v222.87058z"/><path d="m-392.85711 580.46779h362.698978v-193.56158c2.376252-41.4298-15.226695-97.16489-44.352296-140.65844-31.429232-46.93356-85.703562-88.67151-136.997192-105.90406-51.29362 17.23255-105.56795 58.9705-136.99719 105.90406-29.1256 43.49355-46.72855 99.22864-44.3523 140.65844z" fill="#fff"/></g><g><path d="m-244.96861 538.84268c.49027.0313.95283-.0711 1.25475.10245 1.17164.67726 1.65914-.074 2.23804-.87931 3.03298-4.22009 6.09367-8.42026 9.15158-12.62327.0886-.11952.2299-.20204.46811-.40408 1.22981 4.69815 2.4347 9.27964 3.62296 13.86397.23544.90776.42933 1.8269.6066 2.74605.11634.5862.46257.85084 1.02485.9419.60382.0968 1.20211.23335 1.86688.36709 2.36822-7.42997 4.75306-14.90832 7.13513-22.39521-1.64529-.34432-3.30997-.69434-5.01066-1.05289-1.44309 5.00833-2.90557 10.08781-4.37082 15.16444-.0776-.009-.15234-.0142-.2299-.0228-.91959-3.66803-1.85026-7.33607-2.75877-11.00695-.41825-1.696-.77002-3.40908-1.21597-5.09654-.0886-.33579-.41547-.70003-.73124-.86508-.45979-.23903-.7811.0427-1.09409.48091-3.0136 4.19448-6.0632 8.36335-9.1045 12.53791-.072.0996-.15788.1935-.23544.29025-.11079-.0171-.21881-.0341-.32684-.0512.4958-5.11931.99161-10.23862 1.48741-15.34371-.81987-.14512-1.74224-.30733-2.74769-.4866-.0166.17358-.0526.41262-.0582.65165-.072 2.71474-.0859 5.42949-.22159 8.14139-.20497 4.07211-.50411 8.13854-.74232 12.20781-.0526.87645-.008 1.7586-.008 2.73181"/><path d="m-167.18149 535.70878c.91682-.30733 1.67576-.5606 2.47347-.82524-2.14109-7.55234-4.2628-15.04492-6.40112-22.59725-.82819.2618-1.58436.44676-2.29067.75125-.27421.12236-.49857.48091-.63706.78255-2.16326 4.64978-4.2905 9.31379-6.46207 13.95788-.88912 1.90089-1.85857 3.76478-2.8751 5.8108-1.54004-5.43233-3.02468-10.67685-4.52317-15.96406-.83372.25611-1.63144.50084-2.49286.76264 2.1217 7.48973 4.24341 14.97946 6.39281 22.56879 1.02208-.31871 1.94998-.5862 2.86126-.90491.17727-.0626.33515-.2931.42655-.48092 2.76986-5.83641 5.52863-11.67567 8.29294-17.51493.24652-.52075.50134-1.03866.85865-1.77853 1.49849 5.28152 2.93328 10.34392 4.37637 15.43193"/><path d="m-245.84748 514.58101c-1.69515-.81954-3.29058-1.59071-4.98573-2.40741-1.60098 1.76714-3.26012 3.59974-4.95804 5.47217-2.24357-1.05858-4.44561-2.08586-6.62825-3.15297-.22159-.10814-.4681-.48945-.44871-.72279.18558-2.29359.42655-4.58434.65645-6.94337-.82819-.3927-1.69515-.80532-2.72276-1.29193-.28253 8.60238-.56505 17.13362-.85035 25.71608.20497.074.40994.0967.54566.20489 1.36277 1.09842 2.23804.43823 3.29059-.63743 5.10483-5.23029 10.29553-10.37806 15.45577-15.55713.20496-.20773.40162-.424.64537-.68011m-17.02904 1.95781c1.89457.89637 3.68944 1.74438 5.5674 2.63222-1.98876 2.06593-3.88333 4.03512-5.77514 6.00146-.0637-.0512-.12742-.10245-.18835-.15651.13018-2.7802.26036-5.56324.39609-8.47717"/><path d="m-203.74519 543.45433c4.18802-.43823 8.23477-.86507 12.36739-1.29761-.0803-.94475-.16066-1.88951-.23821-2.81719-1.9666.34432-3.91934.66304-5.86378 1.02443-1.57881.29595-1.65914.21058-1.76716-1.33745-.1191-1.71592-.349-3.42331-.5235-5.13354-.0249-.25326-.003-.50937-.003-.89353 2.4707-.17643 4.9054-.35002 7.35949-.52645-.10525-.82239-.21605-1.70169-.33238-2.61514-2.35991.31302-4.73368.63173-7.27363.97036-.28529-2.9367-.56505-5.82787-.86142-8.86987 2.59258-.15366 5.05498-.29594 7.5146-.44107-.072-.87646-.14403-1.74153-.22989-2.74605-4.09661.4297-8.16276.85654-12.39509 1.30046.74509 7.76861 1.49018 15.5116 2.24635 23.38265"/><path d="m-164.93071 515.07672c.0277-.28171.11633-.57197.0748-.84515-.45148-2.93101 1.89181-5.49494 4.69767-5.54616 2.49564-.0455 4.08276 2.8741 2.86957 5.24737-.6897 1.34599-1.62867 2.57246-2.5178 3.81031-2.45685 3.42047-2.46516 6.68442.10803 9.80609 1.73946 2.10862 4.36805 2.88264 7.61432 1.69316 2.11893-.77402 4.19909-2.62084 5.06883-4.51889-.79495-.83092-1.60098-1.67323-2.57597-2.69482-.13849.91345-.20773 1.62771-.36285 2.32205-.36562 1.61917-1.79486 2.92532-3.38198 3.12167-1.09687.13659-2.09124-.0683-2.80863-.99598-.8365-1.08988-1.13841-2.33058-.45426-3.54567.99715-1.77853 2.18541-3.44892 3.23796-5.19899 1.38769-2.30497 1.78101-4.70954.52904-7.22509-1.54558-3.11029-4.67828-4.52457-8.10182-3.73064-2.75323.63743-4.98573 2.01472-6.65318 4.30262-.28529.38985-.40717.66872-.0249 1.09557.81988.91914 1.58159 1.89235 2.36823 2.8428.10525.0199.20773.0398.31299.0598"/><path d="m-214.72765 543.4549h4.85001c.15234-7.72592.30468-15.55144.4598-23.50217h-4.89433c-.13849 7.73162-.27422 15.53722-.41548 23.50217"/></g><g><path d="m-236.21782 425.66035c1.48741-3.69364 2.90281-7.15679 4.27942-10.63416 1.37939-3.48307 2.53719-7.11127 4.79462-10.12765 1.75054-2.33627 3.79192-4.51034 5.98011-6.44253 2.49009-2.194 5.21009-4.16318 7.9744-6.01569 5.82776-3.90992 11.77463-7.64056 17.62733-11.51348 4.65889-3.07898 8.96601-6.60758 12.70254-10.75653 3.42907-3.80462 5.65049-8.26375 6.2931-13.37452.29914-2.37896.4681-4.80345.37947-7.19663-.12465-3.33225-.88081-6.57628-2.24635-9.64958-.31022-.70003-.63707-1.39152-.97499-2.13139-2.80586 1.03297-5.2184 2.46149-7.31795 4.35099-1.44309 1.30046-2.70614 2.79727-4.08276 4.17172-.91128.9106-.57059 2.10293-.71462 3.14443-.47364 3.37778-1.73392 6.39985-3.68667 9.16297-2.32944 3.2981-5.5397 5.65145-8.78043 7.92227-4.5564 3.18712-9.21529 6.23196-13.84094 9.31949-3.57865 2.38749-7.22655 4.67254-10.7498 7.13687-4.9885 3.4916-9.20421 7.71454-11.76632 13.34606-1.14395 2.51271-1.87242 5.12785-2.10786 7.90236-.50411 5.95308.53181 11.59315 3.37645 16.86043.8088 1.49681 1.81979 2.88833 2.86125 4.52457"/><path d="m-207.22994 389.91025c-1.80594 1.17241-3.60634 2.3562-5.42337 3.51153-3.89995 2.48709-7.49521 5.33273-10.76087 8.6223-1.92781 1.94073-3.4263 4.15179-4.60072 6.55351-1.27967 2.618-2.29344 5.36689-3.40415 8.0674-1.57881 3.84447-3.13824 7.69178-4.70044 11.54193-.48472 1.19517-.93067 2.40172-1.41816 3.59689-.14126.34433-.35454.66019-.70077 1.28339-5.74744-14.49286-11.38409-28.71254-17.0789-43.07166.48472-.0228.82818-.0541 1.16887-.0541 5.1907-.003 10.38141.0142 15.57211-.0313.47918-.003 1.06639-.28171 1.40985-.62319 1.45417-1.4399 2.83356-2.95378 4.27111-4.47335-.28529-.0142-.62322-.0427-.96391-.0427-7.58939-.003-15.17878-.006-22.76817.009-.62322.003-.9279-.11667-1.17442-.79678-1.42647-3.90422-2.9859-7.76292-4.41237-11.66714-.9833-2.68344-1.8835-5.40103-2.69507-8.14138-.48749-1.63909-.68415-3.3664-.26036-5.0624.63429-2.5497 2.45685-3.85016 4.92756-4.33392 1.49018-.2931 3.00529-.47237 4.58133-.71425v-1.65332h-27.30796v1.58218c1.28244.41546 2.61751.76832 3.88887 1.28338 2.42085.98175 4.18248 2.76027 5.29873 5.06809 2.16325 4.47051 4.24618 8.97801 6.28756 13.50542 1.15226 2.5497 2.17987 5.15915 3.22965 7.75438 1.396 3.45461 2.74215 6.9263 4.14369 10.37806.97776 2.41595 2.03585 4.8006 3.0136 7.2194 1.37108 3.39485 2.67014 6.81531 4.05229 10.20448 2.12448 5.21037 4.31266 10.39228 6.43714 15.60266 1.23812 3.0363 2.38761 6.10959 3.61465 9.14874.98884 2.4501 2.06908 4.86036 3.05792 7.31046 1.36831 3.38631 2.67568 6.79824 4.04952 10.18171.22159.54352.54012 1.10411 1.37108.98175.65368-.0968 1.21596.0797 1.58712-.85085 1.47633-3.70787 3.13824-7.33892 4.66997-11.02402 1.84195-4.42782 3.59804-8.89264 5.43445-13.3233.82819-1.99195 1.79486-3.92699 2.63967-5.91325 1.11071-2.60946 2.15217-5.25021 3.24349-7.8682 2.69507-6.47669 5.39844-12.94768 8.10459-19.41867.58167-1.38868 1.19103-2.76881 1.78655-4.1518-.0582-.0626-.11356-.12805-.17173-.19066"/><path d="m-142.48965 347.35651c.39885-.55206.80602-1.1155 1.31567-1.82122-1.45417-1.53949-2.79201-3.14728-4.33481-4.53311-1.65637-1.48827-3.43185-2.87694-5.28765-4.1091-3.90272-2.59238-8.14336-4.47051-12.72469-5.56324-3.64236-.87076-7.34011-1.13541-11.05725-.95613-4.25172.20773-8.45082.95613-12.44217 2.39887-4.45115 1.60779-8.51729 3.94976-12.10702 7.12834-3.49832 3.09891-6.26263 6.74702-8.50344 10.77361-2.06077 3.69933-3.26289 7.75722-4.25172 11.87202-.34624 1.4342-.85866 2.82572-1.19381 4.26277-.4044 1.71023-.70077 3.44608-1.08578 5.37827 1.20211-.78824 2.33221-1.48827 3.41799-2.24806 3.33214-2.33343 6.64488-4.69816 9.97701-7.03728 1.65083-1.15817 2.35714-2.76881 2.85294-4.701 1.04424-4.04935 2.88342-7.74584 5.31258-11.20899 2.85572-4.06642 6.4399-7.17102 10.86059-9.33371 2.71999-1.3346 5.63664-2.02894 8.66132-2.35619 4.2905-.46384 8.50898-.14228 12.65822 1.00736 4.34867 1.20086 8.33171 3.15297 11.84388 6.00146 1.99153 1.61633 3.94981 3.26964 6.08814 5.04533"/><path d="m-239.55105 321.73348h-2.63136c-.27976 2.12001-.55397 4.22294-.84204 6.32302-.30468 2.23952-.62875 4.4762-.93067 6.71287-.28806 2.14562-.5512 4.29408-.84203 6.43685-.31023 2.27082-.65646 4.53311-.95837 6.80393-.29083 2.21107-.58167 4.42213-.80326 6.64173-.17173 1.71592-.12464 1.68178 1.63698 1.70739.70909.009.95837-.31871 1.17165-.89923 1.85026-4.97987 4.0606-9.78332 7.07697-14.18553 3.45955-5.05101 7.7085-9.23411 13.32022-11.88625 2.94712-1.39436 6.04381-2.23667 9.30669-2.544 3.13825-.29311 6.22386-.31302 9.28455.5862 4.10215 1.20371 7.43151 3.48022 10.02132 6.85231.1191.15366.22159.31586.34623.46384.0609.0711.15511.11382.0554.0427 3.26565-1.36591 6.41497-2.68629 9.71109-4.06642-1.6813-1.31184-3.32382-2.7802-5.14638-3.97821-3.9969-2.62938-8.40927-4.25424-13.17618-4.84044-1.99706-.24757-4.00798-.56628-6.01058-.5549-5.39567.0285-10.60299 1.15533-15.67459 2.97085-2.6452.94475-5.3098 1.84682-7.99656 2.66921-1.64252.50084-3.34321.48092-4.69489-.7484-.63707-.57767-1.08025-1.41428-1.47079-2.20253-.34901-.70856-.50412-1.51388-.7534-2.30497"/><path d="m-221.65782 427.48384c-.89743 2.14562-1.76439 4.22578-2.74215 6.5649 2.28236.44108 4.48162.87931 6.68642 1.28339.63707.11667 1.28798.16789 1.93613.20204 4.85555.25041 9.46735-.8537 14.00437-2.44156 2.83632-.99029 5.6865-1.94073 8.54222-2.87695 2.18818-.7171 4.81954-.13374 5.96072 1.51388.77278 1.11549 1.22704 2.45579 1.87795 3.80747.0776 0 .30469-.003.52905 0 1.68961.0171 1.66191.0142 1.83364-1.65901.37116-3.63673.79771-7.26777 1.1578-10.90166.30191-3.03345.51242-6.06975.81433-9.10036.36008-3.63958.77556-7.27062 1.1578-10.90451.0499-.4866.0748-.98459.0222-1.46835-.0249-.21058-.2576-.54921-.42656-.56913-.58167-.0711-1.20765-.13659-1.75885.0114-.33239.0911-.71186.53783-.80326.89354-1.13287 4.39367-2.67568 8.63083-4.86386 12.61473-2.54826 4.64125-6.05212 8.36335-10.68609 11.0098-2.50948 1.4342-5.07713 2.68059-7.88853 3.429-5.0993 1.36021-10.06564 1.28907-14.84363-1.19517-.14404-.0768-.30192-.12806-.50966-.21343"/><path d="m-179.64693 410.44555c-.16619 1.35738-.31022 2.64076-.48472 3.92415-.0692.50937.11633.85084.6149.90776 3.42631.39554 6.83046.70002 10.31216.49514 5.03836-.29879 9.77757-1.79276 14.5888-3.04769 1.21597-.31586 2.41531-.72848 3.65067-.92768 1.94443-.31586 4.80015 1.39437 5.47876 3.29811.313.88214.89744.84231 1.54281.77401.76448-.0797.50688-.72279.52073-1.16102.0831-2.64076.12742-5.28152.21882-7.92227.11356-3.25257.24375-6.50799.39332-9.75771.0997-2.10863.2576-4.2144.37116-6.32302.0332-.61466.003-1.23217.003-1.91797h-1.89181c-1.23258 3.88431-2.59258 7.72593-4.80569 11.21184-3.70883 5.83926-8.78043 9.84023-15.63858 11.25452-2.30452.47522-4.71706.63742-7.0742.58904-2.34329-.0455-4.72537-.27318-6.93848-1.23785-.26036-.11383-.57059-.10813-.86142-.15936"/><path d="m-185.59491 407.31478c-7.70295-5.72544-11.38409-13.67047-13.14848-22.92166-1.15226.72279-2.18264 1.36306-3.20749 2.00903-.16342.10244-.2936.27033-.4681.34432-2.41808 1.06142-3.40415 3.15013-4.51209 5.40957-1.01377 2.06878-.24652 3.37777.70631 4.88027 2.09955 3.30095 4.50932 6.36855 7.43982 8.97232 2.85849 2.54116 5.95241 4.7693 9.5366 6.22626.18004.074.36562.15936.50688.28741.48472.44962.74509.16221.94452-.27887.73955-1.63909 1.46802-3.28387 2.20203-4.92865"/></g><g><path d="m-251.88548 304.57198c-.55674-6.14375-2.65075-10.7167-8.14059-13.1298-2.6092-1.1468-5.30427-1.18948-8.01318-.37847-3.60358 1.0785-6.60609 3.03061-8.80813 6.11813-2.23527 3.1359-2.62581 6.59336-1.6259 10.21301.89743 3.25257 2.58981 6.06692 5.42337 8.00195 3.11054 2.12001 6.55624 2.60092 10.16258 1.45413 4.36252-1.38299 7.97717-3.77617 9.89945-8.08163.64261-1.44559.82265-3.09321 1.1024-4.19732m-15.60257-11.17769c1.14949.40977 2.39315.65734 3.43185 1.25493 3.14932 1.81552 5.08267 4.68393 6.4399 7.96495.83373 2.01472 1.16611 4.13757.72293 6.28888-.97499 4.71523-7.02711 7.69746-11.52535 3.46314-3.05238-2.87125-5.25164-6.30025-5.85269-10.51749-.65369-4.59003 2.66736-8.11578 6.78336-8.45441"/><path d="m-250.73571 291.34713c.18558 4.25139 1.23812 7.94219 4.34035 10.81345 2.06077 1.90658 4.51763 2.91109 7.30133 3.05906 3.99413.21058 7.68634-.70856 10.90768-3.17858 2.31005-1.76999 3.62296-4.17171 4.08276-6.98605.66476-4.03797-.0138-7.84544-2.51226-11.18338-2.17987-2.91394-5.12422-4.53026-8.78597-4.80345-4.02459-.30163-7.6891.6858-10.90213 3.13021-2.38207 1.80983-3.77254 4.24285-4.20187 7.20517-.10248.70572-.16896 1.41713-.22989 1.94357m21.41649 3.58267c-.11357.70856-.18004 1.9265-.5152 3.06476-1.51234 5.13638-7.14898 6.06122-10.25399 3.84161-1.77547-1.26915-2.86679-3.08752-3.62019-5.11362-1.20212-3.2298-2.10232-6.50514-1.24643-9.97967.67861-2.75173 2.34329-4.60994 5.16577-5.26159 2.77539-.64312 4.98019.37562 6.74736 2.49563 2.5261 3.03061 3.54818 6.58766 3.72268 10.95288"/><path d="m-200.23911 301.915c1.709.39554 3.34044.79393 4.98296 1.14679 1.90289.40693 3.80024.89638 5.72805 1.11834 1.9112.22196 3.76423-.20489 4.95527-1.88951 1.12456-1.58502 1.45971-3.36924.7534-5.26728-.64538-1.72731-1.93059-2.82003-3.51771-3.63104-.23821-.11952-.46811-.24757-.65092-.60612.77002-.037 1.54004-.0654 2.30729-.11668 3.46231-.24188 4.97742-2.54969 5.18793-5.50916.26867-3.76479-2.21311-6.35432-5.7973-7.44705-2.756-.83946-5.61172-1.35453-8.4342-1.9578-.19943-.0427-.67861.35286-.73401.60897-.76725 3.63957-1.48187 7.29338-2.21588 10.94434-.83926 4.15179-1.68961 8.30074-2.56488 12.6062m9.56429-21.06061c2.09124.0911 3.71437.80248 4.5481 2.66068.95283 2.12.50688 4.17171-.82265 5.97016-1.48464 2.00902-3.54541 1.59071-5.69481 1.05858.65922-3.24119 1.30737-6.42831 1.96936-9.68942m-2.36545 11.71836c.54843.11098.99715.17643 1.43201.2931 2.70338.71426 3.88888 3.22412 2.94159 6.20351-.76171 2.39603-2.72277 3.17858-5.42891 2.24805-.54566-.18781-.67031-.45814-.57613-.92198.52627-2.55824 1.06639-5.11363 1.63144-7.82268"/><path d="m-153.42724 292.90029c-1.61206-.78825-3.03299-1.43705-4.40684-2.16838-1.08855-.58052-1.11071-.56629-1.97767.44392-1.40154 1.63624-2.87234 3.21273-4.31543 4.81482-2.5538-1.235-4.98296-2.40741-7.48967-3.61965.15234-1.73015.29083-3.47169.45979-5.21322.0693-.70857.24929-1.4086.2936-2.11716.0166-.26749-.13295-.6858-.33792-.79678-.76171-.41546-1.57604-.73418-2.43747-1.11834-.0582.18781-.14957.3614-.15511.53498-.0803 2.5184-.13295 5.03395-.22713 7.54949-.18835 4.92866-.39608 9.85731-.60105 14.78597-.0499 1.17525-.0997 2.3505-.19389 3.5229-.0443.57767.17727.84231.70354 1.08135 1.72285.78539 1.70346.80816 3.05238-.52076 5.58401-5.50062 11.16803-11.00125 16.76036-16.49904.25483-.25041.56505-.44392.87251-.6801m-12.51973 4.59286c-2.1134 2.08017-4.16586 4.09773-6.14076 6.03846.13295-2.76597.27699-5.7169.42656-8.79304 2.0303.9789 3.89718 1.87813 5.7142 2.75458"/><path d="m-271.81068 322.97788c-.54843-.60043-1.17996-1.29477-1.80594-1.98057-1.8004 2.00334-3.60358 4.01236-5.45384 6.06976-1.78655-1.96349-3.46785-3.81316-5.25718-5.77666 1.94444-1.84397 3.85564-3.65665 5.80284-5.50347-.58721-.64311-1.23258-1.34883-1.88073-2.0574-1.7727 1.90943-3.57033 3.84162-5.45937 5.87625-2.71446-2.98223-5.34305-5.86487-7.78328-8.53977-1.2686 1.28338-2.48179 2.50701-3.74484 3.77901 5.22671 5.73966 10.68054 11.73259 16.05405 17.63445 3.20749-3.1985 6.3762-6.35716 9.52829-9.5016"/><path d="m-209.56631 276.57768h-5.11591v22.44074c-2.30729-.19635-4.4013-.37563-6.52854-.56059v2.95947h17.74366v-2.82857c-1.9749.13943-4.00797.28172-6.09921.42684z"/><path d="m-132.00355 310.46018c-5.76683 5.67706-11.48104 11.3029-17.20355 16.93442 1.18273 1.33176 2.32391 2.618 3.49832 3.94407 5.13531-5.02826 10.27615-10.0622 15.53333-15.20997 1.69515 2.11716 3.35706 4.18879 4.99958 6.24334.63984-.70287 1.28798-1.41428 1.96659-2.15984-2.81139-3.11882-5.76406-6.39416-8.79427-9.75202"/><path d="m-162.06558 316.90642c1.42925 1.12403 2.74769 2.15984 4.13262 3.24688 4.19079-5.89902 8.39265-11.81227 12.69977-17.87064 2.06354 1.81267 4.04675 3.5542 6.04658 5.30997.56228-.78825 1.10794-1.55372 1.70623-2.39319-3.47339-2.69767-6.9551-5.40103-10.48666-8.14708-4.73644 6.67019-9.40918 13.24932-14.09854 19.85406"/></g></g><path d="m-139.80771 484.01644c-1.18183-.11171-2.36366-.29693-3.54835-.32339-2.78143-.0647-5.56574-.0793-8.34717-.0559-.86134.006-1.7198.25871-2.584.30575-2.64122.14994-5.27672.35279-7.90937-.27929-1.51663-.36453-3.05329-.66146-4.06628-1.91973-.64957-.80846-1.05592-1.81389-1.56527-2.73701-.14023-.24989-.186-.60855-.39204-.75554-.79838-.57034-1.60534-1.15244-2.48097-1.59048-4.58137-2.28134-9.21138-4.46271-13.75841-6.81167-1.22189-.63207-2.35506-1.59635-3.24788-2.64588-.56373-.66441-.75545-1.7551-.8556-2.68116-.13736-1.30236-.0343-2.63118-.0343-3.98646-1.39931-.17932-2.74997-.34984-4.09777-.52623-.92428-.12053-1.84856-.24695-2.77285-.3763-.48647-.0647-.79551-.003-.94432.59973-.29474 1.18476-.17456 2.30779.22893 3.42788.77262 2.13141 1.74555 4.19226 3.47107 5.69158.95863.83493 2.23489 1.31118 3.37952 1.92562 3.37664 1.81096 6.81624 3.51313 10.12421 5.43875 4.8847 2.83698 9.67496 5.82976 14.50813 8.75198 1.85716 1.12304 3.91463.83787 5.90628.70557 2.1662-.14405 4.31237-.51154 6.47286-.72615 1.27339-.12935 2.55824-.23518 3.83449-.1999 3.33945.0852 6.67603.24989 10.01262.39688.73542.0323 1.47084.11759 2.20341.20578.18028.0236.43209.11466.50649.25284.99297 1.84035 2.72135 2.93986 4.35816 4.04819 1.55383 1.04953 3.25933 1.96089 5.01919 2.5959 2.33218.84374 4.77023 1.42584 7.19398 1.97266.80695.18227 1.21616.60267 1.59388 1.19652 1.14463 1.79625 2.28068 3.60134 3.42244 5.3976.35197.55563.69822 1.12009 1.08167 1.6522.62669.86726 1.39072 1.01719 2.70132.57033.3348 1.30531-.17742 2.08437-1.51663 2.13435-.79838.0323-1.60248-.12348-2.40372-.18522-1.0044-.0734-2.02598-.27046-3.01036-.16757-1.47084.15876-2.49815-.3616-3.40526-1.46405-1.10744-1.3494-2.23203-2.71056-3.51401-3.88651-1.92583-1.76391-3.28794-3.93354-4.79884-6.00614-.15452-.21167-.73256-.33809-.97007-.22049-.79266.391-1.51663.91429-2.26922 1.38468.0286.0941.0543.19108.0802.28517.27757.0676.57231.097.82127.21461.22607.10877.52939.28222.57804.47919.35769 1.44053 1.42792 2.27252 2.51245 3.1192.42638.3322.79552.74085 1.14749 1.14949.372.43804.20603.77612-.32908.82316-.84416.0734-1.6311-.0177-2.31214-.69087-.82986-.81728-1.86003-1.44936-2.63551-2.31073-.58375-.64384-.90139-1.52285-1.33635-2.29898-.0543-.1-.10874-.20285-.19745-.36454-1.30773 1.86387-2.57254 3.64837-3.80874 5.45345-.0973.14405-.0429.41747-.008.62032.53226 3.28088 2.04603 6.18547 3.65708 9.01656 2.00024 3.51903 4.14642 6.95867 6.30118 10.38655 1.12173 1.78451 2.42088 3.45729 3.60557 5.20357.89566 1.31999 1.73411 2.68116 2.60402 4.02174.57231.88195.46357 1.19064-.44926 1.75803-1.22762.76437-2.46096 1.53462-3.62275 2.39894-4.40395 3.27795-8.78214 6.59118-13.1632 9.89853-2.36651 1.78744-4.71586 3.59251-7.0652 5.39759-.0915.0706-.12877.21168-.34912.59973 1.4451-.7526 2.64124-1.34645 3.81162-1.99029 3.01322-1.65514 6.00928-3.33674 9.01393-4.99777 5.11075-2.81933 10.23009-5.62397 15.3294-8.46388.70966-.39394 1.17896-.2734 1.63967.33221 2.11469 2.79287 4.22367 5.58869 6.36984 8.35511 1.34208 1.73157 1.72839 1.70217 2.63265-.23226.70394-1.50227 1.27053-3.06922 1.93728-4.58913.12018-.2734.41778-.49683.67533-.67911.86704-.60855 1.80851-1.12303 2.62405-1.79038 2.875869-2.34601 5.542846-4.97426 7.328466-8.20222 1.78562-3.2221 3.511143-6.58825 3.828773-10.38068.231789-2.77229.509365-5.57398.36628-8.3404-.186002-3.58075-.907114-7.11741-2.100388-10.51884-1.994505-5.69746-4.126372-11.34788-6.075099-17.06005-1.276252-3.74244-2.234882-7.57898-2.566832-11.54191-.19744-2.36366-.56945-4.73025-.57803-7.0939-.02-5.57104 1.77417-10.47475 5.577189-14.67288 2.904489-3.20739 6.198152-5.9591 9.440305-8.78725 3.91176-3.4132 8.278508-6.10317 12.982921-8.21694 3.608433-1.61987 7.302714-3.08392 11.034195-4.39216 3.31083-1.16125 6.452829-2.55181 8.756388-5.24766 3.136276-3.66895 5.434112-7.81122 6.341228-12.60908.323357-1.69631.520805-3.41613.786931-5.21239h-1.141764c1.00727-6.81756-1.073088-12.90308-4.335272-18.48588-.486466-.13523-.981517-.13818-1.290566-.37924-1.156072-.90843-2.24919-1.89328-3.413846-2.88695-.208895.30868-.386312.57327-.563729.8408-3.207814-1.44935-6.404182-2.89577-9.72646-4.39511-.134493 3.88063-2.887318 6.22665-4.529857 9.13418-.738283 1.30236-1.588168 2.54298-2.28639 3.86004-.629544 1.18771-.334804 2.06084.738284 2.82227 4.020498 2.8605 8.035275 5.72686 12.05005 8.59618.174556.12346.320495.28515.620959.5615-.475019.0941-.775483.15582-1.227611.24696.349111.42921.62096.83197.961486 1.173 1.236196 1.24357 1.425059 2.88989 1.691185 4.47448.191725 1.15243.163109 2.34013.226063 3.5102.04006.79082.117324 1.62868-1.287704 1.25238.103022.54976.263265.93782.228925 1.30531-.151663 1.72275-.286156 3.44845-.560866 5.15358-.286156 1.77862-1.799925 2.03145-3.202092 2.08142-1.293426.047-2.592578-.2734-3.891728-.33514-.804099-.0382-.752591-.4939-.826992-1.07011-.303326-2.37248-.512221-4.7714-1.053056-7.09096-.746869-3.20151-2.438054-6.00909-4.172162-8.78138-1.548107-2.47243-3.319416-4.82432-4.163577-7.69658-.784069-2.67527-.380588-5.16534 1.027302-7.47901 1.453675-2.38717 3.084767-4.66557 4.564196-7.03804 2.117558-3.39555 1.728385-6.77934-.257541-10.08375-1.556691-2.59296-3.247876-5.10949-4.692966-7.76125-1.239059-2.27251-2.203405-4.6979-3.310831-7.04392-.294741-.63207-.758315-1.19652-.978656-1.84623-.912838-2.71938-.632405-5.44463.09157-8.15813.25468-.9584.477883-1.92562.749731-3.03394-3.65708-1.16125-7.305575-2.31956-10.994143-3.48962-.214608 2.493 1.216169 4.31866 2.41231 6.14431 2.080358 3.16624 3.711449 6.52944 5.159402 10.01025.454988 1.09069 1.213302 2.0726 1.925832 3.03394 2.226298 3.00161 3.49111 6.39421 4.300933 9.99849.174555.782.520804 1.52579.789791 2.28721.246096.6997-.486465 2.04615-1.422198 2.57533-1.539521.87314-3.239291.87902-4.770228.28516-3.130552-1.21416-4.558473.36161-6.633105 2.44598-.403482.40276-.70108.6791-1.28484.35866-1.224764-.67324-2.458082-1.32588-3.708602-1.94913-2.512444-1.24651-3.582665-3.51608-4.352436-6.00909-.231789-.74672-.809818-.68793-1.376418-.54094-.63241.16464-.53511.60562-.25468 1.00544.89281 1.2759 1.76845 2.56944 2.721351 3.7983 2.246335 2.89872 4.552757 5.75038 6.784773 8.65791.246098.31751.226066.87902.237513 1.32882.01147.53212.171693.80553.75259.84081.495047.0294.995828.13229 1.473709.27635 1.124596.34102 2.191959.26459 3.041844-.57034 1.842848-1.81096 3.648495-3.66013 5.428388-5.53283.87564-.92312 1.648263-1.94325 2.489562-2.89871.128771-.14699.380588-.18815.575175-.27929.08299.0618.16597.12348.251818.18815-.351973.67912-.623822 1.41996-1.067365 2.03145-1.582444 2.18433-3.147721 4.39216-4.876106 6.45596-.981517 1.173-2.309283 2.05201-3.422432 3.12213-1.038748 1.00543-2.077496 2.03145-2.981746 3.15742-1.479426 1.84917-2.904489 3.74832-4.255148 5.69157-2.005951 2.88696-2.961714 6.18255-3.728613 9.58104-1.035891 4.58619-2.232033 9.13709-3.459633 13.67919-.29761 1.10245-.88423 2.15493-1.49661 3.1339-.74401 1.19653-2.02312 1.69042-3.32227 2.102-4.02622 1.27003-8.06675 2.49007-12.0615 3.85417-3.55979 1.21711-7.11099 2.50477-10.26443 4.62735-3.86025 2.59296-6.66745 6.01203-8.30713 10.3983-.75259 2.0197-1.78562 3.93649-2.61546 5.92972-1.51949 3.6425-3.05329 7.28499-4.44688 10.97746-1.02444 2.7135-2.15762 5.32116-4.41825 7.26148-3.17062 2.72525-6.44712 5.29764-10.48192 6.67349-.28043.097-.77549.0793-.9529-.1-2.53249-2.59885-4.87038-5.34762-5.90627-8.92544-.34052-1.17594-.4693-2.33426.3348-3.50138.50937-.7379.62096-1.74334.96149-2.60766 1.116-2.8311 3.26504-4.81551 5.7031-6.45007 2.21199-1.48463 4.34385-3.1486 6.9536-3.97176.16884-.0559.37772-.51448.31478-.69381-.7669-2.15493-1.57387-4.29515-2.38655-6.43536-.22321-.58798-.60952-.48215-1.03875-.19404-1.51949 1.0172-2.53534 2.4489-3.4396 3.99528-.3577.61149-.90426 1.11127-1.26481 1.72276-.31191.52624-.43496 1.1583-.71825 1.70512-1.96876 3.78949-5.0335 6.47947-8.67627 8.61087-.85848.50272-1.62251 1.17595-2.38083 1.8286-1.03874.89372-1.20757 2.09024-.79265 3.29853.38345 1.12303 1.02444 2.15492 1.47085 3.25738 1.24191 3.07804 2.42374 6.17959 3.6628 9.25764.5065 1.26413 1.13318 2.4783 1.63968 3.74244.61523 1.53755 2.00882 1.58166 3.25932 1.56989 3.2679-.0323 6.53581-.21167 9.80372-.37336 2.40372-.1176 4.75307.16169 7.09096.69381 1.58817.3616 3.19923.62031 4.79598.94076.20031.0411.37772.18521.56659.28223-.0315.10583-.0601.21166-.0915.32044m25.39926 41.82254c.0286.12053.0543.24107.083.36161-.64671.33808-1.27626.91429-1.94301.9584-1.14462.0765-2.22629-.37925-3.07046-1.22887-1.92869-1.93737-2.0546-4.4392-2.18623-6.991.32622.10877.59521.26164.7297.4939.51794.89371.98438 1.81389 1.48514 2.71937.79265 1.4376 1.56814 2.90165 3.35948 3.33969.51222.12347 1.0273.23224 1.54239.3469"/><path d="m-128.13739 341.68632c1.13031 2.04908 1.69119 4.25399 3.48825 5.90032 2.01168 1.8433 3.54548 4.22164 5.62297 5.9738 2.3608 1.99323 3.8345 4.64794 5.86048 6.87341.86706.95546 1.10744 2.45774 1.71123 3.6719 1.63967 3.28677.55514 6.36775-.69537 9.42227-1.64826 4.03056-3.35947 8.03466-5.03349 12.05345-1.32777 3.18975-.88708 6.30896.39776 9.39875 1.49373 3.59253 3.82018 6.68526 5.91485 9.91618 1.98879 3.06628 3.15631 6.43537 3.67711 10.02494.24896 1.71982.37486 3.45729.57517 5.37114.68106-.69969 1.37642-1.33176 1.98021-2.04321 1.79993-2.11964 2.52963-4.66262 3.02753-7.34967.7898-4.26868 1.46799-8.59911 4.031949-12.29746.380588-.54682.778346-1.08187 1.236201-1.71688-1.233339-.81435-2.501008-1.60223-3.71718-2.46655-3.37092-2.40187-6.6331-4.9331-9.05971-8.34922-1.31632-1.85212-1.73984-3.86004-1.13891-6.13845.96721-3.64837 1.78562-7.3379 2.65554-11.01274.30333-1.28471.66674-2.56944.83558-3.87473.24896-1.9462-.51222-3.6719-1.83712-4.99778-2.87874-2.87225-5.88911-5.61221-8.8451-8.40508-1.43651-1.35822-2.14904-3.04276-2.59258-4.95662-.28616-1.23768-.95291-2.41068-1.59104-3.53077-.17741-.30869-.85274-.37631-1.31918-.47332-1.68546-.34397-3.3795-.64971-5.18515-.99368"/><path d="m-272.87935 482.32014c.18886-.097.36628-.24107.56659-.28223 1.59674-.32044 3.20781-.57916 4.79598-.94076 2.3379-.53211 4.6901-.80846 7.09096-.69087 3.26791.15876 6.53581.34103 9.80372.37337 1.2505.0118 2.64408-.0353 3.25932-1.56989.50936-1.26414 1.13318-2.48125 1.63967-3.74245 1.23907-3.08098 2.42376-6.1796 3.66281-9.25764.44641-1.10539 1.0874-2.13728 1.47085-3.25737.41492-1.20829.24609-2.40775-.79266-3.30148-.75831-.64971-1.52235-1.32587-2.38082-1.82565-3.64277-2.1314-6.70751-4.82432-8.67627-8.61381-.28329-.54387-.40634-1.17889-.71825-1.70512-.36055-.60856-.90711-1.10834-1.26481-1.71982-.90426-1.54932-1.92011-2.97809-3.4396-3.99528-.42923-.28811-.81554-.39688-1.03875.19403-.81269 2.13728-1.61965 4.2775-2.38655 6.43243-.0629.17932.14595.64089.31478.6938 2.60974.82317 4.74161 2.49007 6.95361 3.9747 2.43805 1.63457 4.58708 3.61604 5.70309 6.45007.34052.86432.45212 1.86681.96149 2.60472.8041 1.16713.67532 2.32838.3348 3.50433-1.03589 3.57782-3.37378 6.32365-5.90627 8.92543-.17742.17933-.67247.19403-.9529.0999-4.03481-1.37586-7.3113-3.94824-10.48192-6.6735-2.26349-1.94325-3.39381-4.5509-4.41826-7.2644-1.39643-3.69248-2.92737-7.33204-4.44687-10.97746-.82985-1.99324-1.86287-3.90709-2.61547-5.92678-1.63967-4.38628-4.44687-7.80829-8.30712-10.40125-3.15344-2.11964-6.70465-3.40731-10.26443-4.6244-3.99189-1.3641-8.03527-2.58709-12.0615-3.85712-1.29915-.40863-2.57827-.90547-3.32227-2.09906-.61238-.97898-1.199-2.03438-1.4966-3.13684-1.22475-4.53915-2.42375-9.09007-3.45963-13.67626-.7669-3.39848-1.72266-6.69407-3.72862-9.58102-1.35066-1.9462-2.77573-3.84534-4.25515-5.69159-.90425-1.12596-1.94301-2.15198-2.98461-3.15741-1.1103-1.07305-2.4352-1.95207-3.41958-3.12214-1.72838-2.06673-3.29365-4.27456-4.8761-6.45594-.44354-.61444-.71539-1.35235-1.06737-2.0344.0859-.0618.16883-.12641.25182-.18815.19459.0911.44641.1323.57518.2793.8413.95839 1.61679 1.97853 2.49242 2.90164 1.77703 1.87269 3.58268 3.72187 5.42553 5.52989.84702.83786 1.91725.9143 3.04184.57034.47789-.14406.97866-.24696 1.4737-.27635.5809-.0353.74115-.30575.75546-.84081.008-.44979-.0115-1.00837.23465-1.32882 2.23489-2.90752 4.53845-5.75919 6.78477-8.65496.95576-1.23181 1.8314-2.5224 2.72135-3.80125.28043-.39983.37773-.83786-.25468-1.00544-.56659-.14699-1.14463-.20578-1.37642.54094-.76976 2.49595-1.83998 4.76258-4.35243 6.01203-1.25051.62031-2.4867 1.27296-3.70859 1.94619-.58376.32045-.88136.047-1.28484-.35573-2.07464-2.08729-3.50256-3.66307-6.63312-2.44596-1.53093.59385-3.2307.58503-4.77022-.28517-.93573-.52917-1.66829-1.87858-1.4222-2.57826.26899-.76143.61523-1.50522.78979-2.28722.80982-3.60133 2.07464-6.99688 4.30093-9.99555.71253-.96428 1.47084-1.94619 1.92584-3.03394 1.44795-3.4808 3.07904-6.84401 5.1594-10.01024 1.19613-1.82566 2.62692-3.65426 2.4123-6.14726-3.68856 1.173-7.33705 2.33131-10.99413 3.49256.27184 1.10833.49504 2.07554.74973 3.03394.72397 2.71349 1.00441 5.43581.0915 8.15519-.22034.65265-.68392 1.2171-.97866 1.84623-1.10743 2.34896-2.07178 4.77141-3.31083 7.04687-1.44223 2.65176-3.13628 5.16534-4.69297 7.7583-1.98592 3.30735-2.37509 6.6882-.25753 10.08668 1.47942 2.36954 3.11051 4.64793 4.56419 7.03511 1.40789 2.31661 1.81136 4.80668 1.02729 7.47902-.84415 2.87225-2.61546 5.22414-4.16357 7.69657-1.73411 2.77523-3.42529 5.5828-4.17216 8.78138-.54083 2.31956-.74973 4.72143-1.05306 7.09096-.0744.57621-.0229 1.03483-.82698 1.07305-1.29916.0618-2.59831.37924-3.89173.33515-1.40504-.05-2.91594-.30281-3.20209-2.08437-.27472-1.70218-.40921-3.43083-.56088-5.15065-.0343-.37042.12592-.75554.22893-1.30824-1.40502.37631-1.32777-.45861-1.2877-1.24944.0601-1.17301.0343-2.36071.22606-3.51314.26612-1.58458.45498-3.23092 1.69119-4.47448.34052-.33808.61523-.74378.96148-1.173-.45213-.0911-.75545-.15288-1.22761-.24696.30047-.2734.4464-.43509.62096-.56151 4.01477-2.86637 8.02955-5.73274 12.05005-8.59323 1.07309-.76437 1.36782-1.63457.73829-2.82227-.69823-1.32-1.54811-2.56062-2.28353-3.86005-1.64541-2.91046-4.39823-5.25353-4.53273-9.1371-3.32228 1.50227-6.51864 2.94575-9.72645 4.3951-.17742-.26459-.35483-.52918-.56373-.8408-1.16466.99661-2.25778 1.98147-3.41385 2.88695-.30905.24107-.80409.24694-1.29057.37924-3.26504 5.5828-5.34254 11.67127-4.33526 18.48883h-1.14177c.26612 1.79625.46357 3.51607.78407 5.21237.90998 4.79787 3.20781 8.94014 6.34409 12.60615 2.30356 2.69586 5.44555 4.08642 8.75639 5.24766 3.73148 1.30824 7.42576 2.7723 11.0342 4.39216 4.7044 2.11377 9.07115 4.80669 12.98291 8.21987 3.24215 2.82816 6.53582 5.57693 9.44031 8.78432 3.80301 4.20108 5.59722 9.10477 5.57719 14.67288-.008 2.36659-.38059 4.73025-.57804 7.09684-.33194 3.96294-1.29056 7.79653-2.56683 11.53897-1.94872 5.71217-4.08059 11.36259-6.0751 17.06005-1.19041 3.40143-1.91438 6.94102-2.10038 10.51884-.14309 2.76936.13449 5.56811.36628 8.34334.31763 3.7895 2.04315 7.15564 3.82877 10.38067 1.78562 3.22504 4.4526 5.85328 7.32561 8.20224.81841.6644 1.75986 1.18182 2.62405 1.78744.2604.1852.558.4057.67819.68205.66674 1.51697 1.23333 3.08392 1.93729 4.58618.90425 1.93443 1.29056 1.96384 2.63263.23519 2.14618-2.76936 4.25515-5.56516 6.36985-8.3551.4607-.60856.93-.72909 1.63967-.33514 5.09931 2.83991 10.21865 5.64454 15.3294 8.46681 3.00751 1.66103 6.00357 3.34263 9.01393 4.99778 1.16752.64089 2.36652 1.23475 3.81161 1.98735-.22034-.38513-.25754-.52624-.34912-.5968-2.34933-1.80507-4.69868-3.61309-7.0652-5.3976-4.38105-3.31028-8.75924-6.62057-13.16319-9.90146-1.1618-.86139-2.39514-1.63162-3.62274-2.39894-.91571-.56739-1.02158-.87608-.44927-1.75803.86991-1.34059 1.70835-2.6988 2.60402-4.02174 1.18469-1.74628 2.48384-3.41907 3.60558-5.20062 2.15761-3.42789 4.30092-6.87047 6.30116-10.3895 1.61106-2.82815 3.12483-5.73568 3.65708-9.01363.0343-.20579.0888-.47919-.008-.62325-1.2362-1.80214-2.50101-3.58958-3.80874-5.45051-.0888.16169-.14023.26164-.19745.36454-.43496.77319-.75259 1.65515-1.33635 2.29897-.77549.86139-1.80565 1.49052-2.63551 2.31074-.68105.6703-1.46798.76437-2.31215.68793-.53511-.047-.70108-.38512-.32907-.82022.35197-.41158.72111-.82022 1.14748-1.15243 1.08453-.84668 2.15476-1.67866 2.51246-3.11626.0487-.19991.35197-.37337.57804-.4792.24895-.12053.54369-.14993.82127-.21755.0257-.0941.0515-.18815.0801-.28222-.75259-.47333-1.47942-.99368-2.26922-1.38468-.23751-.11759-.81554.009-.97007.21755-1.5109 2.07261-2.87301 4.24223-4.79884 6.00615-1.28198 1.17595-2.40657 2.5371-3.51401 3.8865-.90711 1.10539-1.9344 1.62281-3.40526 1.467-.98724-.10584-2.00595.0941-3.01036.16757-.80124.0588-1.60534.21461-2.40372.1852-1.33921-.0529-1.85429-.83197-1.51663-2.13433 1.3106.44392 2.0775.29693 2.70132-.57327.38345-.53212.7297-1.09364 1.08168-1.64927 1.14176-1.7992 2.2778-3.60134 3.42243-5.3976.37773-.59385.78693-1.01719 1.59388-1.19653 2.42376-.54681 4.86181-1.13184 7.19398-1.97264 1.75987-.63501 3.46536-1.54932 5.01919-2.59885 1.63681-1.10538 3.36519-2.20489 4.35816-4.04819.0744-.13818.32622-.22931.5065-.24989.73256-.0911 1.46798-.17345 2.2034-.2058 3.33659-.14992 6.67317-.31162 10.01262-.39981 1.27625-.0353 2.5611.0734 3.8345.19991 2.16048.21461 4.30666.58503 6.47285.72614 1.99166.1323 4.04912.4204 5.90628-.70556 4.83319-2.92223 9.62344-5.91502 14.50813-8.75199 3.30797-1.92267 6.74757-3.62485 10.12421-5.43875 1.14464-.61443 2.42089-1.09069 3.37952-1.92267 1.72838-1.50228 2.69845-3.56019 3.47108-5.69452.40348-1.11716.52366-2.24018.22892-3.42789-.14881-.60267-.45785-.66441-.94431-.5968-.9243.12642-1.84858.25577-2.77286.37631-1.3478.17639-2.69846.34396-4.09777.5233 0 1.35822.103 2.68409-.0343 3.98645-.1001.92606-.29187 2.01675-.8556 2.68117-.8928 1.04952-2.02599 2.01674-3.24787 2.64588-4.54703 2.34895-9.17704 4.53033-13.75841 6.81461-.87564.43509-1.6826 1.01719-2.48098 1.58752-.20603.147-.25467.50566-.39204.75849-.50935.92018-.91569 1.92561-1.56526 2.73408-1.013 1.2612-2.5468 1.55812-4.06629 1.92267-2.63264.63207-5.26814.42921-7.90937.27929-.86419-.05-1.72266-.29987-2.58399-.30869-2.78144-.0236-5.56575-.006-8.34718.0559-1.18469.0294-2.36652.21167-3.54835.32338-.0315-.10583-.0601-.21461-.0915-.32044m-23.76531 41.79609c1.79421-.43805 2.56683-1.90211 3.35949-3.3397.50077-.90254.96721-1.82565 1.48515-2.71938.13449-.22931.40348-.38511.72969-.49095-.13163 2.54886-.25753 5.05363-2.18336 6.98807-.84703.84962-1.93156 1.30824-3.07333 1.2318-.66674-.0441-1.29629-.62326-1.943-.96134.0286-.12054.0543-.24107.083-.36161.51509-.11465 1.03017-.22343 1.54238-.34689"/><path d="m-284.45753 340.31223c-1.13318 2.04908-1.69119 4.25398-3.48825 5.90031-2.01168 1.8433-3.54834 4.22165-5.62297 5.97381-2.3608 1.99323-3.8345 4.64793-5.86049 6.8734-.86991.95547-1.10743 2.45774-1.71408 3.66897-1.63681 3.2897-.55228 6.37069.69536 9.42521 1.65113 4.03056 3.36234 8.03465 5.03635 12.05345 1.32777 3.18975.8871 6.30896-.39775 9.39875-1.49374 3.59252-3.82019 6.68526-5.91486 9.91617-1.98879 3.06629-3.15631 6.43538-3.67711 10.02495-.24896 1.71982-.37486 3.45435-.57517 5.36819-.68105-.69675-1.37642-1.32881-1.98021-2.04027-1.80278-2.11964-2.53248-4.66262-3.02753-7.34966-.7898-4.26869-1.46798-8.59911-4.03195-12.29746-.38059-.54682-.77834-1.08481-1.23619-1.71689 1.23333-.81434 2.50101-1.60222 3.71717-2.46949 3.37093-2.39892 6.63311-4.93015 9.05971-8.34628 1.31632-1.85211 1.73984-3.86004 1.13891-6.13844-.96721-3.64837-1.78561-7.33791-2.65553-11.01274-.30333-1.28766-.66674-2.56944-.83558-3.87474-.24895-1.94619.50936-3.6719 1.83713-4.99777 2.87873-2.87225 5.88909-5.61221 8.84509-8.40508 1.4365-1.35822 2.14904-3.0457 2.59258-4.95662.28616-1.23768.9529-2.41069 1.59103-3.53078.17742-.30868.85275-.37924 1.31918-.47331 1.68546-.34398 3.37951-.64971 5.18516-.99368"/><g transform="translate(-409.03194)"><path d="m735.56836 444.59375-17.50195 31.99609c28.8328 17.70916 68.7141 24.65335 97.43554 24.52735 28.72144.126 68.6008-6.81819 97.4336-24.52735l-17.50196-31.99609c-18.83836 11.10432-46.64461 20.32146-79.93164 20.40625-33.28702-.0848-61.09523-9.30193-79.93359-20.40625z" transform="matrix(.75000002 0 0 -.75000002 -408.73282 596.3435)"/><path d="m109.88487 251.6892c-3.5814.0505-6.61562-.29138-8.9707-1.12061 5.33125-6.37484 10.16767-10.4494 9.68554-15.38086-.52101-5.32927-9.12984-10.68624-15.651852-15.2461 10.788092 1.74841 20.971152.77173 30.345702-3.84081 11.69832-4.83251 22.56831-6.35268 32.49903-4.11475l2.9165 13.2583.003.0132c-11.46104 2.95734-22.75226 7.26978-32.39502 13.19238l4.50878 8.24268c-7.14286 2.28349-13.74569 4.40146-19.18213 4.81933-1.31076.10076-2.56498.16041-3.75879.17725z"/><g><path d="m97.630996 262.43895c2.816144-1.16877 3.955484-3.52213 5.272504-6.04503-.63298.23735-1.05717.38431-1.47248.55837-1.616835.67821-3.231465.64429-4.83498-.0249-.750676-.31424-1.428055-2.03687-1.006076-3.02478.657386-1.53952 1.381419-3.08129 2.303099-4.47838 2.116557-3.21015 4.375247-6.32988 6.567297-9.49254.35092-.50641.65074-1.04444.96834-1.55535-.69293-.91784-.93946-.99017-1.60796-.18764-.77732.93365-1.79452 1.24111-2.91386 1.42197-1.225968.19893-2.440807.5335-3.671203.59455-1.843384.095-2.5985-.6149-2.538529-2.36693.02445-.72114.0023-1.44681.0023-2.37821-.852838.84096-1.583537 1.55986-2.314221 2.28102-1.405851 1.38804-1.381418 1.36317-2.805035.0384-.586332-.54482-1.30369-.94721-2.092125-1.51013-.171011 1.22981-.308712 2.2132-.453071 3.2599-3.460217 1.01277-6.605055 2.72862-9.605534 4.83104 1.810049-.37753 3.535727-.90879 5.294699-1.05347 1.778973-.14469 3.589031.095 5.510144.16956.05557 1.16423.1066 2.18833.155466 3.21015.85061-.15598 1.439162-.69857 2.913871-2.73316.915013.9201 1.890005 1.75428 3.235893 1.70681-.09771-.94723-.222096-1.92609-.275393-2.90948-.0089-.18764.237634-.52221.42198-.56743 1.301461-.32101 2.616249-.58099 3.924383-.86132.979434-.21024 1.958875-.42274 3.038245-.65333-.0644.2645-.0623.42275-.13548.53352-2.425263 3.71653-4.857178 7.42628-7.291325 11.13831-.126594.19217-.264295.3798-.419761.54935-.384221.42049-.795094 1.18008-1.172648 1.1665-.777329-.0249-1.625727-.33683-2.289788-.76409-1.576863-1.01279-2.654017-2.50936-3.589031-4.18451-.764003.68046-.930575 1.55307-.915021 2.39406.0333 1.98485.168791 3.97198.304265 5.95459.04215.60134-.159905.91558-.748458 1.03085-.581884.11531-1.157102.2713-1.738987.3798-1.694578.31877-2.865006 1.49432-4.104293 2.51613-.744009.61264-1.328114 1.41971-1.974401 2.1273 1.37919.0655 2.645129.0701 3.893295.22154.370895.043.786207.4363 1.01497.7754.828406 1.2298.597431 2.53873.330917 3.91549-.426427 2.18154-.721805 4.397-.926128 6.6102-.1377 1.50559-.13548 3.04511-.0023 4.55297.224309 2.54552.268734 5.12494 1.086034 7.59133.05557.1673.1377.32553.293165.68951.370895-1.19816.755116-2.20641.990539-3.25084.619643-2.73315 1.818944-5.2131 3.369154-7.52125 1.130458-1.68195 2.343092-3.31866 3.631229-4.88304 1.072714-1.30215 2.56962-1.99843 4.275296-2.09564 1.319235-.0747 2.647358-.0136 4.019887-.0136.390894-2.81678-.803969-5.22666-1.918884-7.66365"/><path d="m655.07617 410.9082c-.19843.46459-.31237.67426-.41992.99805a1.0001 1.0001 0 0 1 -.002 0c-1.15182 3.47585-1.20119 7.00096-1.4961 10.34766-.18274 2.06892-.18346 4.18.006 6.25.27485 2.97709.67197 5.96444 1.24805 8.91211.35316 1.82433.58187 3.17578-.28906 4.4707-.19169.28413-.75223.61489-.63867.60156a1.0001 1.0001 0 0 0 -.006 0c-1.58637.19252-3.25153.20053-5.11719.28906a1.0001 1.0001 0 0 0 -.69141 1.67578c.8087.88542 1.60989 2.00411 2.73633 2.93165 1.59994 1.31938 3.30648 3.07246 5.92187 3.56445a1.0001 1.0001 0 0 0 .002.004c.7228.13479 1.48733.33921 2.30859.50196a1.0001 1.0001 0 0 1 .002 0c.11785.0232.16734.0431.18946.0527.001.009.0185.0613.004.26953a1.0001 1.0001 0 0 0 0 .004c-.18063 2.64357-.36323 5.31143-.4082 7.99219-.023 1.26564.27366 2.81412 1.55469 3.95508a1.0001 1.0001 0 0 0 1.53906-.25977c1.21092-2.16945 2.5494-4.00634 4.44922-5.22656a1.0001 1.0001 0 0 0 .004 0c.69908-.44979 1.6185-.74296 2.38476-.80469.0437.0444.0716.0662.13281.14062.21799.26515.47969.66257.81836 1.03321a1.0001 1.0001 0 0 0 .002.004c.15728.17152.31129.37651.46093.60352 2.97166 4.53172 5.93691 9.06073 8.89844 13.5957-.66172-.14261-1.35545-.29091-2.00195-.42968-1.68087-.3602-3.34786-.69871-4.98438-1.09571.0744-1.19273.21551-2.40411.33985-3.60937a1.0001 1.0001 0 0 0 -.95703-1.10157c-1.78917-.0631-3.09256.86296-4.21485 1.86915-.61224-.80464-1.21914-1.62962-1.70703-2.08594-.67975-.63576-1.40365-1.00106-2.13281-1.13477a1.0001 1.0001 0 0 0 -1.17969.93555c-.051 1.0672-.10787 2.19431-.16406 3.35547-2.23555.12478-4.36481.35942-6.31055.20117-2.19922-.18089-4.4649-.86905-6.9375-1.38477a1.0001 1.0001 0 0 0 -.77539 1.79688c3.8724 2.71336 7.97923 4.92085 12.46875 6.33008.16603 1.19962.32747 2.35203.52539 3.77539a1.0001 1.0001 0 0 0 1.57031.67773c1.00121-.71484 1.98881-1.25954 2.88868-2.0957a1.0001 1.0001 0 0 1 .002 0c.47672-.44363.82596-.76734 1.04492-.93359.0839-.0637.11567-.08.14649-.0977.0291.0176.0566.0324.13671.0957.21424.16947.55681.50219 1.02539.96485.975.96228 1.94928 1.92214 3.08594 3.04296a1.0001 1.0001 0 0 0 1.08789.21094 1.0001 1.0001 0 0 0 .61524-.92578c0-1.22601.0321-2.19846-.002-3.20312-.0349-1.01999.15926-1.491.42188-1.73633.26262-.24532.8161-.44507 1.91016-.38867a1.0001 1.0001 0 0 0 .004 0c1.49246.074 3.0767.50434 4.78321.78125 1.41045.22789 2.44436.55262 3.27539 1.55078.2469.2964.47297.54517.76953.75781.29657.21265.743.39186 1.19726.32812.45427-.0637.78033-.30492 1.03321-.54296.25289-.23806.46659-.50642.71093-.83008a1.0001 1.0001 0 0 0 .0527-1.13086c-.40626-.65353-.81544-1.38862-1.32032-2.11719-2.93054-4.22816-5.93619-8.3809-8.74218-12.63672-1.17525-1.78144-2.11926-3.78192-2.98633-5.8125-.12292-.28776-.11626-.9997.10547-1.625.22135-.62421.70066-1.09069.70117-1.09179 1.92891-.805 3.74801-.84102 5.67383-.0332.59254.24835 1.16648.44528 2 .75781a1.0001 1.0001 0 0 0 1.23828-1.39843c-1.60531-3.07514-3.24373-6.1901-6.66797-8.00781 1.37967-3.00006 2.82426-6.17314 2.30078-9.94532a1.0001 1.0001 0 0 0 -.99023-.86328c-1.85972 0-3.61426.0782-5.30469-.0176-2.03659-.11608-3.73314-.91278-4.98437-2.43164-1.69572-2.05936-3.29308-4.21651-4.78321-6.43359-2.0152-3.00048-3.55414-6.1894-4.34765-9.68945-.33487-1.48558-.85615-2.84565-1.33985-4.40821a1.0001 1.0001 0 0 0 -1.875-.0996z" transform="matrix(.75000002 0 0 -.75000002 -408.73282 596.3435)"/></g><path d="m295.90117 251.6892c3.5814.0505 6.61562-.29138 8.9707-1.12061-5.33125-6.37484-10.16767-10.4494-9.68554-15.38086.52101-5.32927 9.12984-10.68624 15.65185-15.2461-10.78809 1.74841-20.97115.77173-30.3457-3.84081-11.69832-4.83251-22.56831-6.35268-32.49903-4.11475l-2.9165 13.2583-.003.0132c11.46104 2.95734 22.75226 7.26978 32.39502 13.19238l-4.50878 8.24268c7.14286 2.28349 13.74569 4.40146 19.18213 4.81933 1.31076.10076 2.56498.16041 3.75879.17725z"/><g transform="matrix(-1 0 0 1 405.78604 0)"><path d="m97.630996 262.43895c2.816144-1.16877 3.955484-3.52213 5.272504-6.04503-.63298.23735-1.05717.38431-1.47248.55837-1.616835.67821-3.231465.64429-4.83498-.0249-.750676-.31424-1.428055-2.03687-1.006076-3.02478.657386-1.53952 1.381419-3.08129 2.303099-4.47838 2.116557-3.21015 4.375247-6.32988 6.567297-9.49254.35092-.50641.65074-1.04444.96834-1.55535-.69293-.91784-.93946-.99017-1.60796-.18764-.77732.93365-1.79452 1.24111-2.91386 1.42197-1.225968.19893-2.440807.5335-3.671203.59455-1.843384.095-2.5985-.6149-2.538529-2.36693.02445-.72114.0023-1.44681.0023-2.37821-.852838.84096-1.583537 1.55986-2.314221 2.28102-1.405851 1.38804-1.381418 1.36317-2.805035.0384-.586332-.54482-1.30369-.94721-2.092125-1.51013-.171011 1.22981-.308712 2.2132-.453071 3.2599-3.460217 1.01277-6.605055 2.72862-9.605534 4.83104 1.810049-.37753 3.535727-.90879 5.294699-1.05347 1.778973-.14469 3.589031.095 5.510144.16956.05557 1.16423.1066 2.18833.155466 3.21015.85061-.15598 1.439162-.69857 2.913871-2.73316.915013.9201 1.890005 1.75428 3.235893 1.70681-.09771-.94723-.222096-1.92609-.275393-2.90948-.0089-.18764.237634-.52221.42198-.56743 1.301461-.32101 2.616249-.58099 3.924383-.86132.979434-.21024 1.958875-.42274 3.038245-.65333-.0644.2645-.0623.42275-.13548.53352-2.425263 3.71653-4.857178 7.42628-7.291325 11.13831-.126594.19217-.264295.3798-.419761.54935-.384221.42049-.795094 1.18008-1.172648 1.1665-.777329-.0249-1.625727-.33683-2.289788-.76409-1.576863-1.01279-2.654017-2.50936-3.589031-4.18451-.764003.68046-.930575 1.55307-.915021 2.39406.0333 1.98485.168791 3.97198.304265 5.95459.04215.60134-.159905.91558-.748458 1.03085-.581884.11531-1.157102.2713-1.738987.3798-1.694578.31877-2.865006 1.49432-4.104293 2.51613-.744009.61264-1.328114 1.41971-1.974401 2.1273 1.37919.0655 2.645129.0701 3.893295.22154.370895.043.786207.4363 1.01497.7754.828406 1.2298.597431 2.53873.330917 3.91549-.426427 2.18154-.721805 4.397-.926128 6.6102-.1377 1.50559-.13548 3.04511-.0023 4.55297.224309 2.54552.268734 5.12494 1.086034 7.59133.05557.1673.1377.32553.293165.68951.370895-1.19816.755116-2.20641.990539-3.25084.619643-2.73315 1.818944-5.2131 3.369154-7.52125 1.130458-1.68195 2.343092-3.31866 3.631229-4.88304 1.072714-1.30215 2.56962-1.99843 4.275296-2.09564 1.319235-.0747 2.647358-.0136 4.019887-.0136.390894-2.81678-.803969-5.22666-1.918884-7.66365"/><path d="m655.07617 410.9082c-.19843.46459-.31237.67426-.41992.99805a1.0001 1.0001 0 0 1 -.002 0c-1.15182 3.47585-1.20119 7.00096-1.4961 10.34766-.18274 2.06892-.18346 4.18.006 6.25.27485 2.97709.67197 5.96444 1.24805 8.91211.35316 1.82433.58187 3.17578-.28906 4.4707-.19169.28413-.75223.61489-.63867.60156a1.0001 1.0001 0 0 0 -.006 0c-1.58637.19252-3.25153.20053-5.11719.28906a1.0001 1.0001 0 0 0 -.69141 1.67578c.8087.88542 1.60989 2.00411 2.73633 2.93165 1.59994 1.31938 3.30648 3.07246 5.92187 3.56445a1.0001 1.0001 0 0 0 .002.004c.7228.13479 1.48733.33921 2.30859.50196a1.0001 1.0001 0 0 1 .002 0c.11785.0232.16734.0431.18946.0527.001.009.0185.0613.004.26953a1.0001 1.0001 0 0 0 0 .004c-.18063 2.64357-.36323 5.31143-.4082 7.99219-.023 1.26564.27366 2.81412 1.55469 3.95508a1.0001 1.0001 0 0 0 1.53906-.25977c1.21092-2.16945 2.5494-4.00634 4.44922-5.22656a1.0001 1.0001 0 0 0 .004 0c.69908-.44979 1.6185-.74296 2.38476-.80469.0437.0444.0716.0662.13281.14062.21799.26515.47969.66257.81836 1.03321a1.0001 1.0001 0 0 0 .002.004c.15728.17152.31129.37651.46093.60352 2.97166 4.53172 5.93691 9.06073 8.89844 13.5957-.66172-.14261-1.35545-.29091-2.00195-.42968-1.68087-.3602-3.34786-.69871-4.98438-1.09571.0744-1.19273.21551-2.40411.33985-3.60937a1.0001 1.0001 0 0 0 -.95703-1.10157c-1.78917-.0631-3.09256.86296-4.21485 1.86915-.61224-.80464-1.21914-1.62962-1.70703-2.08594-.67975-.63576-1.40365-1.00106-2.13281-1.13477a1.0001 1.0001 0 0 0 -1.17969.93555c-.051 1.0672-.10787 2.19431-.16406 3.35547-2.23555.12478-4.36481.35942-6.31055.20117-2.19922-.18089-4.4649-.86905-6.9375-1.38477a1.0001 1.0001 0 0 0 -.77539 1.79688c3.8724 2.71336 7.97923 4.92085 12.46875 6.33008.16603 1.19962.32747 2.35203.52539 3.77539a1.0001 1.0001 0 0 0 1.57031.67773c1.00121-.71484 1.98881-1.25954 2.88868-2.0957a1.0001 1.0001 0 0 1 .002 0c.47672-.44363.82596-.76734 1.04492-.93359.0839-.0637.11567-.08.14649-.0977.0291.0176.0566.0324.13671.0957.21424.16947.55681.50219 1.02539.96485.975.96228 1.94928 1.92214 3.08594 3.04296a1.0001 1.0001 0 0 0 1.08789.21094 1.0001 1.0001 0 0 0 .61524-.92578c0-1.22601.0321-2.19846-.002-3.20312-.0349-1.01999.15926-1.491.42188-1.73633.26262-.24532.8161-.44507 1.91016-.38867a1.0001 1.0001 0 0 0 .004 0c1.49246.074 3.0767.50434 4.78321.78125 1.41045.22789 2.44436.55262 3.27539 1.55078.2469.2964.47297.54517.76953.75781.29657.21265.743.39186 1.19726.32812.45427-.0637.78033-.30492 1.03321-.54296.25289-.23806.46659-.50642.71093-.83008a1.0001 1.0001 0 0 0 .0527-1.13086c-.40626-.65353-.81544-1.38862-1.32032-2.11719-2.93054-4.22816-5.93619-8.3809-8.74218-12.63672-1.17525-1.78144-2.11926-3.78192-2.98633-5.8125-.12292-.28776-.11626-.9997.10547-1.625.22135-.62421.70066-1.09069.70117-1.09179 1.92891-.805 3.74801-.84102 5.67383-.0332.59254.24835 1.16648.44528 2 .75781a1.0001 1.0001 0 0 0 1.23828-1.39843c-1.60531-3.07514-3.24373-6.1901-6.66797-8.00781 1.37967-3.00006 2.82426-6.17314 2.30078-9.94532a1.0001 1.0001 0 0 0 -.99023-.86328c-1.85972 0-3.61426.0782-5.30469-.0176-2.03659-.11608-3.73314-.91278-4.98437-2.43164-1.69572-2.05936-3.29308-4.21651-4.78321-6.43359-2.0152-3.00048-3.55414-6.1894-4.34765-9.68945-.33487-1.48558-.85615-2.84565-1.33985-4.40821a1.0001 1.0001 0 0 0 -1.875-.0996z" transform="matrix(.75000002 0 0 -.75000002 -408.73282 596.3435)"/></g></g><g fill="#fff" stroke-width=".526617" transform="translate(-409.03194)"><path d="m180.93819 226.94558q.24283.6019.4175 1.26504.19418.65862.38933 1.49862l2.75711 11.8676-.93823.21797q-.54729.12715-1.02641.19308-.45458.0829-1.01688.14549l.63549 2.73536q.42956-.19055.83502-.3075.40548-.11689 1.0896-.27583l1.79828-.41778q.37138-.0863.62549-.14531.27364-.0636.49366-.092.22001-.0284.41548-.0738.20046-.0239.48412-.0444-.31791-.92498-.54714-1.73436-.20973-.8139-.4349-1.78313l-2.53194-10.89837q-.20015-.86154-.33069-1.51224-.10605-.63368-.1634-1.32408z"/><path d="m193.11136 229.50865q.13982-.49972.23791-.77409.11991-.254.28164-.48927.6851-.96645 2.22498-1.09402 1.4399-.11928 2.33469.71629.82566.73036 1.28786 1.93458.46403 1.22626.7065 3.18087-.31832-.43957-.56021-.68579-.24006-.22417-.60377-.48248-.72194-.45052-1.52379-.65034-.80002-.17779-1.79995-.0949-1.23991.10271-2.22697.58385-.96524.50153-1.62313 1.31042-.63788.80722-.9284 1.91848-.29052 1.11126-.18099 2.43345.14056 1.6968.89004 2.96598.76949 1.26751 2.07876 2.00218 1.48023.85364 3.58008.67968 1.93985-.16069 3.30299-1.44956 1.36497-1.26684 1.83697-3.34721.43027-1.85503.20209-4.60958-.10406-1.25608-.35898-2.38871-.23491-1.1343-.59704-2.10275-.34213-.97011-.80782-1.73029-.44569-.76182-.98947-1.24928-.87296-.8152-1.92574-1.12736-1.03279-.31382-2.47268-.19454-1.25991.10437-2.15429.48909-.89437.38472-1.59955 1.10877-.24173.2419-.42346.47883-.1799.25896-.35615.56201-.15627.30138-.32704.67054-.15078.36749-.3306.87051zm3.18299 3.9076q.73995-.0613 1.3818.15178.66369.23345 1.16199.65812.50012.4467.81488 1.08625.31474.63956.37864 1.41084.0639.77127-.14315 1.43186-.18522.68098-.58685 1.18019-.39981.52125-.99786.83704-.59805.3158-1.338.3771-.71994.0596-1.3418-.15511-.62186-.21473-1.102-.66308-.46013-.45001-.75487-1.09122-.29475-.64122-.36047-1.43453-.13326-1.60866.64635-2.6495.78144-1.0188 2.24134-1.13974z"/><path d="m213.39683 224.6608q-2.57599-.25569-4.37038 1.36607-1.01903.921-1.53853 2.09156-1.0103 2.25511-1.28112 4.98358-.0874.88015-.0926 1.74623.0125.89005.0936 1.69805.0789.83.23089 1.53392.15196.70392.38129 1.23776.67021 1.57752 1.89175 2.47648 1.21936.92097 2.89674 1.08747 2.59596.25767 4.39035-1.36409 1.01904-.921 1.53854-2.09157.51513-1.12656.82371-2.40694.32636-1.2564.46177-2.62063.20312-2.04636-.0281-3.78029-.21123-1.73195-.80313-2.87951-1.43964-2.76492-4.59473-3.07809zm-.23334 2.55442q.65897.0654 1.19408.36295.53509.29754.87083.77528.6025.83752.8156 2.34744.21312 1.50994.0209 3.44627-.1922 1.93634-.6936 3.3309-.50358 1.41658-1.26334 2.16333-.40312.4044-1.00624.58896-.58316.18654-1.2621.11915-1.39782-.13874-2.12514-1.34419-1.14758-1.84711-.78722-5.47773.17254-1.7383.56755-3.07677.41498-1.33648.97067-2.05905 1.06053-1.33907 2.69799-1.17654z"/><path d="m226.70613 227.16121q-.0784.64429-.24606 1.30924-.1484.67042-.38364 1.50008l-3.32342 11.72163-.92669-.26275q-.54057-.15327-.99186-.32716-.43801-.14716-.9605-.36422l-.76601 2.70172q.46816.0409.87962.13448.41146.0937 1.08718.28527l1.77615.5036q.36682.104.61779.17516.27029.0766.47663.15811.20634.0815.3994.13621.18703.076.44526.19516.16886-.9634.35945-1.78274.20986-.81387.48129-1.77117l3.05199-10.76432q.24127-.85094.44156-1.48366.21349-.60598.49704-1.23808z"/></g></g></svg>