<?xml version="1.0" encoding="UTF-8" standalone="no"?>
<!-- Created with Inkscape (http://www.inkscape.org/) -->

<svg
   width="286"
   height="349"
   viewBox="0 0 173.68046 211.66667"
   inkscape:version="1.4.2 (1:1.4.2+202505120738+ebf0e940d0)"
   sodipodi:docname="Logo US Boulogne CO - 2025.svg"
   xmlns:inkscape="http://www.inkscape.org/namespaces/inkscape"
   xmlns:sodipodi="http://sodipodi.sourceforge.net/DTD/sodipodi-0.dtd"
   xmlns="http://www.w3.org/2000/svg"
   xmlns:svg="http://www.w3.org/2000/svg"><defs
     id="defs1"><style
       id="style1">
      .cls-1 {
        fill: #d00b1a;
      }

      .cls-2 {
        fill: #fff;
      }
    </style></defs><g
     transform="translate(-110.2357,0.19045766)"><path
       id="path53"
       style="fill:#ffffff;stroke:none;stroke-width:0.264583"
       d="m 197.07594,-0.19045766 c -9.88969,0 -42.33449,0.18754167 -78.02542,19.28207766 -3.32753,16.417552 -12.10656,49.583303 -7.51261,84.01743 3.50763,31.76817 18.12691,70.94727 85.53803,108.36716 67.41112,-37.41989 82.03039,-76.59899 85.53802,-108.36716 4.59395,-34.434127 -4.18508,-67.599878 -7.5126,-84.01743 C 239.41042,-0.00291599 206.96563,-0.19045766 197.07594,-0.19045766 Z" /><g
       id="g62"
       transform="matrix(0.9769361,0,0,0.9769361,2.8132437,-0.0043927)"
       style="stroke-width:1.02361"><path
         id="path61"
         style="fill:#1d1d1b;fill-opacity:1;stroke:none;stroke-width:0.270829"
         d="m 198.8489,1.8238897 c -9.40506,0 -42.52766,0.188451 -78.38178,19.3703943 -3.34274,16.492704 -12.1623,49.81033 -7.54735,84.402086 3.52367,31.91359 18.20978,71.27194 85.92913,108.86312 67.71935,-37.59118 82.40545,-76.94953 85.92912,-108.86312 4.61495,-34.591756 -4.20409,-67.909382 -7.54683,-84.402086 C 241.37707,2.0123407 208.25396,1.8238897 198.8489,1.8238897 Z" /><path
         style="fill:#cd131d;fill-opacity:1;stroke:none;stroke-width:0.270829"
         d="m 198.84898,1.8238364 c -9.40506,0 -42.52794,0.1883297 -78.38206,19.3702726 -3.34274,16.492704 -12.16197,49.810458 -7.54702,84.402211 3.52367,31.91359 18.20973,71.27174 85.92908,108.86292 z"
         id="path27"
         sodipodi:nodetypes="ccccc" /></g><g
       id="g59"
       style="fill:#ffffff;stroke-width:1.02361"
       transform="matrix(0.9769361,0,0,0.9769361,2.5424648,-0.0043927)"><path
         d="m 187.55027,87.594858 v 7.344579 c 0,0 1.35296,-3.590455 2.53247,-6.891936 l 0.17078,-1.10987 c -0.40562,-0.148324 -0.83259,-0.462872 -1.2729,-0.866927 -0.40295,0.577951 -0.88063,1.086855 -1.43302,1.524154 z"
         id="path29"
         style="fill:#ffffff;stroke:none;stroke-width:0.270829" /><path
         d="m 183.38464,84.058106 c 0,0 0.23216,1.848931 -1.0194,2.879525 -2.03078,1.675034 -3.41042,4.265584 -3.74399,6.198907 -0.04,-0.04859 3.71998,-3.240106 8.8116,-6.672009 0.65914,-0.524247 0.7045,-0.836238 0.34425,-1.547169 -0.59243,-1.166131 -0.34158,-2.137907 -0.0854,-3.618586 0,0 -2.46042,2.222298 -4.30706,2.756774 z"
         id="path30"
         style="fill:#ffffff;stroke:none;stroke-width:0.270829" /><path
         id="path31"
         style="fill:#ffffff;stroke:none;stroke-width:0.270829"
         d="m 129.69859,49.171387 c -7.66412,45.66835 21.7966,58.071473 23.11487,59.575173 -21.41791,-6.8587 -26.70431,-20.10058 -26.70431,-20.10058 -1.90268,24.64475 31.97228,41.39485 34.28059,43.48417 -28.39621,-9.17817 -31.51073,-16.80621 -31.51073,-16.80621 4.57125,24.29184 39.39861,38.14685 43.36944,40.32312 -22.89363,-3.59813 -31.12596,-10.64091 -31.37948,-10.86084 15.36827,21.81126 34.46198,28.60601 34.46198,28.60601 -4.75271,0.25829 -11.39475,-1.67745 -11.58689,-1.73375 11.25601,9.95815 23.91278,18.02139 30.61622,22.0338 -6.39122,-6.54926 -11.10382,-12.09333 -14.29008,-17.92655 -2.18976,-4.00717 -3.61193,-8.06842 -4.3248,-12.48348 l -10e-4,0.004 c -6.35652,-2.18394 -10.30583,-4.15789 -10.30583,-4.15789 5.00356,0.66234 9.87123,0.34779 9.87123,0.34779 l 0.002,0.003 c -0.15548,-2.25536 -0.14714,-4.61417 0.0186,-7.11119 l -0.002,0.009 -5.90559,-3.6034 h 6.27869 c 0.18144,-1.25161 0.41589,-2.49135 0.69763,-3.71864 l -5.1e-4,5.2e-4 c -14.55436,-5.3729 -20.7269,-8.35453 -20.7269,-8.35453 11.19666,2.31003 22.78486,1.49729 22.80274,1.49603 v 0.003 c 0.11308,-0.30308 0.2285,-0.60514 0.34623,-0.9064 C 166.20425,131.37099 161.0595,126.827 161.0595,126.827 c 6.60737,1.56251 7.94939,0.27595 7.94939,0.27595 -14.8479,-6.97633 -20.34501,-13.32064 -20.34501,-13.32064 15.2215,6.65411 18.42936,5.15008 18.42936,5.15008 -9.839,-5.9176 -11.21895,-8.6894 -11.21895,-8.6894 6.69276,1.54717 7.94732,-0.58601 7.94732,-0.58601 -12.57962,-7.43665 -20.16932,-18.652604 -20.16932,-18.652604 0,0 17.1723,10.730454 20.07837,12.558924 2.90607,1.82591 3.11943,1.89742 4.4297,5.97121 1.05675,3.29125 4.55274,13.92686 5.64152,16.97261 1.08877,3.04575 2.46852,5.20408 6.50606,7.27294 h 0.002 c 1.1237,-2.46424 2.37869,-4.86094 3.70468,-7.18354 -0.24818,-0.1253 -0.46475,-0.23766 -0.63821,-0.33486 -2.68725,-1.49858 -4.64573,-4.48797 -5.70249,-6.61821 -1.05675,-2.12768 -6.48184,-16.61996 -8.61136,-21.783162 C 167.31202,93.612204 151.76226,89.203297 140.7651,79.508554 128.7352,68.905969 129.69859,49.171387 129.69859,49.171387 Z" /><path
         d="m 188.62837,80.352571 c 0.64312,-0.491003 1.01672,-1.104756 1.33161,-1.138001 0.31489,-0.03324 0.79523,1.028037 0.26152,1.629003 -0.53371,0.600967 -2.18555,-0.04092 -1.59313,-0.491002 z"
         id="path32"
         style="fill:#ffffff;stroke:none;stroke-width:0.270829" /><path
         id="path33"
         style="fill:#ffffff;stroke:none;stroke-width:0.270829"
         d="m 268.548,49.171387 c 0,0 0.96338,19.734582 -11.06651,30.337167 -10.99716,9.694743 -26.54692,14.10365 -28.2975,18.351334 -2.12951,5.163202 -7.55461,19.655482 -8.61136,21.783162 -1.05675,2.13024 -3.01525,5.11963 -5.70249,6.61821 -0.42964,0.23783 -1.11026,0.57521 -1.93218,0.97926 -2.77797,1.37072 -7.15154,3.52915 -8.72867,5.38831 -2.05746,2.42432 -2.37258,2.87477 -5.08651,12.24473 0,-8.67182 0.57933,-17.17271 6.79442,-28.69593 0.65646,-1.21983 1.3769,-2.47525 2.16679,-3.76669 8.46736,-13.840138 9.68916,-23.905695 7.51427,-30.800189 -1.71321,-5.431716 -5.53708,-8.896626 -9.59063,-10.691854 0,0 0.42988,-0.102319 1.27848,-0.102319 0.57107,0 1.33408,0.04557 2.28409,0.204122 0,0 -0.0666,-1.519011 -6.67659,-1.940967 0,0 0.71235,-0.882079 2.51096,-1.227315 0,0 -1.05673,-0.229961 -2.45773,-0.229961 -1.1715,0 -2.58585,0.161181 -3.82406,0.754476 l 1.99058,-1.751831 0.49661,-0.437699 h -0.0295 c -0.17079,0 -1.09676,0.0077 -2.45773,0.156063 -0.58976,0.06393 -1.26206,0.15377 -1.99058,0.281636 -5.2464,0.923187 -13.39091,3.779511 -14.70918,12.640572 -0.14677,1.153345 -0.0399,1.902663 0.22428,2.345077 0.22416,0.375924 0.5627,0.53175 0.95498,0.53175 0.58441,0 1.29164,-0.347732 1.93477,-0.841292 1.55844,-1.204491 8.71276,-7.055715 8.93692,-7.237284 l -3.05253,3.357934 c 0,0 0.33874,2.393434 -0.32039,3.418913 -0.4243,0.659785 -1.19035,0.813387 -1.81746,0.813387 -0.5524,0 -0.99271,-0.119889 -0.99271,-0.119889 0,0 -0.0156,0.958932 0.003,1.439705 0.0267,0.69303 0.57375,1.281264 1.83865,2.34766 0.51236,0.434742 1.12383,0.66478 1.69757,0.73639 0.12542,0.01276 0.25043,0.02015 0.37052,0.02015 0.3816,0 0.73119,-0.07378 0.99271,-0.211873 1.33962,-0.644441 4.4222,-3.235183 5.24412,-5.301485 0.5257,-1.322126 0.0719,-2.171327 -0.32039,-2.608626 -0.22149,-0.245501 -0.42168,-0.362769 -0.42168,-0.362769 h 0.0346 c 0.13609,0 0.66201,0.01008 1.3932,0.135392 0.30688,0.0537 0.64579,0.125085 1.00872,0.227377 1.84131,0.516576 4.25101,1.762317 5.46788,4.76715 0.43764,1.084298 0.70174,2.196653 0.81649,3.332097 0.49635,4.884452 -1.77199,10.208824 -4.76612,15.755632 -0.73919,1.36815 -1.59297,2.79236 -2.52697,4.26537 -1.99342,3.14037 -4.35802,6.5133 -6.79442,10.10119 -2.36702,3.48817 -4.80051,7.18091 -7.02076,11.06289 -4.27771,7.48012 -7.7657,15.65628 -8.45685,24.41505 -1.48906,18.8678 6.11394,28.75672 22.26944,44.7859 h 0.003 0.003 c 0.29621,-0.16111 19.2697,-10.53624 35.37717,-24.78299 -0.18147,0.0512 -6.03607,1.757 -10.68204,1.757 -0.30689,0 -0.60864,-0.008 -0.90485,-0.0232 0,0 19.09371,-6.79475 34.46198,-28.60601 -0.25351,0.21993 -8.48586,7.26271 -31.37948,10.86084 h -10e-4 c 3.97082,-2.17627 38.7982,-16.03128 43.36945,-40.32312 0,0 -3.11453,7.62804 -31.51074,16.80621 2.30831,-2.08932 36.18329,-18.83942 34.2806,-43.484173 0,0 -5.28641,13.241883 -26.70432,20.100583 1.31827,-1.5037 30.77899,-13.906826 23.11487,-59.575176 z m -61.1942,27.368356 c 8.51005,4.296272 6.53782,17.614388 5.83065,19.603971 -0.11208,-2.843723 -0.71778,-4.098975 -0.71778,-4.098975 -0.90465,9.221641 -8.32042,16.192811 -8.32042,16.192811 13.38553,-23.074562 4.75798,-29.667282 3.20755,-31.695224 z m 47.37747,14.464233 c 0,0 -7.58917,11.215954 -20.16879,18.652604 0,0 1.25404,2.13318 7.9468,0.58601 0,0 -1.37943,2.7718 -11.21844,8.6894 l 0.005,0.003 c 0,0 3.20787,1.50351 18.42937,-5.15059 0,0 -5.49763,6.34482 -20.34553,13.32115 0,0 1.33986,1.284 7.9499,-0.27595 0,0 -5.14791,4.54178 -17.76222,10.46706 l -1.63815,0.53434 c 10.6716,1.70317 24.35562,-1.01028 24.35562,-1.01028 -17.11351,7.82024 -30.26947,11.06289 -30.26947,11.06289 9.48142,1.24541 17.01757,0.88987 17.01757,0.88987 -2.92208,2.44734 -14.87454,8.75915 -14.87454,8.75915 6.49529,3.42423 18.18648,1.68001 18.18648,1.68001 -10.0685,4.97907 -19.61689,6.47247 -19.61689,6.47247 3.44245,1.61877 9.35344,1.12034 9.35344,1.12034 -4.87013,6.59784 -11.69128,8.34161 -11.69128,8.34161 2.66323,-3.29893 5.91127,-5.66425 5.91127,-5.66425 -1.6892,0.1253 -10.6531,-2.9869 -10.6531,-2.9869 2.85804,-1.74408 9.41751,-4.73098 9.41751,-4.73098 -5.97759,0 -10.97865,-3.11247 -10.97865,-3.11247 5.84683,-2.36551 10.58901,-6.53655 10.58901,-6.53655 -7.34122,-1.30678 -10.58901,-5.16557 -10.58901,-5.16557 10.84772,-1.99214 13.98881,-5.22966 13.98881,-5.22966 l -9.17981,-2.4908 c 1.68653,-1.43209 9.17981,-5.4498 9.17981,-5.4498 4.03754,-2.06886 5.41728,-4.22719 6.50606,-7.27294 1.08877,-3.04575 4.58158,-13.68392 5.641,-16.97261 1.31293,-4.07379 1.52363,-4.14274 4.4297,-5.97121 2.90606,-1.82847 20.07836,-12.558924 20.07836,-12.558924 z m -69.01181,46.992994 v 0.003 c -0.001,0.001 -0.002,0.002 -0.003,0.003 -0.18637,0.35899 -8.89341,17.39106 4.54805,40.48383 0,0 -4.97441,-5.01476 -7.34943,-13.39505 0,0 -0.86207,2.47795 -0.90743,3.77962 0,0 -1.33397,-2.54421 -0.22118,-10.98331 0,0 -1.25991,1.83316 -1.66553,2.70009 0,0 -0.23191,-5.347 1.66811,-10.234 0,0 -1.74009,1.78491 -2.19108,2.78226 0,0 1.21352,-9.8927 6.11849,-15.13344 0.002,-0.004 0.003,-0.006 0.003,-0.006 z" /></g><path
       class="cls-2"
       d="m 259.09433,53.714065 c -5.48517,3.432696 -9.8806,-1.089269 -21.37495,-3.774967 -9.5104,-2.221009 -18.35862,-3.567605 -23.19203,-4.214671 -2.1899,-0.294802 -4.27551,0.984339 -4.92205,3.010479 l -1.62157,5.101577 c -0.12513,0.392236 -0.50055,0.659557 -0.92809,0.659557 H 187.0963 c -0.42755,0 -0.80296,-0.267321 -0.9281,-0.659557 l -1.62156,-5.101577 c -0.64654,-2.02614 -2.73216,-3.305281 -4.92205,-3.010479 -4.83341,0.647066 -13.68164,1.993662 -23.19204,4.214671 -11.49434,2.685698 -15.88978,7.207663 -21.37495,3.774967 -5.88142,-3.677532 -4.47103,-13.03875 -4.02784,-15.304729 0.005,-0.02748 0.0105,-0.05496 0.0156,-0.07994 0.0522,-0.269819 0.0886,-0.419719 0.0886,-0.419719 0.32066,-1.508987 0.63351,-2.943025 0.9281,-4.299614 0.19292,-0.8944 0.38324,-1.768813 0.56573,-2.615745 12.26341,-6.143377 25.36629,-10.467974 38.99839,-12.866365 12.09656,-2.128572 21.11423,-2.128572 24.96741,-2.128572 h 0.96459 c 3.85318,0 12.87085,0 24.96482,2.128572 13.63209,2.398391 26.73497,6.72049 39.00099,12.866365 0.1825,0.846932 0.3728,1.721345 0.56573,2.615745 0.29458,1.356589 0.60743,2.790627 0.9281,4.299614 0,0 0.0365,0.1499 0.0886,0.419719 0.005,0.02498 0.0104,0.05246 0.0156,0.07994 0.44319,2.265979 1.85359,11.627197 -4.02785,15.304729 z"
       id="path26"
       style="fill:#ffffff;stroke:none;stroke-width:0.264583" /><g
       id="g54"
       style="fill:#1d1d1b;fill-opacity:1;stroke:#000000;stroke-width:1.04683"
       transform="matrix(0.9769361,0,0,0.93406233,2.5424648,2.4698641)"><path
         style="baseline-shift:baseline;display:inline;overflow:visible;opacity:1;vector-effect:none;fill:#1d1d1b;fill-opacity:1;stroke:none;stroke-width:1.04683;enable-background:accumulate;stop-color:#000000;stop-opacity:1"
         d="m 192.08008,45.519531 -0.0274,0.101563 c -0.11446,0.429042 -0.32293,0.79918 -0.63086,1.121093 -0.3153,0.329627 -0.60375,0.548988 -0.85351,0.658204 l -0.0801,0.03516 v 1.580078 l 0.18945,-0.08398 c 0.45094,-0.198427 0.82313,-0.544133 1.17383,-0.921875 v 5.193359 h 1.32422 v -0.136719 -7.546875 z"
         id="path47"
         sodipodi:nodetypes="ccscccccccccc" /><path
         style="baseline-shift:baseline;display:inline;overflow:visible;opacity:1;vector-effect:none;fill:#1d1d1b;fill-opacity:1;stroke:none;stroke-width:1.04683;enable-background:accumulate;stop-color:#000000;stop-opacity:1"
         d="m 196.39258,45.519531 c -0.55937,0 -1.01729,0.200102 -1.32813,0.589844 v 0.002 c -0.30619,0.386657 -0.45898,0.87576 -0.45898,1.449219 0,0.34015 0.0686,0.654899 0.19922,0.943359 0.11165,0.246558 0.31759,0.422989 0.54101,0.580078 -0.27453,0.188191 -0.51458,0.410724 -0.65039,0.720703 -0.15485,0.350707 -0.23437,0.738469 -0.23437,1.154297 0,0.748328 0.20799,1.357548 0.62695,1.802735 0.35424,0.377796 0.81424,0.572265 1.34766,0.572265 0.57456,0 1.05742,-0.237151 1.40234,-0.693359 0.34371,-0.454596 0.51367,-1.040361 0.51367,-1.742188 0,-0.428679 -0.083,-0.815752 -0.2539,-1.154296 -0.14563,-0.288422 -0.37934,-0.490281 -0.63868,-0.66211 0.19937,-0.147589 0.38588,-0.313559 0.50391,-0.548828 0.1439,-0.286783 0.21484,-0.612421 0.21484,-0.972656 0,-0.575908 -0.15338,-1.066676 -0.46289,-1.451172 -0.31272,-0.391244 -0.76332,-0.589844 -1.32226,-0.589844 z m 0.0117,1.392578 c 0.16009,0 0.26345,0.05569 0.36328,0.1875 0.0978,0.129141 0.15234,0.308635 0.15234,0.554688 0,0.261622 -0.0576,0.45435 -0.1543,0.582031 h -0.002 c -0.0978,0.131185 -0.20982,0.185547 -0.37109,0.185547 -0.16126,0 -0.26837,-0.05311 -0.36719,-0.183594 -0.0965,-0.127466 -0.15039,-0.315642 -0.15039,-0.578125 0,-0.245143 0.055,-0.425425 0.1543,-0.558594 0.0973,-0.132675 0.21373,-0.189453 0.375,-0.189453 z m 0.004,2.914063 c 0.18197,0 0.31584,0.07315 0.44141,0.255859 0.12637,0.180614 0.19531,0.42946 0.19531,0.75586 0,0.379987 -0.0717,0.656511 -0.1914,0.833984 -0.12658,0.183077 -0.24869,0.253906 -0.42969,0.253906 -0.1799,0 -0.3132,-0.07736 -0.44531,-0.269531 -0.12799,-0.186136 -0.20118,-0.460653 -0.20118,-0.832031 0,-0.258021 0.0584,-0.494001 0.17383,-0.712891 0.10761,-0.204041 0.24006,-0.285156 0.45703,-0.285156 z"
         id="path48"
         sodipodi:nodetypes="cccssccscssscccscccsssccscscssscscscsss" /><path
         style="baseline-shift:baseline;display:inline;overflow:visible;opacity:1;vector-effect:none;fill:#1d1d1b;fill-opacity:1;stroke:none;stroke-width:1.04683;enable-background:accumulate;stop-color:#000000;stop-opacity:1"
         d="m 200.57227,45.517578 c -0.55289,0 -1.0265,0.259331 -1.37696,0.744141 -0.35311,0.488487 -0.52344,1.149301 -0.52344,1.888672 0,0.738364 0.16355,1.352725 0.49805,1.828125 0.33159,0.47126 0.75121,0.730468 1.23047,0.730468 0.32725,0 0.57183,-0.257776 0.81641,-0.501953 -0.0524,0.625606 -0.12764,1.168536 -0.23243,1.353516 -0.13821,0.246318 -0.27684,0.333984 -0.4375,0.333984 -0.13888,0 -0.22687,-0.04202 -0.30859,-0.148437 v -0.002 c -0.0794,-0.101371 -0.14336,-0.283766 -0.16601,-0.546875 l -0.0137,-0.142579 -1.29687,0.1875 0.0156,0.132813 c 0.0768,0.625199 0.25201,1.111542 0.54102,1.447266 0.28814,0.334699 0.68463,0.507812 1.14648,0.507812 0.64252,0 1.18141,-0.332932 1.57227,-0.958984 0.39863,-0.638507 0.58008,-1.654785 0.58008,-2.992188 0,-1.336857 -0.17462,-2.310301 -0.55664,-2.927734 -0.37419,-0.607454 -0.88382,-0.933594 -1.48828,-0.933594 z m -0.0469,1.447266 c 0.14935,0 0.2838,0.08535 0.42773,0.314453 0.13741,0.218734 0.21485,0.550371 0.21485,0.990234 v 0.0098 c -0.002,0.394851 -0.0676,0.681843 -0.1836,0.861328 -0.12374,0.19157 -0.23356,0.261719 -0.39843,0.261719 -0.16268,0 -0.28646,-0.07578 -0.41211,-0.273438 -0.11717,-0.184337 -0.18945,-0.517368 -0.18946,-0.974609 1e-5,-0.458267 0.0678,-0.776933 0.17188,-0.945313 0.11337,-0.183337 0.20856,-0.24414 0.36914,-0.24414 z"
         id="path49"
         sodipodi:nodetypes="cssssccsccccccssssccccssccsssccc" /><path
         style="baseline-shift:baseline;display:inline;overflow:visible;opacity:1;vector-effect:none;fill:#1d1d1b;fill-opacity:1;stroke:none;stroke-width:1.04683;enable-background:accumulate;stop-color:#000000;stop-opacity:1"
         d="m 204.94336,45.519531 c -0.55937,0 -1.01729,0.200102 -1.32813,0.589844 v 0.002 c -0.30617,0.386656 -0.45898,0.875758 -0.45898,1.449219 0,0.34015 0.0686,0.654899 0.19922,0.943359 0.11348,0.24526 0.3162,0.422869 0.53906,0.580078 -0.27306,0.187976 -0.51437,0.410247 -0.65039,0.720703 -0.15485,0.350707 -0.23242,0.738469 -0.23242,1.154297 0,0.748329 0.208,1.357549 0.62695,1.802735 0.35424,0.377795 0.81424,0.572265 1.34766,0.572265 0.57456,0 1.05546,-0.237152 1.40039,-0.693359 0.34371,-0.454596 0.51367,-1.040361 0.51367,-1.742188 0,-0.429264 -0.0839,-0.818632 -0.25195,-1.154296 -0.14564,-0.288419 -0.37934,-0.490281 -0.63867,-0.66211 0.19936,-0.147588 0.38587,-0.313557 0.5039,-0.548828 0.14389,-0.286781 0.21289,-0.612421 0.21289,-0.972656 0,-0.575907 -0.15141,-1.066675 -0.46094,-1.451172 -0.31271,-0.391247 -0.76333,-0.589844 -1.32226,-0.589844 z m 0.01,1.392578 c 0.16011,0 0.2654,0.05568 0.36524,0.1875 0.0978,0.129142 0.15039,0.308635 0.15039,0.554688 0,0.261622 -0.0576,0.454349 -0.1543,0.582031 -0.0978,0.131189 -0.20983,0.185547 -0.37109,0.185547 -0.16127,0 -0.26836,-0.05311 -0.36719,-0.183594 -0.0939,-0.124033 -0.14557,-0.310975 -0.14844,-0.5625 v -0.01563 c 0,-0.246048 0.0517,-0.426194 0.15039,-0.558594 h 0.002 c 0.0973,-0.13268 0.21179,-0.189453 0.37304,-0.189453 z m 0.006,2.914063 c 0.18198,0 0.31586,0.07315 0.44141,0.255859 0.12643,0.180579 0.19336,0.429434 0.19336,0.75586 0,0.380594 -0.0682,0.655557 -0.18945,0.832031 -0.12732,0.185281 -0.24772,0.255859 -0.42969,0.255859 -0.17991,0 -0.3132,-0.07736 -0.44531,-0.269531 -0.12799,-0.186136 -0.20118,-0.460653 -0.20118,-0.832031 1e-5,-0.258021 0.0584,-0.494001 0.17383,-0.712891 0.1076,-0.204035 0.24007,-0.285156 0.45703,-0.285156 z"
         id="path50"
         sodipodi:nodetypes="cccscccscsssccssccccsscsccsccccscssscsss" /></g><g
       id="g55"
       style="fill:#ffffff;fill-opacity:1;stroke:none;stroke-width:1.02361"
       transform="matrix(0.9769361,0,0,0.9769361,2.5424648,-0.0043927)"><path
         class="cls-1"
         d="m 139.38066,63.650541 c 1.93555,1.68332 5.12203,2.454252 5.14888,3.102865 0.0545,1.315845 -1.56917,2.415292 -3.48385,5.062064 -0.30156,0.4128 1.40006,1.122491 6.89069,-4.581987 2.36548,-2.460487 7.64735,-0.04899 14.82071,-1.102874 -0.12539,0.562776 -0.12805,0.572234 -0.27933,0.803536 -0.59083,0.902743 0.37163,1.645499 0.53216,1.637644 0.78748,-0.03854 1.01151,-1.37113 1.36486,-2.585656 0.0612,-0.208235 0.22765,-0.365647 0.43509,-0.413119 1.33488,-0.304779 2.77149,-0.571001 4.20372,-1.163528 11.85099,-4.918049 13.97612,-10.876391 14.03557,-11.053443 -0.44294,0.22381 -0.82388,0.47879 -1.07467,0.798926 l -0.0664,-1.604462 c -1.00502,0.428571 -2.47981,0.286181 -2.47981,0.286181 -8.03294,-0.135499 -13.1135,1.400579 -14.75218,1.990771 -1.64158,0.593444 -1.60985,0.333786 -2.24835,-0.061 -0.64155,-0.39463 -5.35894,1.409759 -6.17074,1.66717 -1.10843,0.349672 1.12743,1.061203 1.73569,1.532093 0.59564,0.459071 -2.32719,1.699845 -7.31091,4.988157 -0.77687,0.51381 -2.16648,0.88968 -3.08503,0.841345 -2.70703,-0.144276 -2.91117,-1.247056 -8.01921,-0.521273 -0.172,0.02398 -0.28216,0.222159 -0.19685,0.376581 z M 178.22665,53.50189 c -0.0202,0.172015 0.0398,0.37122 0.16826,0.545291 0.23106,0.302772 0.59345,0.406311 0.81394,0.233818 0.20874,-0.162592 0.21554,-0.511212 0.0272,-0.803655 0.17616,0.0038 0.28864,0.0075 0.28864,0.0075 0,0 1.22461,0.111103 -0.009,1.166593 -1.23715,1.052543 -2.12854,-0.172589 -2.52743,-0.790552 -0.13294,-0.204952 0.45486,-0.302134 1.2417,-0.356191 z"
         id="path41"
         style="fill:#ffffff;fill-opacity:1;stroke:none;stroke-width:0.270829"
         sodipodi:nodetypes="csccccsccccccccccccccccccccccccc" /><path
         class="cls-1"
         d="m 258.13485,63.650541 c -1.93555,1.68332 -5.12203,2.454252 -5.14888,3.102865 -0.0545,1.315845 1.56917,2.415292 3.48385,5.062064 0.30156,0.4128 -1.40006,1.122491 -6.89069,-4.581987 -2.36548,-2.460487 -7.64735,-0.04899 -14.82071,-1.102874 0.12539,0.562776 0.12805,0.572234 0.27933,0.803536 0.59083,0.902743 -0.37163,1.645499 -0.53216,1.637644 -0.78748,-0.03854 -1.01151,-1.37113 -1.36486,-2.585656 -0.0612,-0.208235 -0.22765,-0.365647 -0.43509,-0.413119 -1.33488,-0.304779 -2.77149,-0.571001 -4.20372,-1.163528 -11.85099,-4.918049 -13.97612,-10.876391 -14.03557,-11.053443 0.44294,0.22381 0.82388,0.47879 1.07467,0.798926 l 0.0664,-1.604462 c 1.00502,0.428571 2.47981,0.286181 2.47981,0.286181 8.03294,-0.135499 13.1135,1.400579 14.75218,1.990771 1.64158,0.593444 1.60985,0.333786 2.24835,-0.061 0.64155,-0.39463 5.35894,1.409759 6.17074,1.66717 1.10843,0.349672 -1.12743,1.061203 -1.73569,1.532093 -0.59564,0.459071 2.32719,1.699845 7.31091,4.988157 0.77687,0.51381 2.16648,0.88968 3.08503,0.841345 2.70703,-0.144276 2.91117,-1.247056 8.01921,-0.521273 0.172,0.02398 0.28216,0.222159 0.19685,0.376581 z M 219.28886,53.50189 c 0.0202,0.172015 -0.0398,0.37122 -0.16826,0.545291 -0.23106,0.302772 -0.59345,0.406311 -0.81394,0.233818 -0.20874,-0.162592 -0.21554,-0.511212 -0.0272,-0.803655 -0.17616,0.0038 -0.28864,0.0075 -0.28864,0.0075 0,0 -1.22461,0.111103 0.009,1.166593 1.23715,1.052543 2.12854,-0.172589 2.52743,-0.790552 0.13294,-0.204952 -0.45486,-0.302134 -1.2417,-0.356191 z"
         id="path51"
         style="fill:#ffffff;fill-opacity:1;stroke:none;stroke-width:0.270829"
         sodipodi:nodetypes="csccccsccccccccccccccccccccccccc" /></g><g
       id="g53"
       style="fill:#1d1d1b;fill-opacity:1;stroke:none;stroke-width:1.02361"
       transform="matrix(0.9769361,0,0,0.9769361,2.5424648,-0.0043927)"><path
         class="cls-2"
         d="m 161.0434,28.278173 -0.76321,7.656571 -0.016,0.171339 v 0.01279 c -0.10141,2.127677 -0.45366,4.792389 -2.30831,6.51857 -1.15015,1.07151 -2.60452,1.825915 -4.8728,2.52406 -0.75787,0.235272 -1.20886,0.373366 -2.19356,0.672571 -0.75521,0.237829 -1.12347,0.355465 -1.87067,0.600966 -0.8913,0.276189 -1.64383,0.514019 -2.28696,0.713488 -2.68191,0.843911 -3.40242,1.068954 -4.29906,1.166131 h -0.0187 c -0.22416,0.04092 -0.43764,0.06138 -0.63245,0.06138 -0.58975,0 -1.03006,-0.176454 -1.34496,-0.539592 -0.99804,-1.143115 -0.47767,-3.907561 -0.27753,-4.956056 l 0.63512,-4.270699 0.61377,-4.122376 c 1.65184,-0.641883 2.56983,-0.984562 4.1603,-1.549726 l -0.57641,4.186308 -0.30956,2.260657 -0.0961,0.695587 -0.0374,0.258288 c -0.23483,1.723623 -0.2455,1.790113 -0.23216,2.201839 0,0.664899 0.11208,1.056167 0.37627,1.311897 0.21348,0.204585 0.5177,0.30432 0.92866,0.30432 0.73385,0 1.87333,-0.317106 3.47714,-0.828567 3.78403,-1.212162 4.80342,-1.554841 5.51059,-2.212069 0.55506,-0.516575 0.88863,-1.314454 1.0861,-2.590549 l 0.016,-0.09206 c 0.0427,-0.281304 0.0667,-0.4373 0.24284,-2.012599 l 0.78455,-7.014687 c 1.70255,-0.473102 2.64455,-0.718603 4.3044,-1.127772 z"
         id="path42"
         style="fill:#1d1d1b;fill-opacity:1;stroke:none;stroke-width:0.270829" /><path
         class="cls-2"
         d="m 184.66822,34.510325 c -0.10942,2.759332 -1.05409,4.03287 -3.48515,4.697769 -1.89201,0.519133 -3.94681,0.828567 -5.93489,1.130329 -0.57108,0.08439 -1.14215,0.171339 -1.70522,0.260845 -0.5684,0.09206 -1.15815,0.204584 -1.77993,0.32222 -1.6465,0.311991 -3.34638,0.634212 -4.95553,0.634212 -0.70983,0 -1.33428,-0.06138 -1.90535,-0.191798 -1.07543,-0.242944 -1.1715,-1.70828 -1.06209,-2.894869 0.0107,-0.117636 0.032,-0.335007 0.0694,-0.58818 1.79861,-0.386153 2.78598,-0.583066 4.55257,-0.910401 0,0.797879 0.14411,1.201934 0.89664,1.334913 0.072,0.01279 0.16545,0.0179 0.28821,0.0179 0.57107,0 1.79861,-0.140652 3.27967,-0.373367 6.06831,-0.964104 6.99964,-1.112428 7.0797,-2.621237 0.04,-0.741619 -0.36292,-1.296554 -1.02473,-1.409075 l -0.0294,-0.0051 c -0.18413,-0.03325 -0.3309,-0.05882 -0.5524,-0.05882 -0.37893,0 -0.98737,0.07416 -2.74862,0.311991 -1.89735,0.271075 -2.82067,0.416841 -4.70735,0.739061 -1.84665,0.317106 -3.1836,0.511461 -4.13361,0.511461 -0.46433,0 -0.8486,-0.04603 -1.20085,-0.145766 -1.31294,-0.373367 -1.33962,-1.96401 -1.2142,-3.309153 0.25085,-2.697956 1.16083,-4.002182 3.48248,-4.976515 1.46504,-0.618867 3.58922,-1.120099 6.8849,-1.626446 0.42163,-0.06393 0.85394,-0.140651 1.31293,-0.219928 1.34496,-0.235272 2.86604,-0.501231 4.24302,-0.501231 1.0781,0 1.94539,0.158552 2.65523,0.48333 1.07543,0.49356 1.28091,1.613659 1.22487,3.370528 -1.77193,0.166225 -2.75129,0.273631 -4.49654,0.485888 -0.005,-0.329893 -0.0694,-0.644441 -0.29621,-0.874598 -0.2455,-0.248059 -0.63778,-0.358023 -1.26757,-0.358023 -0.53104,0 -1.24888,0.07416 -2.47376,0.250616 -1.63583,0.237829 -3.8454,0.644441 -4.65397,0.836238 -1.45971,0.342679 -2.03078,0.846468 -2.11351,1.854046 -0.032,0.396383 0.0587,0.710931 0.26686,0.935974 0.21081,0.230157 0.53905,0.358023 0.97136,0.378481 0.064,0 0.11741,0.0051 0.17879,0.0051 0.25351,0 0.58175,-0.04092 1.94272,-0.248059 1.91869,-0.317106 2.85536,-0.457757 4.78207,-0.72116 0.45098,-0.06137 2.74328,-0.281303 3.58388,-0.337564 0.2375,-0.0179 0.467,-0.02557 0.68048,-0.02557 1.19819,0 2.03879,0.25573 2.56716,0.782535 0.59509,0.593295 0.85661,1.590644 0.79791,3.053422 z"
         id="path43"
         style="fill:#1d1d1b;fill-opacity:1;stroke:none;stroke-width:0.270829" /><path
         class="cls-2"
         d="m 209.57127,34.63819 c -0.0534,-2.15325 -0.74719,-2.992046 -2.85269,-3.452361 l -0.70717,-0.155996 v -0.248058 l 0.72852,-0.09973 c 0.95801,-0.127865 2.05212,-0.583066 1.99341,-2.956245 -0.0427,-1.874504 -0.54705,-2.866738 -1.79594,-3.534195 -0.85127,-0.42707 -1.87067,-0.608638 -3.62925,-0.649555 -0.8406,-0.01023 -1.69454,-0.01534 -2.53514,-0.01534 -3.92279,0 -7.89895,0.115079 -11.82975,0.342679 l -0.21349,7.480116 -0.21348,7.4392 c 3.60256,-0.250616 7.32788,-0.378481 11.07988,-0.378481 1.50774,0 3.04484,0.02046 4.57393,0.06137 0.31222,0.0077 0.59242,0.01279 0.85661,0.01279 1.38765,0 2.24159,-0.112522 2.85803,-0.375924 1.2142,-0.534477 1.73457,-1.60343 1.68653,-3.470263 z m -16.44637,-5.122281 0.024,-1.350257 0.0213,-1.378387 v -0.240387 c 0,0 0.25618,-0.01023 0.25618,-0.01023 2.02277,-0.08439 4.07757,-0.127866 6.10835,-0.127866 0.7125,0 1.43569,0.0051 2.14552,0.01534 0.94735,0.01279 1.23021,0.04092 1.60114,0.153439 0.65914,0.240386 1.04875,0.810665 1.05676,1.534382 0.008,0.623983 -0.29088,1.150788 -0.78189,1.373273 -0.30155,0.138095 -0.64046,0.184126 -1.39566,0.184126 -0.10675,0 -0.22416,0 -0.34959,0 -0.75253,-0.01279 -1.51841,-0.0179 -2.27095,-0.0179 -2.04145,0 -4.10425,0.04347 -6.13503,0.127865 l -0.28287,0.01023 v -0.271074 z m 10.89843,5.915046 c -0.2802,0.07928 -0.49903,0.09974 -1.01139,0.09974 -0.16545,0 -0.36826,-0.0026 -0.61911,-0.0051 -0.55239,-0.0051 -1.10212,-0.0077 -1.65451,-0.0077 -2.46309,0 -4.96353,0.03836 -7.43196,0.109964 l -0.2802,0.0077 0.005,-0.26596 0.0214,-1.411632 0.024,-1.411632 v -0.242944 c 0,0 0.25885,-0.0077 0.25885,-0.0077 2.46842,-0.07416 4.9662,-0.109964 7.42929,-0.109964 0.49635,0 0.9927,0.0026 1.48906,0.0051 1.12613,0.01534 1.36363,0.04859 1.70521,0.16111 0.66447,0.240386 1.03273,0.800436 1.04341,1.580414 0.008,0.754405 -0.36559,1.327241 -0.97936,1.498581 z"
         id="path44"
         style="fill:#1d1d1b;fill-opacity:1;stroke:none;stroke-width:0.270829" /><path
         class="cls-2"
         d="m 234.67981,40.07502 c -0.38427,0.815781 -1.22487,1.161017 -2.80733,1.161017 -0.467,0 -0.99271,-0.02813 -1.61448,-0.09206 -0.49369,-0.04859 -1.23021,-0.155996 -2.2496,-0.301762 -1.17417,-0.168782 -2.63655,-0.378481 -4.51255,-0.618868 -0.36826,-0.04603 -0.74987,-0.08951 -1.13681,-0.135537 -2.40704,-0.281304 -5.13699,-0.600967 -7.06102,-1.772212 -2.25494,-1.370716 -2.34034,-4.380664 -2.41239,-6.799874 l -0.0107,-0.36058 c -0.12276,-3.981723 0.32823,-5.388241 1.93204,-6.019895 0.934,-0.368252 2.02811,-0.547264 3.34638,-0.547264 1.54243,0 3.17293,0.250616 4.48319,0.452643 0.5524,0.08439 1.12614,0.161111 1.68387,0.235272 2.64188,0.358023 5.37716,0.728832 7.50667,1.992141 1.33429,0.78765 2.08149,2.2581 2.28697,4.490627 l 0.0107,0.130423 0.005,0.03836 c -1.72657,-0.342679 -2.70593,-0.524247 -4.48853,-0.831124 -0.27753,-1.73641 -0.94734,-2.0305 -5.3905,-2.667269 -2.29497,-0.327335 -3.55987,-0.460315 -4.36578,-0.460315 -0.80591,0 -1.22487,0.153439 -1.5451,0.383596 -0.62177,0.444971 -0.63512,1.161016 -0.66447,2.88464 -0.005,0.26596 -0.0107,0.554935 -0.016,0.872041 -0.0881,3.690191 2.83668,4.549445 6.00961,4.925369 1.16883,0.140652 2.03078,0.250616 2.72194,0.342679 1.10745,0.143209 1.66251,0.214813 2.08681,0.214813 0.21082,0 0.38695,-0.0179 0.57375,-0.05626 0.59775,-0.127866 1.14214,-0.421956 1.1288,-1.649462 1.79594,0.311991 2.79666,0.501232 4.61929,0.866926 0.16812,2.117449 0.14143,2.784905 -0.12009,3.321939 z"
         id="path45"
         style="fill:#1d1d1b;fill-opacity:1;stroke:none;stroke-width:0.270829" /><path
         class="cls-2"
         d="m 258.10982,42.522361 c -0.27219,-1.905192 -0.49902,-3.209418 -0.67515,-3.879431 -0.55773,-2.424325 -2.04145,-4.390893 -4.17897,-5.546795 -0.96602,-0.524247 -2.20424,-1.112427 -6.65807,-2.55219 -3.89344,-1.255636 -5.22239,-1.496023 -6.31383,-1.496023 -0.0614,0 -0.12275,0.0026 -0.18413,0.0026 -1.51575,0.04092 -2.2416,0.636769 -2.50045,2.058631 -0.17345,0.94876 -0.16278,1.575299 0.0774,4.178636 0.31222,3.390986 0.55773,4.528987 1.25156,5.799967 0.66447,1.21472 1.72656,2.104662 3.44512,2.88464 0.75253,0.342679 2.18288,0.805551 4.55524,1.572742 0.61377,0.19947 1.28892,0.416841 2.03878,0.662342 0.6031,0.196913 1.29426,0.424513 1.95873,0.641884 1.01406,0.335007 1.9694,0.649555 2.46576,0.805551 1.41967,0.442413 2.36701,0.641883 3.06618,0.641883 0.41096,0 0.74186,-0.0716 1.00605,-0.217371 1.02473,-0.531919 1.17417,-1.828473 0.64579,-5.557023 z m -4.24836,1.194261 c -0.21348,0.258288 -0.48568,0.373367 -0.88596,0.373367 -0.70717,0 -1.96406,-0.373367 -4.69934,-1.260751 -3.62125,-1.178918 -4.41381,-1.45255 -5.13966,-2.20184 -0.69116,-0.708373 -0.97403,-1.644347 -1.21954,-4.004739 -0.24551,-2.380851 -0.11741,-3.173615 0.57641,-3.53931 0.19748,-0.102292 0.42164,-0.150881 0.70717,-0.150881 0.69917,0 1.84398,0.283861 4.37645,1.084297 3.56254,1.125214 6.10568,2.22997 6.43391,6.242381 l 0.008,0.09462 c 0.16545,2.040729 0.23483,2.884639 -0.15745,3.362855 z"
         id="path46"
         style="fill:#1d1d1b;fill-opacity:1;stroke:none;stroke-width:0.270829" /></g></g></svg>
