<svg xmlns="http://www.w3.org/2000/svg" xmlns:xlink="http://www.w3.org/1999/xlink" viewBox="0.0 0.0 9647.45 11424.35" width="290.6689678051038" height="344.0339736130721">
  <defs>
    <style>
      .cls-1 {
        clip-path: url(#clippath);
      }

      .cls-2 {
        fill: none;
      }

      .cls-2, .cls-3, .cls-4, .cls-5, .cls-6, .cls-7 {
        stroke-width: 0px;
      }

      .cls-3, .cls-4 {
        fill: #0c2c65;
      }

      .cls-8 {
        clip-path: url(#clippath-1);
      }

      .cls-9 {
        clip-path: url(#clippath-4);
      }

      .cls-10 {
        clip-path: url(#clippath-3);
      }

      .cls-11 {
        clip-path: url(#clippath-2);
      }

      .cls-4, .cls-6 {
        fill-rule: evenodd;
      }

      .cls-5 {
        fill: #c4053f;
      }

      .cls-6, .cls-7 {
        fill: #fff;
      }
    </style>
    <clipPath id="clippath">
      <path class="cls-2" d="M9128.24,3431.78c-79.72,615.29-212.59,1371.62-443.58,2177-327.06,1140.63-778.82,2148.39-1345.04,2996.7-678.65,1017.98-1524.92,1804.97-2514.29,2346.67-318.89-216.68-1361.39-979.14-2346.67-2246.5-686.83-883.07-1212.17-1833.59-1559.67-2829.08-278-789.04-443.58-1606.69-496.72-2444.78h8705.97Z"/>
    </clipPath>
    <clipPath id="clippath-1">
      <path class="cls-2" d="M9128.24,3431.78c-79.72,615.29-212.59,1371.62-443.58,2177-327.06,1140.63-778.82,2148.39-1345.04,2996.7-678.65,1017.98-1524.92,1804.97-2514.29,2346.67-318.89-216.68-1361.39-979.14-2346.67-2246.5-686.83-883.07-1212.17-1833.59-1559.67-2829.08-278-789.04-443.58-1606.69-496.72-2444.78h8705.97Z"/>
    </clipPath>
    <clipPath id="clippath-2">
      <path class="cls-2" d="M9128.24,3431.78c-79.72,615.29-212.59,1371.62-443.58,2177-327.06,1140.63-778.82,2148.39-1345.04,2996.7-678.65,1017.98-1524.92,1804.97-2514.29,2346.67-318.89-216.68-1361.39-979.14-2346.67-2246.5-686.83-883.07-1212.17-1833.59-1559.67-2829.08-278-789.04-443.58-1606.69-496.72-2444.78h8705.97Z"/>
    </clipPath>
    <clipPath id="clippath-3">
      <path class="cls-2" d="M9128.24,3431.78c-79.72,615.29-212.59,1371.62-443.58,2177-327.06,1140.63-778.82,2148.39-1345.04,2996.7-678.65,1017.98-1524.92,1804.97-2514.29,2346.67-318.89-216.68-1361.39-979.14-2346.67-2246.5-686.83-883.07-1212.17-1833.59-1559.67-2829.08-278-789.04-443.58-1606.69-496.72-2444.78h8705.97Z"/>
    </clipPath>
    <clipPath id="clippath-4">
      <path class="cls-2" d="M9128.24,3431.78c-79.72,615.29-212.59,1371.62-443.58,2177-327.06,1140.63-778.82,2148.39-1345.04,2996.7-678.65,1017.98-1524.92,1804.97-2514.29,2346.67-318.89-216.68-1361.39-979.14-2346.67-2246.5-686.83-883.07-1212.17-1833.59-1559.67-2829.08-278-789.04-443.58-1606.69-496.72-2444.78h8705.97Z"/>
    </clipPath>
  </defs>
  <g>
    <path class="cls-3" d="M9440.99,1957.96C7390.72,81.44,4788.54,206.13,4788.54,206.13,2513.42,230.66,236.25,1957.96,236.25,1957.96c-44.97,511.03-49.06,1003.67-18.4,1473.82h9114.8c112.43-889.2,108.34-1473.82,108.34-1473.82h0Z"/>
    <path class="cls-5" d="M217.85,3431.78c320.93,5093.98,4597.26,7757.49,4597.26,7757.49,3303.32-1731.38,4249.76-5621.37,4519.58-7757.49H217.85ZM401.83,2820.58c0-249.38,10.22-502.86,30.66-756.33,177.84-126.74,668.43-464.02,1326.64-797.21,758.37-384.3,1899-846.27,3033.5-858.54h8.18c6.13,0,643.9-26.57,1516.75,169.66,782.9,175.8,1915.35,576.45,2923.11,1469.73-4.09,196.24-22.49,701.14-110.38,1381.84h410.87c108.34-862.62,106.3-1434.98,106.3-1475.87v-87.9l-65.41-59.28c-1091.57-999.58-2336.45-1437.03-3188.85-1627.13C5487.63-22.81,4833.51-.32,4784.45,1.72h6.13-8.18,2.04c-1214.22,14.31-2418.21,500.81-3213.38,907.6C710.49,1346.76,142.22,1776.03,117.69,1794.43l-71.54,55.19-8.18,89.94c-42.5,496.28-49.33,994.96-20.44,1492.22h406.78c-16.35-202.37-22.49-406.78-22.49-611.2h0Z"/>
    <path class="cls-3" d="M9128.24,3431.78c-79.72,615.28-212.59,1371.61-443.58,2177-327.06,1140.63-778.82,2148.39-1345.04,2996.7-678.65,1017.98-1524.92,1804.97-2514.29,2346.67-318.89-216.68-1361.39-979.14-2346.67-2246.5-686.83-883.07-1212.17-1833.59-1559.67-2829.08-278-789.04-443.58-1606.69-496.72-2444.79H15.48c55.19,887.15,228.94,1753.87,523.3,2589.92,365.9,1036.38,913.73,2029.83,1629.18,2947.64,1218.3,1561.72,2485.67,2358.93,2538.82,2393.68l98.12,61.32,102.21-53.15c1097.7-574.4,2029.83-1430.89,2771.85-2542.9,588.71-885.11,1058.86-1933.75,1398.19-3115.26,243.25-850.36,382.25-1643.48,461.97-2277.17h-410.87"/>
    <g>
      <path class="cls-7" d="M1260.36,1947.74c-26.57,10.22-49.06,20.44-71.54,36.79-136.96,94.03-134.91,269.83-40.88,390.43,87.9,114.47,249.38,198.28,384.3,108.34,20.44-14.31,36.79-32.71,53.15-53.15,38.84,59.28,59.28,87.9,98.12,147.18-16.35,24.53-36.79,44.97-61.32,61.32-212.59,147.18-490.59,59.28-643.9-128.78-163.53-202.37-132.87-504.9,85.85-656.17,30.66-22.49,65.41-36.79,100.16-49.06,38.84,57.24,59.28,85.85,96.07,143.09ZM1436.16,1624.76c132.87,218.72,263.69,437.44,396.56,656.17,67.46-40.88,102.21-61.32,171.71-100.16,34.75,61.32,51.1,91.99,85.85,153.31-130.82,73.59-196.24,112.43-322.97,196.24-171.71-263.69-341.37-527.39-513.08-791.08,71.54-47.02,108.34-69.5,181.93-114.47ZM2100.5,1273.17c28.62,63.37,42.93,96.07,73.59,159.44-75.63,34.75-114.47,53.15-188.06,89.94l91.99,183.97c63.37-32.71,96.07-47.02,161.49-77.68,28.62,63.37,44.97,96.07,73.59,159.44-63.37,28.62-94.03,44.97-157.4,75.63,38.84,75.63,57.24,114.47,94.03,190.1,69.5-34.75,104.25-51.1,173.75-83.81,28.62,63.37,44.97,96.07,73.59,159.44-134.91,61.32-200.33,94.03-331.15,165.57-149.22-275.96-298.44-551.92-447.67-829.92,149.22-81.77,226.9-120.6,382.25-192.15Z"/>
      <path class="cls-6" d="M2595.18,2084.69c-124.69-288.22-251.43-576.45-376.12-862.62,77.68-34.75,116.52-51.1,196.24-81.77,159.44-69.5,374.08-75.63,437.44,126.74,30.66,96.07,18.4,196.24-55.19,275.96,102.21,114.47,200.33,230.99,296.4,351.59-71.54,24.53-108.34,36.79-179.88,63.37-100.16-118.56-204.41-235.08-310.71-347.5h-2.04c65.41,161.49,96.07,241.21,161.49,404.74-67.46,26.57-100.16,38.84-167.62,69.5ZM2564.52,1514.38c12.26-4.09,20.44-6.13,32.71-12.26,83.81-32.71,98.12-98.12,71.54-171.71-22.49-63.37-75.63-102.21-171.71-61.32-10.22,4.09-16.35,6.13-26.57,10.22,36.79,96.07,57.24,143.09,94.03,235.08h0Z"/>
      <path class="cls-7" d="M3235,870.48c79.72,171.71,155.35,343.41,228.94,515.12h2.04c-18.4-186.02-34.75-372.03-47.02-560.09,110.38-24.53,163.53-34.75,273.91-55.19,91.99,302.53,179.88,605.06,263.69,909.64-73.59,12.26-108.34,18.4-181.93,32.71-59.28-218.72-118.56-437.44-179.88-656.17h-2.04c6.13,94.03,10.22,141.05,16.35,233.03,4.09,151.27,10.22,302.53,16.35,453.8-53.15,12.26-81.77,18.4-134.91,32.71-65.41-139-132.87-275.96-202.37-412.92-34.75-77.68-51.1-116.52-85.85-194.19-2.04-6.13-2.04-10.22-4.09-16.35h-2.04c50.42,220.77,101.53,441.53,153.31,662.3-73.59,20.44-112.43,32.71-186.02,55.19-67.46-308.66-132.87-617.33-194.19-925.99,106.29-30.66,159.44-44.97,265.74-73.59h0Z"/>
      <path class="cls-6" d="M4629.1,1140.3c8.18,200.33-59.28,484.46-296.4,506.95-237.12,22.49-357.72-243.25-390.43-441.53-34.75-218.72,32.71-500.81,294.36-527.39,263.69-24.53,384.3,241.21,392.47,461.97h0ZM4316.34,1475.54c120.6-12.26,112.43-249.38,106.29-325.02-6.13-83.81-32.71-312.75-167.62-300.49-134.91,12.26-116.52,243.25-106.29,327.06,8.18,75.63,44.97,310.71,167.62,298.44Z"/>
      <path class="cls-7" d="M4919.36,664.02c85.85,188.06,163.53,380.21,235.08,574.4,2.04,0,2.04-2.04,2.04-2.04-10.22-44.97-12.26-94.03-10.22-143.09,6.13-169.66,10.22-253.47,16.35-423.14,83.81,4.09,124.69,6.13,208.5,12.26-22.49,312.75-44.97,625.51-67.46,940.3-67.46-4.09-102.21-6.13-169.66-10.22-65.41-194.19-139-384.3-218.72-574.4-2.04,0-2.04,2.04-2.04,2.04,4.09,38.84,6.13,57.24,8.18,94.03,0,16.35,0,22.49,2.04,38.84,0,173.75-2.04,259.61-2.04,431.31-71.54,0-106.29,0-177.84,2.04l-24.53-942.35c79.72,0,120.6-2.04,200.33,0h0ZM5998.67,753.96c-12.26,69.5-16.35,104.25-28.62,171.71-63.37-10.22-96.07-16.35-159.44-24.53-36.79,253.47-71.54,506.95-108.34,760.42-71.54-10.22-106.3-14.31-177.84-22.49,28.62-253.47,55.19-508.99,83.81-762.46-63.37-6.13-96.07-10.22-159.44-16.35,6.13-69.5,8.18-104.25,14.31-173.75,181.93,18.4,357.72,40.88,535.56,67.46h0ZM6838.81,952.24c-20.44,67.46-30.66,100.16-51.1,167.62-79.72-24.53-120.6-36.79-200.32-57.24-20.44,77.68-30.66,116.52-53.15,194.19,69.5,18.4,106.3,28.62,175.8,49.06-20.44,67.46-30.66,100.16-51.1,167.62-67.46-20.44-102.21-30.66-169.66-49.06l-102.21,378.16c-69.5-18.4-104.25-26.57-173.75-44.97,71.54-306.62,145.13-611.2,216.68-917.82,165.58,40.88,247.34,63.37,408.83,112.43h0Z"/>
      <path class="cls-6" d="M7437.74,1677.91c-83.81,183.97-271.87,404.74-496.72,318.89-224.85-85.85-216.68-376.12-155.35-570.31,67.46-212.59,255.52-433.36,502.86-339.33,247.34,96.07,243.25,386.34,149.22,590.75ZM7002.34,1835.31c116.52,44.97,214.63-171.71,241.21-241.21,32.71-77.68,110.38-296.4-18.4-345.46-128.78-49.06-214.63,165.57-243.25,245.3-24.53,71.54-94.03,298.44,20.44,341.37ZM8126.61,2039.72c-108.34,175.8-322.97,365.9-537.61,253.47-212.59-114.47-173.75-400.65-87.9-586.67,94.03-206.46,310.71-396.56,545.78-271.87,235.08,124.69,200.32,412.92,79.72,605.06h0ZM7670.77,2139.89c110.38,59.28,235.08-143.09,271.87-208.5,40.88-73.59,145.13-280.05,22.49-345.46-122.65-65.41-235.08,136.96-273.91,212.59-32.71,67.46-130.82,282.09-20.44,341.37Z"/>
      <path class="cls-7" d="M8887.03,1984.53c-40.88,55.19-63.37,83.81-104.25,141.05-55.19-40.88-81.77-59.28-136.96-100.16-147.18,208.5-294.36,419.05-441.53,627.55-61.32-42.93-91.99-63.37-155.35-106.29,141.05-214.63,280.05-427.22,421.09-641.86-55.19-36.79-83.81-55.19-139-89.94,36.79-59.28,55.19-89.94,91.99-149.22,159.44,102.21,314.8,208.5,464.02,318.89Z"/>
      <g class="cls-1">
        <path class="cls-7" d="M6458.6,10373.66l-369.99-639.81,369.99-639.81h83.81c-67.46-173.75-161.49-335.24-275.96-478.33l-42.93,73.59h-739.98l-367.94-643.9,42.93-73.59c-89.94-14.31-181.93-20.44-275.96-20.44s-186.02,8.18-275.96,20.44l42.93,73.59-372.03,641.86h-739.98l-42.93-73.59c-114.47,143.09-208.5,302.53-275.96,478.33h83.81l369.99,639.81-369.99,641.86h-83.81c67.46,173.75,161.49,335.24,275.96,476.28l42.93-73.59h739.98l369.99,641.86-42.93,73.59c89.94,14.31,181.93,20.44,275.96,20.44s186.02-8.18,275.96-20.44l-42.93-73.59,369.99-639.81h739.98l42.93,73.59c114.47-143.09,208.5-302.53,275.96-476.28h-83.81v-2.04Z"/>
      </g>
    </g>
    <g>
      <g class="cls-8">
        <path class="cls-3" d="M6088.61,9731.8l369.99,639.81h83.81c77.68-198.28,118.56-414.96,118.56-639.81s-42.93-441.53-118.56-639.81h-83.81l-369.99,639.81Z"/>
      </g>
      <g class="cls-11">
        <path class="cls-3" d="M5485.59,8687.25h739.98l42.93-73.59c-271.87-335.24-662.3-572.36-1109.97-641.86l-42.93,73.59,369.99,641.86Z"/>
      </g>
      <g class="cls-10">
        <path class="cls-3" d="M4277.51,8687.25l369.99-639.81-42.93-73.59c-445.62,69.5-838.1,304.58-1109.97,641.86l42.93,73.59h739.98"/>
      </g>
      <g class="cls-9">
        <path class="cls-3" d="M3674.49,9731.8l-369.99-639.81h-83.81c-77.68,198.28-118.56,414.96-118.56,639.81s42.93,441.53,118.56,639.81h83.81l369.99-639.81Z"/>
      </g>
    </g>
    <path class="cls-7" d="M6583.29,7350.39v-322.97c10.22-18.4,55.19,2.04,49.06-44.97,2.04-2.04,2.04-4.09,4.09-8.18,108.34-10.22,155.35-65.41,216.68-120.6-2.04-2.04-2.04-4.09-4.09-8.18-96.07-40.88-192.15-79.72-288.22-120.6-55.19-16.35-292.31,63.37-345.46,77.68-194.19,59.28-372.03,108.34-558.05,183.97-69.5,26.57-136.96,53.15-206.46,79.72-16.35,10.22-32.71,22.49-49.06,32.71-36.79,10.22-75.63-8.18-98.12-14.31-153.31,42.93-310.71,77.68-484.46,108.34-102.21,6.81-204.41,12.95-306.62,18.4-175.8,40.88-265.74,204.41-431.31,261.65-134.91,47.01-322.97,55.19-476.28,18.4-77.68-18.4-192.15-94.03-288.22-40.88-120.6,63.37-44.97,304.58-122.65,396.56-61.32,71.54-173.75,91.99-273.91,122.65-204.41,65.41-564.18,143.09-836.05,89.94v-14.31c20.44-24.53,40.88-49.06,59.28-75.63-24.53-20.44-47.02-40.88-71.54-59.28,65.41-28.62,130.82-57.24,194.19-85.85,208.5,194.19,369.99-28.62,472.2-171.71,20.44-28.62,116.52-181.93,98.12-214.63-61.32-75.63-122.65-149.22-183.97-224.85l171.71-85.85c32.71,6.13,67.46,12.26,100.16,18.4,108.34,20.44,247.34-4.09,314.8-44.97,186.02-110.38,192.15-318.89,261.65-539.65,26.57-81.77,75.63-155.35,100.16-228.94-269.83,98.12-421.09,322.97-647.99,461.97-192.15,116.52-398.61,157.4-697.05,157.4l-49.06,49.06c-57.24-6.13-320.93-12.26-349.55-36.79,59.28-26.57,116.52-55.19,175.8-81.77,53.15-6.13,104.25-12.26,157.4-18.4,157.4-44.97,312.75-81.77,435.4-169.66,59.28-42.93,71.54-122.65,112.43-183.97,69.5-100.16,165.58-188.06,273.91-247.34,318.89-173.75,758.37-194.19,1159.02-282.09,16.35-39.52,32.71-78.36,49.06-116.52v-4.09c-190.1,2.04-380.21,4.09-570.31,8.18-2.04-2.04-4.09-2.04-8.18-4.09-4.09-304.58,77.68-647.99,216.68-817.65,44.97-55.19,98.12-106.29,143.09-161.49-12.26-30.66-49.06-57.24-40.88-81.77,57.24-24.53,114.47-49.06,171.71-75.63,120.6,18.4,239.16,34.75,359.77,53.15v-4.09c-80.4-144.45-160.12-289.59-239.16-435.4-8.18-34.75-16.35-69.5-26.57-104.25-61.32-75.63-122.65-149.22-183.97-224.85,8.18-4.09,14.31-10.22,22.49-14.31-12.26-10.22-20.44-4.09-18.4-18.4,18.4-10.22,34.75-20.44,53.15-30.66-16.35-32.71-53.15-83.81-49.06-120.6,49.06-18.4,171.71-104.25,224.85-94.03,77.68,14.31,98.12,132.87,14.31,153.31,10.22,34.75,38.84,57.24,55.19,85.85l171.71,282.09c30.66,47.02,77.68,85.85,98.12,143.09h8.18c40.88-126.74,79.72-253.47,120.6-378.16,63.37-30.66,126.74-59.28,190.1-89.94,2.04,2.04,2.04,4.09,4.09,8.18-30.66,114.47-51.1,255.52-75.63,347.5l8.18,8.18c30.66-14.31,63.37-26.57,94.03-40.88-4.09-10.22-8.18-20.44-10.22-30.66l183.97-98.12c83.81,24.53,241.21,265.74,192.15,394.52-24.53,61.32-77.68,85.85-126.74,122.65,8.18,22.49,14.31,44.97,22.49,67.46,51.1-24.53,102.21-47.02,153.31-71.54,59.28,0,204.41,32.71,255.52-4.09-63.37-42.93-126.74-85.85-192.15-126.74,2.04-2.04,2.04-4.09,4.09-8.18,63.37-16.35,122.65-53.15,175.8-79.72h484.46c-36.79-69.5-75.63-139-112.43-210.55,53.15-16.35,159.44-89.94,198.28-71.54,49.06,65.41,98.12,132.87,145.13,198.28,44.97-22.49,159.44-96.07,198.28-81.77,136.96,349.55,275.96,697.05,412.92,1046.6-4.09,2.04-8.18,2.04-12.26,4.09-34.07,12.26-68.82,24.53-104.25,36.79-53.15,22.49-100.16,75.63-161.49,81.77-104.25-36.79-241.21-153.31-329.11-165.58-14.31,8.18-26.57,18.4-40.88,26.57-8.18,89.94,28.62,181.93,49.06,257.56,42.93,165.58,67.46,294.36,120.6,445.62,26.57,85.85,53.15,169.66,77.68,255.52-32.71,22.49-96.07,89.94-108.34,130.82l8.18,8.18c186.02,47.01,333.19-145.13,494.68-63.37,44.97,22.49,81.77,75.63,94.03,130.82,4.09,22.49-4.09,38.84,8.18,53.15,400.65,263.69,799.26,527.39,1199.91,791.08v10.22c-69.5,30.66-136.96,63.37-206.46,94.03-226.9-104.25-447.67-212.59-678.65-314.8-104.25-49.06-210.55-98.12-314.8-145.13-61.32,124.69-316.84,396.56-461.97,412.92h0Z"/>
    <g>
      <path class="cls-3" d="M4766.05,4010.27c0,120.6-65.41,222.81-71.54,355.68,53.15-8.18,69.5-38.84,130.82-40.88,36.79,42.93,75.63,89.94,108.34,143.09h4.09c16.35-67.46-8.18-183.97,18.4-265.74h14.31c69.5,96.07,300.49,284.13,157.4,445.62-30.66,34.75-42.93,65.41-98.12,79.72,2.04,63.37,128.78,374.08,139,378.16,55.19-53.15,136.96-42.93,149.22-143.09-30.66-22.49-141.05-204.41-143.09-243.25,122.65,2.04,347.5,28.62,431.31-26.57-57.24-57.24-114.47-112.43-171.71-167.62v-26.57c190.1,2.04,382.25,2.04,572.36,4.09-14.31-51.1-28.62-275.96-10.22-296.4,4.09,2.04,8.18,4.09,10.22,8.18,65.41,114.47,167.62,247.34,251.43,351.59,8.18-8.18,6.13-4.09,12.26-18.4,49.06-32.71,61.32-161.49,59.28-216.68,10.22,2.04,22.49,2.04,32.71,4.09,6.13,63.37,67.46,218.72,116.52,284.13,18.4,24.53,30.66,108.34,40.88,139,49.06,132.87,100.16,265.74,157.4,396.56,30.66,69.5,91.99,153.31,94.03,247.34-65.41,12.26-190.1,145.13-282.09,120.6-89.94-24.53-163.53-65.41-228.94-112.43-22.49-16.35-69.5-63.37-108.34-49.06-8.18,4.09-18.4,10.22-26.57,14.31,34.75,235.08,87.9,496.72,165.58,697.05,34.75,87.9,75.63,188.06,81.77,261.65-36.79,40.88-71.54,79.72-108.34,120.6,26.57,59.28,235.08-10.22,259.61-22.49,100.16-51.1,241.21-77.68,310.71,32.71,24.53,40.88,14.31,75.63,30.66,126.74,51.1,2.04,273.91,183.97,337.28,220.77,300.49,173.75,558.05,376.12,854.45,558.05v30.66h-8.18c-65.41,26.57-269.83,30.66-351.59,30.66-102.21-171.71-351.59-337.28-539.65-423.14-87.9-30.66-177.84-63.37-265.74-94.03,8.18,198.28-214.63,341.37-337.28,435.4-38.84,30.66-102.21,87.9-165.58,89.94v-382.25c149.22-6.13,278-71.54,300.49-206.46-269.83-108.34-496.72,16.35-737.93,67.46-98.12,20.44-267.78,75.63-359.77,122.65-75.63,24.53-149.22,49.06-224.85,75.63-40.88,20.44-104.25,59.28-143.09,71.54-38.84-2.04-77.68-4.09-116.52-8.18-139,30.66-302.53,77.68-441.53,100.16-118.56,8.18-237.12,18.4-355.68,26.57-173.75,67.46-271.87,210.55-457.89,273.91-73.59,24.53-306.62,49.06-394.52,14.31-81.77-32.71-216.68-104.25-322.97-55.19-120.6,55.19-38.84,314.8-124.69,400.65-141.05,141.05-827.87,271.87-1120.19,210.55-2.04-4.09-2.04-10.22-4.09-14.31,59.28-75.63,116.52-153.31,175.8-228.94h10.22c36.79,18.4,71.54,36.79,108.34,57.24,32.71,16.35,65.41,4.09,98.12,4.09,8.18,2.04,14.31,2.04,22.49,4.09,186.02-79.72,257.56-245.3,333.19-412.92,22.49-51.1,57.24-143.09,36.79-228.94-12.26-39.52-24.53-78.36-36.79-116.52h10.22c30.66-6.13,106.29,6.13,139,14.31,67.46,18.4,183.97-10.22,228.94-30.66,302.53-134.91,212.59-531.48,394.52-768.59-122.65,22.49-230.99,145.13-310.71,214.63-98.12,83.81-230.99,161.49-333.19,255.52-16.35-6.13-220.77,89.94-265.74,104.25-183.97,57.24-496.72,61.32-656.17-22.49v-18.4c186.02,0,568.27-118.56,637.77-220.77,51.1-75.63,75.63-159.44,130.82-228.94,77.68-94.03,194.19-149.22,300.49-214.63,40.88-12.26,79.72-24.53,120.6-36.79,102.21-40.88,228.94-59.28,345.46-102.21,106.29-38.84,253.47-28.62,341.37-59.28,83.81-30.66,202.37-2.04,278-49.06,0-24.53,18.4-67.46,36.79-94.03h-574.4c-6.13-347.5,81.77-658.21,220.77-846.27,18.4-24.53,120.6-136.96,139-143.09,0,0,24.53-12.26,10.22-18.4,34.75-18.4,83.81-42.93,108.34-71.54,0,0,10.22-65.41,12.26-67.46,130.82-2.04,226.9,32.71,351.59,44.97v-12.26c-36.79-22.49-44.97-83.81-67.46-120.6-87.9-139-165.58-261.65-206.46-468.11-8.18-47.02-16.35-245.3,10.22-273.91,108.34-24.53,149.22,108.34,192.15,175.8,69.5,110.38,139,208.5,216.68,310.71,38.84,51.1,47.02,104.25,85.85,147.18-34.75-208.5,20.44-404.74,112.43-513.08,30.66-36.79,69.5-59.28,94.03-94.03,12.26,2.04,20.44,2.04,28.62,2.04h0Z"/>
      <path class="cls-4" d="M4516.67,9208.5c-10.22-47.01-32.71-75.63-59.28-91.99-26.57-16.35-59.28-18.4-83.81-18.4-167.62,0-230.99,167.62-239.16,304.58h4.09c59.28-100.16,165.58-126.74,280.05-126.74,218.72,0,388.39,175.8,388.39,394.52,0,284.13-218.72,441.53-478.33,441.53-353.64,0-476.28-300.49-476.28-605.06,0-335.24,161.49-621.42,523.3-621.42,186.02,0,337.28,81.77,396.56,249.38,6.13,20.44-255.52,73.59-255.52,73.59ZM4330.65,9872.85c122.65,0,202.37-85.85,202.37-183.97,0-112.43-71.54-200.32-204.41-200.32-110.38,0-186.02,89.94-186.02,198.28s75.63,186.02,188.06,186.02h0Z"/>
      <path class="cls-3" d="M5307.75,9363.86c26.57-2.04,51.1,4.09,77.68,2.04,85.85,0,194.19-22.49,194.19-124.69,0-77.68-77.68-120.6-171.71-120.6-118.56,0-186.02,61.32-186.02,169.66,0,0-265.74-83.81-255.52-120.6,55.19-188.06,224.85-286.18,437.44-286.18s445.62,87.9,445.62,331.15c0,104.25-57.24,214.63-165.58,233.03v4.09c136.96,36.79,204.41,132.87,204.41,273.91,0,271.87-247.34,384.3-484.46,384.3-253.47,0-461.97-116.52-486.5-365.9-2.04-26.57,271.87-81.77,271.87-81.77-4.09,143.09,67.46,212.59,214.63,212.59,100.16,0,194.19-42.93,194.19-147.18,0-132.87-96.07-163.53-212.59-163.53-26.57,0-51.1,2.04-77.68,4.09v-204.41Z"/>
    </g>
    <path class="cls-7" d="M4275.46,2871.69l-14.31-4.09-171.71,970.96,112.43-40.88,73.59-925.99ZM4986.82,6731.01s161.49,243.25,222.81,278c0,0-100.16,96.07-235.08-30.66-134.91-124.69,12.26-247.34,12.26-247.34ZM5444.71,5825.46l-273.91,588.71h-42.93s-42.93-87.9-47.02-118.56c0,0-26.57-77.68,18.4-126.74l61.32-104.25s26.57-69.5-4.09-91.99c0,0-208.5-169.66-235.08-222.81,0,0-47.02-77.68-12.26-126.74,0,0,12.26-57.24,112.43-18.4,0,0,369.99,147.18,400.65,165.58-4.09,2.04,32.71,28.62,22.49,55.19Z"/>
  </g>
</svg>