<svg xmlns="http://www.w3.org/2000/svg" xmlns:xlink="http://www.w3.org/1999/xlink" version="1.1" id="Calque_1" x="0px" y="0px" style="enable-background:new 0 0 525 590;" xml:space="preserve" viewBox="21.45 41.54 482.8 506.9" width="308.4919549118796" height="324.1575619972485">
<style type="text/css">
	.st0{fill-rule:evenodd;clip-rule:evenodd;}
	.st1{fill-rule:evenodd;clip-rule:evenodd;fill:#E30613;}
	.st2{fill:#FFFFFF;}
</style>
<g>
	<polygon id="polygon835_00000003069882249385653260000004660055383022003596_" class="st0" points="503.65,197.7 503.65,272.65    426.49,236.82 426.49,161.86  "/>
	<polygon id="polygon837_00000137850858730897319580000001511910779833970599_" class="st0" points="131.76,269.21 131.76,370.59    22.09,337.58 22.09,262.6  "/>
	<path id="path839_00000066506365497344135780000008505624226645258416_" class="st1" d="M67.98,41.54v326.1   c0,0,28.39,91.55,194.52,180.8c166.13-89.25,194.52-180.8,194.52-180.8V41.54H67.98z"/>
	
		<g id="g849_00000161591781710588833620000009390548145990851769_" transform="matrix(1.0196629,0,0,1.0196629,-59.801103,-32.865138)">
		<polygon id="polygon843_00000168087434425772797050000013530055952982415251_" class="st2" points="233.94,189.53 233.94,162.01     183.97,162.01 183.97,132.05 236.91,132.05 236.91,102.25 154.82,102.25 154.82,252.49 236.91,252.49 236.91,222.68     183.97,222.68 183.97,189.53   "/>
		<path id="path845_00000010288007887395132720000005162097529347849616_" class="st2" d="M326.23,102.24h-34.54l-39.71,150.25    h29.77l5.93-27.37h42.1l5.57,20.48l27.79-3.74L326.23,102.24z M293.75,197.59l15.2-53.98l14.74,53.98H293.75z"/>
		<path id="path847_00000039848385201164915070000006068929911105856897_" class="st2" d="M477.34,172.08h-52.9v27.52h23.59v11.55    c0,11.54-3.96,11.54-11.16,11.54H417.6c-7.29,0-10.31,0-10.31-11.56v-69.38c0-9.72,2.07-9.73,10.79-9.75h22.42    c0.3,0,0.58,0,0.82,0.02c3.4,0.37,6.72,1.5,6.72,10.75v10.73h29.31v-24.03c0-16.28-10.64-27.22-26.46-27.22h-42.54    c-17.12,0-30.4,17.09-30.4,31.78v87.13c0,5.81,2.54,12.28,6.67,17.82l92.73-12.47V172.08L477.34,172.08z"/>
	</g>
	
		<g id="g883_00000038404473165375308620000008583766505075552694_" transform="matrix(1.0196629,0,0,1.0196629,-59.801103,-32.865138)">
		<polygon id="polygon851_00000116941118285579958760000011287502394957313163_" class="st0" points="553.17,226.11 553.17,299.62     79.68,363.3 79.68,289.79   "/>
		<path id="path853_00000008108203559073535290000010164139218650312604_" class="st2" d="M104.19,335.82l12.68-1.79l0.02,6.4    l-21.57,3.05l-0.15-38.74l21.07-2.98l0.02,6.39l-12.19,1.72l0.03,9.44l10.38-1.47l0.02,6.4l-10.38,1.47L104.19,335.82z"/>
		<path id="path855_00000009574532539170621350000002681343615637469373_" class="st2" d="M137.13,298.8l8.14-1.15l0.15,38.74    l-7.95,1.12l-8.72-21.99l0.09,23.21l-8.08,1.14l-0.15-38.74l8.02-1.13l8.6,21.94L137.13,298.8z"/>
		<path id="path857_00000057846555334440372460000016625824160995875469_" class="st2" d="M180.1,331.48l-1.4-6.81l-9.01,1.27    l-1.34,7.2l-8.76,1.24l8.8-40l11.31-1.6l9.34,37.44L180.1,331.48z M170.91,319.44l6.47-0.92l-3.29-15.92L170.91,319.44z"/>
		<path id="path859_00000051378945918266118180000009746008671904123316_" class="st2" d="M208.66,288.68l9.2-1.3l-8.56,39.97    l-10.88,1.54l-8.91-37.49l9.26-1.31l5.02,28.05L208.66,288.68z"/>
		<path id="path861_00000049930814683445456880000011987095644705408413_" class="st2" d="M239.26,323.11l-1.4-6.81l-9.01,1.27    l-1.34,7.2l-8.76,1.24l8.8-40l11.31-1.6l9.34,37.44L239.26,323.11z M230.07,311.07l6.47-0.92l-3.29-15.92L230.07,311.07z"/>
		<path id="path863_00000077283525505882454110000006248291272958604421_" class="st2" d="M267.64,280.34l8.14-1.15l0.15,38.74    l-7.95,1.12l-8.72-21.99l0.09,23.21l-8.08,1.14l-0.15-38.74l8.02-1.13l8.6,21.94L267.64,280.34z"/>
		<path id="path865_00000059992320841049640180000002410054087607047101_" class="st2" d="M302.2,275.46l0.02,6.39l-7.28,1.03    l0.12,32.34l-8.89,1.26l-0.12-32.34l-7.21,1.02l-0.02-6.39L302.2,275.46z"/>
		<path id="path867_00000084524757826655533210000002449732256976539276_" class="st2" d="M339.84,282.69l-8.89,1.26l-0.02-5.06    c0-1.02-0.57-1.44-1.68-1.29l-2.55,0.36c-1.12,0.16-1.68,0.75-1.68,1.76l0.09,23.75c0,0.57,0.12,0.95,0.37,1.13    c0.25,0.19,0.69,0.24,1.31,0.15l2.55-0.36c0.62-0.08,1.05-0.26,1.3-0.52c0.25-0.26,0.37-0.68,0.37-1.24l-0.03-7.56l-3.11,0.44    l-0.02-5.79l11.99-1.7l0.05,14.13c0.02,4.46-2.58,7.07-7.81,7.81l-8.02,1.13c-5.22,0.74-7.84-1.12-7.86-5.59l-0.09-25.34    c-0.02-4.46,2.58-7.07,7.81-7.81l8.02-1.13c5.22-0.74,7.84,1.12,7.86,5.59L339.84,282.69z"/>
		<path id="path869_00000147929657322205273820000010500756409359308199_" class="st2" d="M359.87,267.3l8.89-1.26l0.12,31.97    c0.01,4.51-2.61,7.13-7.87,7.88l-8.33,1.18c-5.22,0.74-7.84-1.14-7.86-5.65l-0.12-31.97l8.89-1.26l0.12,30.82    c0,1.02,0.54,1.45,1.62,1.3l2.98-0.42c1.12-0.16,1.68-0.74,1.68-1.76L359.87,267.3z"/>
		<path id="path871_00000156571836524976733410000002793598261176761512_" class="st2" d="M374.48,265.23l8.83-1.25l0.15,38.74    l-8.83,1.25L374.48,265.23z"/>
		<path id="path873_00000178163762755608256240000007460368878366473858_" class="st2" d="M405.61,260.83l8.14-1.15l0.14,38.74    l-7.95,1.12l-8.72-21.99l0.09,23.21l-8.08,1.14l-0.15-38.74l8.02-1.13l8.6,21.94L405.61,260.83z"/>
		<path id="path875_00000061439195915218358420000006998361442399828874_" class="st2" d="M442.7,268.14l-8.89,1.26l-0.02-5.06    c0-1.02-0.57-1.44-1.69-1.29l-2.55,0.36c-1.12,0.16-1.68,0.75-1.67,1.76l0.09,23.75c0,0.57,0.12,0.95,0.37,1.13    c0.25,0.19,0.68,0.24,1.31,0.15l2.54-0.36c0.62-0.08,1.05-0.26,1.3-0.52c0.25-0.26,0.37-0.68,0.37-1.24l-0.03-7.56l-3.11,0.44    l-0.02-5.79l12-1.7l0.05,14.13c0.01,4.47-2.59,7.07-7.81,7.81l-8.01,1.13c-5.22,0.74-7.84-1.12-7.86-5.59L419,265.64    c-0.02-4.46,2.59-7.07,7.81-7.81l8.02-1.13c5.22-0.74,7.84,1.12,7.86,5.59L442.7,268.14z"/>
		<path id="path877_00000132796026838454813620000008772863614197560765_" class="st2" d="M465.79,291.07l-1.39-6.81l-9.01,1.27    l-1.34,7.2l-8.76,1.24l8.8-40l11.31-1.6l9.34,37.44L465.79,291.07z M456.6,279.03l6.47-0.92l-3.29-15.92L456.6,279.03z"/>
		<path id="path879_00000039832487965534271480000001581886530650748060_" class="st2" d="M485.62,288.27l-7.83,1.11l-0.14-38.74    l9.69-1.37l6.6,21l6.45-22.85l9.69-1.37l0.14,38.74l-7.83,1.11l-0.1-26.01l-5.03,18.32l-6.58,0.93l-5.16-16.82L485.62,288.27z"/>
		<path id="path881_00000034782637460046033620000017778854838162527159_" class="st2" d="M515.68,245.27l16.28-2.31    c5.22-0.74,7.84,1.13,7.86,5.59l0.04,11.75c0.01,4.51-2.58,7.13-7.81,7.87l-7.46,1.05l0.05,13.52l-8.83,1.25L515.68,245.27z     M530.97,260.41l-0.03-9.38c0-1.01-0.55-1.45-1.63-1.3l-4.78,0.68l0.04,12.43l4.78-0.68    C530.43,262.01,530.97,261.43,530.97,260.41z"/>
	</g>
	
		<g id="g907_00000152952557794394701110000016916910288610710952_" transform="matrix(1.0196629,0,0,1.0196629,-59.801103,-32.865138)">
		<path id="path885_00000127013359780280663410000013159063058696629415_" d="M156.2,390.33c0,0,23.42,75.95,160.49,149.99    c137.07-74.04,160.5-149.99,160.5-149.99v-70.74l-320.99,43.4V390.33z"/>
		<g id="g895_00000052092067646915105920000004303516985972419508_">
			<path id="path887_00000107576714836501290140000018267860079237301383_" class="st2" d="M417.51,381.57     c-19.16-2.93-38.5,6.29-47.47,22.64c-8,14.59-6.14,32.15,4.57,43.4c9.28,9.72,23.17,11.95,33.87,5.41     c6.37-3.9,9.95-11.46,8.57-18.12c-1-4.85-4.6-8.43-8.66-8.64c-3.09-0.16-5.09,1.45-5.51,4.44c-0.49,3.51-2.83,5.27-6.36,4.63     c-3.69-0.69-6.04-3.1-7.23-6.49c-2.17-6.17-0.59-11.73,3.65-16.39c6.41-7.02,14.58-8.85,23.6-6.74     c14.59,3.42,24.71,17.84,24.08,33.97c-0.11,2.83-0.52,5.6-1.2,8.28c9.54-10.62,16.81-20.25,22.29-28.46     C455.12,399.43,438.34,384.76,417.51,381.57z"/>
			<path id="path889_00000082363471217481110130000004798710124636247993_" class="st2" d="M219.43,365.28     c3.16,20.04,14.74,33.83,34.6,39.52c17.02,4.88,34.93-2.15,43.63-16.49c6.79-11.21,5.92-25.3-2.11-34.48     c-4.34-4.97-10.25-7.6-16.13-7.5l-4.4,0.6c-0.88,0.23-1.75,0.51-2.61,0.88c-4.81,2.04-8.05,7.01-7.53,11.56     c0.47,4.25,4.17,7.12,8,5.01c2.16-1.19,4.42-0.22,5.82,1.95c2.37,3.65,1.23,8.98-2.66,12.42c-5.07,4.47-12.85,5.38-19.55,1.9     c-10.06-5.24-14.26-14.03-13.87-25.01c0.05-1.48,0.22-2.95,0.48-4.38l-24.45,3.31C218.6,358,218.85,361.58,219.43,365.28z"/>
			<path id="path891_00000173152481480105033380000002580582695594732706_" class="st2" d="M319.27,346.12     c10.66,18.62,8.87,42.43-4.59,59.9c-10.21,13.25-23.77,20.88-40.16,23.67c-9.01,1.53-17.54,4.45-22.37,7.12     c-10.41,5.82-16.86,10.87-22.5,16.95c-5.02,5.41-9.09,11.43-12.2,17.81c5.88,5.37,12.31,10.88,19.31,16.49     c4.4-13.33,14.61-24.8,28.85-30.55c24.09-9.74,45.74-4.41,64.58,13.03c4.19,3.88,7.64,8.55,11.75,12.54     c10.33,10.01,22.62,16.49,35.41,19.58c11.18-8.03,21.17-15.91,30.06-23.55c-24.67,6.28-51.33-7.09-61.91-33.03     c-6.29-15.41-5.47-30.79-0.09-46.44c7.63-22.2,6.93-43.04-3.06-61.82l-26.21,3.54C317.28,342.87,318.32,344.45,319.27,346.12z"/>
			<path id="path893_00000154400019060411134920000003753425806700328590_" class="st2" d="M308.52,483.64     c-12.76-9.17-29.63-8.98-41.06,0.46c-6.25,5.16-9.57,12.65-9.27,20.09c6.91,4.9,14.28,9.86,22.12,14.83     c0.35-0.35,0.67-0.74,0.98-1.17c1.64-2.34,1.37-5.09-0.57-6.74c-3.98-3.37-3.55-7.53,1.04-10.08c4.34-2.42,10.35-1.4,14.56,2.79     c6.25,6.21,7.19,13.75,4.54,21.79c-0.54,1.63-1.24,3.18-2.09,4.65c5.75,3.35,11.71,6.71,17.92,10.06     c1.71-0.93,3.41-1.85,5.09-2.78c0.14-0.31,0.29-0.62,0.42-0.93C330.44,517.4,324.73,495.28,308.52,483.64z"/>
		</g>
		<g id="g905_00000090259039553054049760000001120693286027972779_">
			<path id="path897_00000131341349098089554030000008409432635781542024_" d="M290.4,432.46h-2.65v-4.26h7.42v19.56h-4.77V432.46z"/>
			<path id="path899_00000133515670256914468520000000778382056917767306_" d="M303.24,442.03c0.27,1.37,1.04,2.11,2.47,2.11     c1.93,0,2.6-1.64,2.6-5.36c-0.78,1.1-2.23,1.74-3.89,1.74c-3.35,0-5.92-2.09-5.92-6.24c0-3.97,2.57-6.54,6.72-6.54     c5.57,0,7.13,3.78,7.13,9.73c0,6.67-1.55,10.37-6.81,10.37c-4.26,0-6.33-2.81-6.54-5.82H303.24z M307.93,434.36     c0-1.74-1.02-2.68-2.57-2.68c-1.58,0-2.55,1.02-2.55,2.65c0,1.47,0.86,2.57,2.65,2.57C306.96,436.91,307.93,435.95,307.93,434.36     z"/>
			<path id="path901_00000021095887382126797740000014412253152662379912_" d="M316.96,432.46h-2.65v-4.26h7.42v19.56h-4.77V432.46z     "/>
			<path id="path903_00000076571567539489886400000001161254686820586397_" d="M324.7,444.09c4.15-3.43,8.58-6.83,8.58-10.13     c0-1.42-0.64-2.33-2.04-2.33c-1.37,0-2.17,1.07-2.17,2.92h-4.42c0.13-4.75,3.22-6.78,6.78-6.78c4.45,0,6.43,2.6,6.43,5.89     c0,4.29-3.83,7.72-6.94,10.1h7.23v3.73H324.7V444.09z"/>
		</g>
	</g>
</g>
</svg>