<svg height="352.453688" viewBox="0 0 483.39999 600" width="283.725219" xmlns="http://www.w3.org/2000/svg"><g transform="matrix(1.25 0 0 -1.25 0 600.00003)"><g transform="matrix(.99999698 0 0 .99999698 -32.746046 -389.36807)"><path d="m226.09561 389.36927-.26164.0581c-81.16549 19.24486-125.71639 67.28426-126.152456 67.77846-66.164995 66.15046-66.935369 172.91274-66.935369 173.98835v197.68101l.552344.34885c.174424.10174 16.744744 10.17475 48.664412 20.10241 29.419589 9.14275 78.287489 20.04427 144.132709 20.04427 65.85975 0 114.74219-10.90152 144.14724-20.04427 31.91967-9.92766 48.48999-20.00067 48.66442-20.10241l.5378-.34885v-197.68101c0-1.07561-.75583-107.83789-66.9499-174.03196-.40699-.45059-44.94336-48.48999-126.12339-67.73481l-.27617-.0581z" fill="#fff"/><path d="m226.09852 390.97252-1.1483.27617c-80.42419 19.0704-123.39074 65.39462-125.178586 67.34236-65.627187 65.62719-66.383026 168.23235-66.383026 172.56389v195.2536l2.369265 1.45353c2.630902 1.62796 66.121387 39.7833 190.340647 39.7833 124.21925 0 187.70974-38.15534 190.35518-39.7833l2.36926-1.45353v-195.2536c0-4.33154-.75584-106.9367-66.54291-172.72378-1.62796-1.78785-44.59451-48.11207-125.03324-67.18247z"/><path d="m43.3308 820.72521v-189.57027c0-1.01748.799445-102.8668 63.62131-165.68866.58141-.61049 42.58862-45.77188 119.14641-64.2754 76.57232 18.50352 118.57953 63.65038 119.00105 64.11551 63.0399 63.05443 63.7812 164.83107 63.7812 165.84855v189.57027c-12.54402 6.75894-74.65365 36.97797-182.78225 36.97797-108.11407 0-170.209162-30.20449-182.76772-36.97797" fill="#fff"/></g><g fill-rule="evenodd" transform="matrix(.99999698 0 0 .99999698 -32.746046 -389.36807)"><path d="m359.90821 498.84384c36.97797 55.03091 36.97797 127.18447 36.97797 127.18447v186.73588c-60.10374 34.41975-170.87778 35.27733-170.87778 35.27733s-110.75951-.85758-170.877789-35.27733z" fill="#ec6608"/><path d="m360.73091 500.15203-24.62291-28.37304c-60.48167-53.66458-109.9746-58.43218-109.9746-58.43218s-49.49293 4.7676-109.97459 58.43218c-60.990407 54.11517-60.990407 154.64178-60.990407 154.64178v186.43063"/></g><path d="m258.41335 110.78245c-4.1571 0-6.52636 1.96226-6.52636 6.11937v138.37628c0 15.14581-6.5409 21.68671-21.6867 21.68671h-31.46898v-67.16774-46.54211c-25.07343 32.00679-81.67399 34.2307-81.67399 53.75164 0 9.5061 10.6544 13.83763 21.03262 13.83763 9.52064 0 20.17503-4.60771 20.17503-12.10794v-8.93922h32.37017v67.16774h-11.20674v-9.30261c-12.58759 6.36647-27.87875 9.30261-40.75704 9.30261-40.93148 0-73.505142-24.79727-73.505142-61.97863 0-64.56591 93.389462-67.15319 93.389462-89.93004 0-11.52652-10.36369-15.27663-20.75645-15.27663-25.93101 0-47.254338 24.21585-47.254338 24.21585l-28.547374-36.033072s26.817669-34.012657 75.234832-34.012657c28.37295 0 49.42011 11.003237 61.49896 27.384547v-5.000145c0-15.160344 6.52637-21.686704 21.67217-21.686704h68.15613l30.00091 28.823543 9.98577 17.311578z" fill="#fff"/><g transform="matrix(.99999698 0 0 .99999698 -32.746046 -389.36807)"><g fill="#ec6608"><path d="m211.75066 518.95498c2.61636 0 3.19778 1.26458 3.72105 2.70358h2.28205v-21.55595h-3.38674v16.45403h-2.61636z"/><path d="m227.57386 512.82396v3.88094c0 1.54075-.68317 2.0931-1.75878 2.0931-1.07562 0-1.74425-.55235-1.74425-2.0931v-3.88094c0-1.54075.66863-2.12216 1.74425-2.12216 1.07561 0 1.75878.58141 1.75878 2.12216m3.38674-7.3549c0-3.63384-1.65703-5.61065-5.17459-5.61065-3.3286 0-5.04378 1.97681-5.04378 5.42169v.55235h3.19778v-.77038c0-1.54075.68317-2.12216 1.75878-2.12216 1.1919 0 1.87507.58141 1.87507 2.64544v3.93908c-.58142-1.22097-1.62796-1.90413-3.13964-1.90413-2.48555 0-3.75013 1.75878-3.75013 4.92749v3.93908c0 3.45942 1.80239 5.4217 5.13099 5.4217s5.14552-1.96228 5.14552-5.4217z"/><path d="m237.24278 505.06353c0-1.54075.68317-2.12217 1.75878-2.12217 1.07562 0 1.74425.58142 1.74425 2.12217v11.64283c0 1.54075-.66863 2.12216-1.74425 2.12216-1.07561 0-1.75878-.58141-1.75878-2.12216zm-3.38674 11.4248c0 3.44488 1.81692 5.42169 5.14552 5.42169s5.13099-1.97681 5.13099-5.42169v-11.20677c0-3.44488-1.80239-5.42169-5.13099-5.42169s-5.14552 1.97681-5.14552 5.42169z"/><path d="m252.20113 518.82852c-1.07562 0-1.75878-.58141-1.75878-2.12216v-2.31113h-3.19778v2.0931c0 3.44488 1.72971 5.42169 5.05831 5.42169 3.31406 0 5.04377-1.97681 5.04377-5.42169 0-6.77349-6.74441-9.30264-6.74441-12.83473 0-.15989 0-.30525.0291-.46514h6.4101v-3.08149h-9.79684v2.64543c0 6.35196 6.71534 7.39851 6.71534 13.61964 0 1.93321-.68316 2.45648-1.75878 2.45648"/></g><g fill="#fff"><path d="m71.379699 784.01032h11.163163v-60.84505h18.358168v-10.14569h-29.521331z"/><path d="m120.17493 735.53051h10.75617l-5.37808 35.90236zm25.45143-22.51529h-11.25038l-1.9332 12.87834h-13.69232l-1.91866-12.87834h-10.24744l11.35212 70.99074h16.33776z"/><path d="m161.90597 726.09996 8.51773 57.90891h10.24743l-10.95967-70.99074h-16.62846l-10.95966 70.99074h11.26491z"/><path d="m190.75577 735.53051h10.75617l-5.37808 35.90236zm25.45143-22.51529h-11.25038l-1.9332 12.87834h-13.69232l-1.91867-12.87834h-10.24743l11.35212 70.99074h16.33776z"/><path d="m221.37888 784.01032h11.16317v-60.84505h18.35817v-10.14569h-29.52134z"/><path d="m255.75939 784.01032h11.16316v-60.84505h18.35817v-10.14569h-29.52133z"/><path d="m300.39024 729.34426c0-5.07285 2.22391-7.00605 5.77054-7.00605 3.56116 0 5.78507 1.9332 5.78507 7.00605v38.32976c0 5.07284-2.22391 7.00605-5.78507 7.00605-3.54663 0-5.77054-1.93321-5.77054-7.00605zm-11.16317 37.63206c0 11.35213 5.98858 17.84944 16.93371 17.84944 10.95966 0 16.94824-6.49731 16.94824-17.84944v-36.91983c0-11.36666-5.98858-17.84943-16.94824-17.84943-10.94513 0-16.93371 6.48277-16.93371 17.84943z"/><path d="m330.30402 713.01232h11.14863v70.99073h-11.14863z"/><path d="m364.58424 784.81994c10.84338 0 16.42496-6.49731 16.42496-17.84943v-2.22391h-10.53814v2.93614c0 5.07285-2.03495 6.99151-5.58158 6.99151s-5.58158-1.91866-5.58158-6.99151c0-14.60804 21.80305-17.34069 21.80305-37.63207 0-11.35212-5.68333-17.84943-16.62846-17.84943s-16.643 6.49731-16.643 17.84943v4.36061h10.55268v-5.07284c0-5.07284 2.23845-6.88976 5.78508-6.88976 3.54662 0 5.78507 1.81692 5.78507 6.88976 0 14.60805-21.80305 17.35523-21.80305 37.63207 0 11.35212 5.58158 17.84943 16.42497 17.84943"/></g><g fill="#fff"><path d="m179.78157 833.2765c6.16299 0 9.3317-3.67745 9.3317-10.13115v-1.26458h-5.98857v1.67157c0 2.878-1.14829 3.96815-3.16871 3.96815-2.02041 0-3.16871-1.09015-3.16871-3.96815 0-8.2997 12.38413-9.84045 12.38413-21.35246 0-6.4537-3.22685-10.14569-9.44798-10.14569-6.22114 0-9.43346 3.69199-9.43346 10.14569v2.47101h5.98857v-2.878c0-2.878 1.26458-3.92455 3.27046-3.92455 2.02042 0 3.28499 1.04655 3.28499 3.92455 0 8.28516-12.36959 9.84044-12.36959 21.35246 0 6.4537 3.15417 10.13115 9.31717 10.13115"/><path d="m192.68316 832.81573h19.57914v-5.75601h-6.62813v-34.53603h-6.33742v34.53603h-6.61359z"/><path d="m220.60705 805.30027h6.10486l-3.05243 20.37859zm14.44816-12.77658h-6.39556l-1.09015 7.31129h-7.76189l-1.10469-7.31129h-5.81415l6.45371 40.29204h9.27356z"/><path d="m246.05412 827.05972v-28.78003h3.5757c2.00588 0 3.21232 1.03201 3.21232 3.91002v20.96c0 2.878-1.20644 3.91001-3.21232 3.91001zm-6.32288 5.75601h10.00033c6.33742 0 9.44799-3.50303 9.44799-9.95673v-20.37859c0-6.4537-3.11057-9.95672-9.44799-9.95672h-10.00033z"/><path d="m271.27589 815.83551h8.69215v-5.75601h-8.69215v-11.80272h10.9306v-5.756h-17.26802v40.29204h17.26802v-5.75601h-10.9306z"/></g><g fill="#fff"><path d="m164.37262 686.16404 2.67451 17.76222h5.47983v-25.01537h-3.72105v17.93664l-2.71811-17.93664h-3.72106l-2.92161 17.68954v-17.68954h-3.43034v25.01537h5.46529z"/><path d="m180.03303 686.84284h3.79373l-1.90413 12.64577zm8.96832-7.93631h-3.96815l-.66863 4.53503h-4.82574l-.68317-4.53503h-3.60477l3.99723 25.01537h5.756z"/><path d="m193.65848 687.20041-4.97109 16.73021h4.11351l3.00882-11.41027 2.99428 11.41027h3.75013l-4.9711-16.73021v-8.28516h-3.92455z"/><path d="m208.96132 693.3823h5.39262v-3.5757h-5.39262v-7.32582h6.78801v-3.57571h-10.71256v25.01537h10.71256v-3.5757h-6.78801z"/><path d="m222.58532 697.02777v-18.1256h-3.5321v25.0299h4.92749l4.04084-14.98596v14.98596h3.50302v-25.0299h-4.04083z"/><path d="m238.74719 697.02777v-18.1256h-3.53209v25.0299h4.92749l4.04083-14.98596v14.98596h3.50303v-25.0299h-4.04084z"/><path d="m255.33641 693.3823h5.39262v-3.5757h-5.39262v-7.32582h6.78802v-3.57571h-10.71257v25.01537h10.71257v-3.5757h-6.78802z"/><path d="m275.82401 692.81106h5.07284v-3.5757h-5.07284v-10.33465h-3.92455v25.02991h10.39279v-3.5757h-6.46824z"/><path d="m296.48604 688.23678v-3.3286c0-3.99722-2.00588-6.27928-5.85776-6.27928-3.8664 0-5.85775 2.28206-5.85775 6.27928v13.00916c0 4.01176 1.99135 6.29381 5.85775 6.29381 3.85188 0 5.85776-2.28205 5.85776-6.29381v-2.42741h-3.72106v2.68904c0 1.77332-.78491 2.45648-2.03495 2.45648s-2.03495-.68316-2.03495-2.45648v-13.51789c0-1.78785.78491-2.42741 2.03495-2.42741s2.03495.63956 2.03495 2.42741v3.5757z"/></g></g><path d="m-59.981159 553.90011c-.961796.50621-15.83128-13.50714-16.906932-13.66293-1.075652-.1558-19.310066 9.06275-20.088711 8.30445-.778644-.7583 7.953917-19.23038 7.769696-20.30153-.184222-1.07115-14.586324-15.56442-14.105754-16.53928.48056-.97486 20.747067 1.62211 21.708864 1.1159s10.295221-18.68209 11.370873-18.52629 4.868478 20.2329 5.647123 20.99119c.778645.7583 20.949122 4.01826 21.133344 5.08941.184221 1.07115-17.738187 10.8825-18.218755 11.85737-.480568.97486 2.652049 21.1655 1.690252 21.67171z" fill="#fff" transform="matrix(.56993113 .08698619 .08698619 -.56993113 190.28385 353.15929)"/></g></svg>