<svg xmlns="http://www.w3.org/2000/svg" viewBox="0 0 998.2 998.2" width="316.22776601683796" height="316.22776601683796">
  <defs>
    <style>
      .cls-1 {
        fill: none;
      }

      .cls-2 {
        fill: #ff6112;
      }

      .cls-3 {
        fill: #fff;
      }

      .cls-4 {
        fill: #939598;
      }

      .cls-5 {
        fill: #003e7e;
      }
    </style>
  </defs>
  <g>
    <g>
      <path class="cls-1" d="M317.94,106.21l6.89,16.14c1.3,2.99,1.9,3.29,4.39,2.19,8.07-3.49,11.35-10.67,8.06-18.24-2.99-6.87-10.27-10.36-16.35-7.66-3.98,1.8-4.78,3.69-2.98,7.77v-.2Z"/>
      <path class="cls-1" d="M81.28,399.95h0s14.05,3.48,14.05,3.48c2.89.8,4.68-1,5.88-5.68,1.89-7.48-2.7-13.55-11.87-15.84-8.17-2.09-16.14,1.81-17.83,8.78-1.39,5.18.4,6.88,9.77,9.26Z"/>
      <path class="cls-1" d="M77.46,634.22c3.3,10.26,16.95,13.84,33.39,8.65,18.33-5.79,30.18-19.95,26.48-31.71-3.2-10.16-16.95-13.64-33.49-8.45-18.43,5.79-29.98,19.65-26.29,31.51h-.1Z"/>
      <path class="cls-1" d="M813.86,762.25l-.1-.1-17.35-15.03c-5.38-4.58-6.88-5.58-9.17-5.57-2.59-.1-4.98,1-6.67,2.99-5.38,6.18-2.28,17.04,6.89,24.91,9.07,7.87,20.63,8.95,26.21,2.47,1.89-2.09,2.89-4.69,2.69-6.58,0-1-.2-1.2-2.49-3.09Z"/>
      <path class="cls-1" d="M864.79,351.06c10.56-4.59,16.43-14.06,13.34-21.04-1.2-2.69-3.69-4.88-6.18-5.48-1.4-.3-2.89.1-5.58,1.2v-.1s-19.72,8.88-19.72,8.88c-7.27,3.19-9.36,7.18-7.07,12.36,3.29,7.47,13.66,9.26,25.21,4.17Z"/>
      <path class="cls-1" d="M860.65,409.56c1.8,7.27,11.57,9.86,24.42,6.66,14.25-3.5,23.41-12.37,21.41-20.54v-.1c-1.7-6.77-11.67-9.86-23.32-6.96-14.45,3.6-24.5,12.97-22.51,20.94Z"/>
      <path class="cls-1" d="M537.36,92.2c13.06,1.39,15.94.59,16.54-4.79.59-4.58-2.1-7.87-6.48-8.37h0c-6.38-.69-13.15,4.59-13.84,10.67-.2,1.59.6,2.09,3.79,2.49Z"/>
      <path class="cls-1" d="M653.28,129.89c-.9-.3-6.78.3-10.86,1.1-4.18.9-6.58,2.7-7.87,5.79-1.49,3.59-.19,7.27,2.9,8.57,2.69,1.09,6.28.89,8.77-.5,1.69-.9,3.09-2.99,4.58-6.58h-.1s2.79-6.68,2.79-6.68c.4-.9.3-1.49-.2-1.69Z"/>
      <path class="cls-4" d="M499.1,998.2c-55.96,0-111.04-9.27-163.68-27.55-64.74-22.46-123.25-57.43-173.88-103.94-37.55-34.48-69.48-74.33-94.92-118.42-34.35-59.56-55.69-124.43-63.42-192.82-2.12-18.66-3.19-37.63-3.19-56.37,0-52.79,8.28-104.92,24.6-154.94,30.02-91.93,85.77-172.7,161.22-233.58C262.52,48.69,354.87,11.2,452.89,2.14c15.49-1.42,31.04-2.14,46.21-2.14,56.4,0,111.89,9.42,164.93,27.99,64.68,22.64,123.05,57.74,173.5,104.31,37.47,34.58,69.3,74.48,94.62,118.59,34.25,59.72,55.45,124.71,63,193.16,2.02,18.21,3.04,36.73,3.04,55.05,0,53.48-8.49,106.27-25.24,156.89-62.09,187.5-229.15,320.91-425.6,339.88h-.08c-16.15,1.55-32.33,2.33-48.18,2.33Z"/>
      <path class="cls-3" d="M499.1,983.2c-54.29,0-107.7-8.99-158.76-26.72-62.78-21.78-119.54-55.7-168.66-100.82-36.42-33.45-67.4-72.1-92.07-114.87-33.32-57.76-54.01-120.68-61.51-187.01-2.05-18.08-3.1-36.5-3.1-54.69,0-51.21,8.03-101.77,23.86-150.28,29.12-89.17,83.19-167.51,156.38-226.56C269.64,62.23,359.21,25.86,454.27,17.08c15.06-1.38,30.11-2.08,44.83-2.08,54.71,0,108.53,9.13,159.97,27.14,62.73,21.96,119.35,56,168.29,101.17,36.35,33.55,67.23,72.25,91.79,115.04,33.22,57.94,53.77,120.95,61.1,187.34,1.96,17.65,2.95,35.64,2.95,53.4,0,51.88-8.24,103.08-24.48,152.17-60.23,181.88-222.26,311.26-412.8,329.66h-.14c-15.6,1.5-31.3,2.26-46.68,2.26Z"/>
      <path class="cls-4" d="M499.1,838.2c-38.06,0-75.47-6.29-111.2-18.7-43.97-15.25-83.71-39.02-118.13-70.63-25.55-23.46-47.27-50.56-64.56-80.53-23.31-40.4-37.78-84.42-43.03-130.84-1.45-12.75-2.18-25.67-2.18-38.4,0-35.9,5.62-71.33,16.71-105.29,20.39-62.43,58.28-117.31,109.59-158.71,52.09-42.02,114.78-67.49,181.32-73.63,10.59-.97,21.18-1.47,31.49-1.47,38.35,0,76.05,6.39,112.06,19,43.92,15.37,83.57,39.22,117.85,70.87,25.51,23.54,47.17,50.68,64.37,80.66,23.23,40.51,37.61,84.61,42.74,131.08,1.38,12.43,2.08,25.05,2.08,37.49,0,36.38-5.77,72.25-17.14,106.63-42.18,127.37-155.65,217.99-289.08,230.88-11.04,1.05-22.1,1.59-32.88,1.59Z"/>
      <path class="cls-2" d="M499.1,826.2c-36.72,0-72.81-6.07-107.27-18.03-42.41-14.71-80.75-37.64-113.95-68.13-24.65-22.64-45.6-48.78-62.28-77.69-22.48-38.96-36.44-81.42-41.5-126.19-1.4-12.29-2.1-24.77-2.1-37.06,0-34.64,5.42-68.81,16.11-101.57,19.66-60.22,56.22-113.15,105.72-153.09,50.24-40.54,110.71-65.09,174.88-71.02,10.23-.94,20.44-1.42,30.38-1.42,37,0,73.36,6.17,108.09,18.32,42.36,14.83,80.61,37.83,113.68,68.36,24.61,22.71,45.5,48.9,62.1,77.82,22.41,39.07,36.27,81.6,41.22,126.42,1.33,12,2,24.18,2,36.18,0,35.09-5.56,69.7-16.53,102.86-40.69,122.87-150.14,210.27-278.84,222.7-10.67,1.02-21.33,1.53-31.73,1.53Z"/>
      <path class="cls-4" d="M499.1,766.2c-30,0-59.47-4.95-87.59-14.71-34.62-12.01-65.92-30.73-93.04-55.64-20.15-18.5-37.27-39.86-50.9-63.48-18.33-31.78-29.72-66.42-33.85-102.95-1.14-10.08-1.73-20.28-1.73-30.32,0-28.31,4.43-56.21,13.15-82.95,16.05-49.15,45.91-92.38,86.36-125.01,41.01-33.09,90.36-53.14,142.73-57.97,8.38-.77,16.75-1.16,24.86-1.16,30.23,0,59.92,5.03,88.27,14.95,34.57,12.1,65.8,30.88,92.81,55.82,20.12,18.57,37.2,39.97,50.76,63.6,18.27,31.86,29.58,66.56,33.62,103.14,1.09,9.83,1.64,19.79,1.64,29.6,0,28.68-4.54,56.95-13.5,84.02-33.22,100.31-122.57,171.68-227.64,181.83-8.72.83-17.45,1.25-25.96,1.25Z"/>
      <g>
        <path class="cls-3" d="M583.4,258.28l-337.75,269.79c4.01,35.48,15.28,68.76,32.32,98.3l394.07-314.78c-25.34-23.38-55.42-41.68-88.64-53.31Z"/>
        <path class="cls-5" d="M672.04,311.59l-394.07,314.78c13.06,22.64,29.5,43.08,48.62,60.64l393.94-314.67c-13.01-22.67-29.4-43.14-48.48-60.75Z"/>
        <path class="cls-3" d="M256.56,419.87l218.78-174.76c-102.73,9.49-187.8,79.89-218.78,174.76Z"/>
        <path class="cls-3" d="M720.53,372.34l-393.94,314.67c25.41,23.34,55.57,41.59,88.86,53.14l337.18-269.33c-3.92-35.53-15.12-68.87-32.11-98.48Z"/>
        <path class="cls-5" d="M499.1,244c-8.01,0-15.93.39-23.76,1.11l-218.78,174.76c-8.14,24.94-12.56,51.57-12.56,79.23,0,9.8.57,19.46,1.65,28.97l337.75-269.79c-26.39-9.24-54.75-14.28-84.3-14.28Z"/>
        <path class="cls-5" d="M523.91,753l217.39-173.65c8.36-25.23,12.89-52.21,12.89-80.24,0-9.56-.54-18.99-1.57-28.28l-337.18,269.33c26.21,9.09,54.35,14.05,83.65,14.05,8.37,0,16.65-.42,24.81-1.2Z"/>
        <path class="cls-3" d="M741.31,579.35l-217.39,173.65c101.9-9.84,186.26-79.62,217.39-173.65Z"/>
      </g>
      <path class="cls-5" d="M196.29,272.31c.1.09.21.17.31.24-.2-.2-.43-.4-.71-.64.11.13.24.26.4.4Z"/>
      <polygon class="cls-5" points="320.77 871.82 320.72 871.82 320.77 871.92 320.77 871.82"/>
      <polygon class="cls-5" points="666.96 871.67 667.01 871.57 666.96 871.57 666.96 871.67"/>
      <g>
        <path class="cls-5" d="M209.72,744.22c-2-2.4-3.81-5.1-5.71-8-1.6-2.5-3.11-5.2-4.31-7.6-.6-1.2-1.3-2.5-1.5-3-1.5-2.3-3.31-3.1-4.91-2.1-2.1,1.3-1.9,2.8.91,7.51,3.01,5.1,1.71,8.41-5,12.61-3.8,2.4-7.7,4.71-10.81,6.51l-34.32,20.04,40.5-58.18c1.3-2,1.5-3.3.4-5-1.8-2.8-2.6-2.9-9.51-1.19-2.7.5-5.3,1-7.81,1.51l-58.04,10.15,46.32-30.56c5-3.21,7.5-3.11,10.51.69,3.61,4.4,4.71,5,6.71,3.7,1.5-.9,1.6-2.7.2-5-.4-.6-1.3-1.8-2.1-3-3.01-4.1-5.91-8-7.92-11.3-1.9-3-5.21-8.8-9.52-16.51-.5-1-1.2-2.3-1.4-2.5-2-3-3.91-4-5.61-3-1.5.9-1.7,2.5-.6,4.6,3.51,7,3.11,8.31-5.19,13.82l-47.42,32.16c-5.9,4.11-8.2,4.01-11.21,0-2.6-3.2-4.31-4.3-6.01-3.2-1.8,1.2-1.9,2.8-.4,5.2.2.4,1.2,1.7,1.9,2.9,1.5,2,3.41,4.8,4.81,7,2.2,3.6,3.81,6.1,6.31,10.2.6,1.2,1.5,2.6,1.8,3.1.7,1.1,2.2,1.5,4.5,1.1h0l56.94-9.65-33.5,48.37c-1.3,1.9-1.3,2.4-.3,4l.8,1.2c1.2,1.8,4.61,6.8,6.21,9.4l7.52,12.61c1.9,2.9,3.51,3.8,5.31,2.6,1.9-1.1,1.7-2.8-.51-6.81-2.41-4.4-2.21-6,1.1-8.11l2.1-1.3c1.6-1,2.7-1.7,4-2.4l49.62-27.96c5.9-3.51,7.9-3.41,11.01,0,3.51,3.7,4.51,4.3,6.21,3.2,1.4-1,1.6-2.5.3-4.5-.3-.6-1.4-2-2.4-3.3Z"/>
        <path class="cls-5" d="M120.19,660.71c10.11-3.21,18.51-11.32,21.8-20.73,2.8-8.21,2.79-19.42-.02-28.43-6.52-20.51-26.85-32.01-46.16-25.89-19.41,6.12-28.91,27.54-21.88,49.66h-.1c6.42,20.21,26.95,31.61,46.36,25.39ZM104.13,603.17c16.61-5.22,30.43-1.72,33.64,8.48,3.71,11.81-8.19,26.03-26.6,31.85-16.51,5.22-30.23,1.62-33.54-8.68h.1c-3.71-11.91,7.89-25.83,26.4-31.65Z"/>
        <path class="cls-5" d="M79.49,570.26l28.92-2.82c12.21-1.21,14.61-.61,15.42,3.99.6,3.4,1.3,4.6,2.91,4.4,1.4-.2,2.1-1.3,1.9-3.1,0-.5-.2-1.8-.6-3-.3-1.8-.7-4.4-.91-6.71-.5-3.9-.5-6.31-.51-9.11,0-.9,0-1.8,0-2.2-.2-1.9-1.1-3.1-2.4-2.9-1.3.1-2.2,1.4-2.2,2.9-.1,6.21-.1,6.11-1.3,7.41-1.6,1.6-4,2.2-11.31,3.01l-37.63,3.73,51.01-49.58c2.4-2.2,3-3.41,2.8-5.21-.3-2.6-1-2.9-4.11-2.6l-54.74,5.44c-6.21.6-7.91-.09-8.71-3.8-1.1-4.4-1.71-5.4-3.41-5.2-1.5.2-2.2,1.3-2,3.3,0,.6.3,1.9.5,3.1.3,1.7.6,3.7.8,5.4.2,2.2.3,4.8.51,8.71,0,.9.2,1.9.2,2.3.3,2.4,1.2,3.6,2.8,3.4,1.1-.1,1.9-.8,1.9-2,.49-8.81,1.09-9.41,9.2-10.22l-.3-.2,28.02-2.82-36.91,36.26c-2.2,2.2-2.3,2.6-2,6.11l1.01,9.51.81,10.21c.3,2.5,1.1,3.6,2.5,3.4,1.8-.1,2.4-1.1,2.2-4.61,0-3.5,1.1-4.6,6-5.31.8-.2-2.3.2,9.61-1.21Z"/>
        <path class="cls-5" d="M68.13,498.61c1.2.1,2.4-.7,2.4-1.8.1-1.2-1-2.8-3.41-4.7-6.61-5.5-8.21-8.6-7.72-15.11.3-2.8.5-3.2,2.1-3l48.95,3.87c6.51.5,8.11,1.7,8.51,6.1.5,4.3.7,4.5,2.11,4.7,1.5.1,2.4-.7,2.4-2.5,0-.3,0-1,0-1.8v-1s0-1,0-1l.1-1v-.8c.2-4.7.29-6.91.59-10.41.3-3.8.6-6.51,1.09-9.51v-.9s.2-.8.2-.8l.1-.9v-.9c.3-2.6.3-1.6.5-3.2v-.6c.2-1.7-.5-2.8-2-2.8-1-.1-1.8.6-2.1,1.8-1.9,7.41-2.6,7.81-10.1,7.21l.1.2-49.05-3.97c-1.6-.1-1.8-.7-1.6-2.9.69-8.81,1.79-10.21,11-13.02,2.3-.8,3.5-1.7,3.5-3.01.2-1.5-.6-2.2-2.9-2.7l-16.62-3.09c-1.6-.3-2.6.3-2.8,1.7-.1,1.1.4,1.8,1.9,2.9,2.1,1.6,2.6,3,2.31,7l-3.37,41.94c-.1,2.5-.4,2.7-2.8,3.3-1.1.3-1.8.9-1.8,2.1-.1,1.3.6,2.3,2.2,2.8l14.92,5.49c.5.1.9.3,1.3.3Z"/>
        <path class="cls-5" d="M61.67,423.04c1,.2,1.9-.2,2.4-1.4,3.1-6.91,3.8-7.31,11.11-5.51l41.04,10.28c6.31,1.6,7.61,3,7.41,7.5-.2,4.2-.2,4.6,1.2,5,1.5.4,2.4-.4,2.8-2,.1-.3.2-1,.4-1.9l.2-.9.2-1,.2-.9.2-.8c.9-4.5,1.3-6.81,2.09-10.01.9-3.5,1.6-6.11,2.5-9.01l.2-.9.3-.8.2-.8.2-.9c.7-2.4.4-1.4.9-3l.2-.6c.4-1.7,0-2.7-1.5-3.1-1-.2-1.9.3-2.4,1.4-3.1,6.91-3.8,7.31-11.11,5.51l-16.02-3.99h.1c-1.2-.3-1.5-.8-1.2-1.8.2-.9.9-2.3,1.8-3.6,2.7-4.21,4-7.21,4.8-10.61,2.79-11.11-4.22-22.72-15.73-25.61-12.11-2.99-21.62,4.32-25.41,19.84-.7,2.5-1.6,7.11-2.29,11.31-1,5.01-1.8,9.21-2.29,11.11-.6,2.3-1,4-2.2,8.01-1.1,3.4-1.2,4-1.3,4.4-.2.6-.5,1.3-.5,1.7-.4,1.7,0,2.8,1.5,3.1ZM71.65,390.21c1.7-7.01,9.7-10.92,17.91-8.82,9.21,2.3,13.82,8.4,11.92,15.91-1.2,4.7-3,6.51-5.9,5.71l-14.12-3.49h0c-9.41-2.4-11.21-4.1-9.82-9.3Z"/>
        <path class="cls-5" d="M80.93,350.46c1,.4,1.9,0,2.6-1,4.3-6.41,5.1-6.51,11.91-3.51l38.75,16.99c6.01,2.6,7.11,4.2,6.01,8.6-1,4.2-.9,4.5.4,5.1,1.4.6,2.4.1,3.1-1.5.1-.3.4-.9.6-1.7,3.2-8.31,2.5-6.71,4.5-11.21,1.3-3.3,5.1-12.01,7.89-18.42,3.2-7.21,5.7-12.72,7.6-16.62.6-1.3,1.4-2.8,1.6-3.3.5-1.2.3-1.7-1.1-2.4-3.7-1.9-5.91-3.4-7.71-4.7-1.7-1.4-3.61-2.5-4.51-2.9-1.2-.6-2.3-.2-2.9,1-.7,1.5-.2,2.7,1.91,5.3,4.81,5.7,5.61,12.81,2.32,20.32-3,6.71-7,8.11-14.41,4.81l-.1-.2-14.42-6.3c-3.1-1.4-3.1-1.1-.41-8.01l.7-1.9c1.7-3.8,4.7-5.21,10.61-4.81,2.3.1,3.4-.4,4-1.7.6-1.4,0-2.5-1.8-3.3l-8.31-3.2-9.51-4.7c-1.4-.7-2.8-.3-3.4,1-.6,1.3.1,2.6,2.31,4.5,4.31,3.9,4.31,5.7-.39,16.41-.8,1.9-2,2.2-4.7,1l-15.02-6.6c-3.9-1.7-3.91-2.8,0-11.71,2.6-5.91,5.9-8.31,12.8-9.32,2.9-.5,3.7-.9,4.2-2,.7-1.6.3-2.3-2.5-3.5l-6.51-2.6-3.6-1.7c-1.2-.5-1.9-.2-2.4,1l-.4.8c-2,5.51.3-.6-7.59,19.42-1.2,3.1-3.2,7.81-4.9,11.71-2.3,5.31-3.5,8.01-5,10.91l-.3.8-.5.8-.3.8-.4.9-.5.9-.4.9-.2.5-.4.5-.2.5c-.7,1.5-.4,2.7,1,3.3Z"/>
        <path class="cls-5" d="M110.81,284.79c.9.5,1.9.4,2.7-.6,5.2-5.51,6-5.61,12.31-1.61l.1-.3,35.55,22.9c5.51,3.5,6.31,5.2,4.61,9.41-1.6,4-1.6,4.3-.4,5.1s2.4.5,3.3-1c.2-.4.5-1,.9-1.6.2-.3.6-1.1,1.8-3.2,3.4-5.81,6.5-10.81,10.4-16.82,4.1-6.41,6.8-10.41,9.4-14.12,3.5-4.81,3.2-4.51,5.2-7.31l.7-1c.92-1.42.91-2.08-.09-3.06-.1-.07-.21-.15-.31-.24-.16-.14-.29-.27-.4-.4h0c-1.5-1.1-2.9-2.4-4.71-4-2.1-2.1-4.41-3.9-5.81-4.8-1-.7-2-.5-2.8.6-.7,1.2-.5,2.4.8,4.7,3.81,7.3,3.81,13.51-.39,20.02-3.4,5.21-7.3,5.81-13.31,2.01l-34.75-22.3c-5.51-3.5-6.31-5.3-4.61-9.41,1.6-4,1.6-4.3.4-5.1-1.3-.8-2.4-.4-3.3,1.1-.1.2-.5.8-.9,1.6l-.5.8-.4.9-.5.8-.4.7c-2.4,4.11-3.5,5.91-5.6,9.21-1.8,2.9-3.5,5.31-5.1,7.61l-.5.8-.6.6-.4.7-.5.8-.6.8-.6.8-.3.5c-.6.5-.8,1-.8,1-1,1.4-.9,2.5.4,3.4Z"/>
        <path class="cls-5" d="M197.29,271.55c1.01.7,2.09.44,3.09-.74.2-.3.7-.8,1.1-1.4.3-.3.8-1,2.3-2.9,4.2-5.21,8-9.71,12.8-15.02,5.1-5.71,8.3-9.21,11.5-12.52,4.2-4.31,3.9-4.01,6.3-6.51l.9-.9c1.4-1.6,1.3-2.2-.2-3.8-1.3-1.2-2.5-2.7-4.01-4.6-1.8-2.3-3.81-4.5-5.01-5.6-1-.9-2-.8-2.9.2-.9,1-.9,2.2,0,4.7,2.71,7.91,1.71,14.01-3.39,19.82-4.1,4.71-8.1,4.71-13.41,0l-30.95-27.4c-4.81-4.3-5.31-6.2-3.01-10.01,2.1-3.7,2.2-4.01,1.1-5.01-1.2-.9-2.3-.7-3.5.6-.2.2-.6.7-1.1,1.4l-.6.6-.6.9-.6.7-.6.6c-3,3.71-4.3,5.41-6.9,8.31-2.2,2.5-4.3,4.71-6.2,6.71l-.6.7-.6.5-.6.6-.6.7-.8.7-.6.6-.4.5c-.5.5-.9.9-.9.9-1.1,1.3-1.1,2.4,0,3.5.7.7,1.7.6,2.7-.2,6-4.81,6.8-4.81,12.41.19l-.1-.1,31.65,28c4.81,4.3,5.41,6.2,3.11,10.01-1.88,3.17-2.15,3.85-1.5,4.61.28.23.51.44.71.64Z"/>
        <path class="cls-5" d="M196.31,179.33c6.5-3.91,7.3-3.81,12.21,1.89l27.75,31.81c4.21,4.9,4.51,6.8,1.71,10.31-2.7,3.4-2.7,3.71-1.8,4.81,1.1,1.2,2.2,1.1,3.5,0,.2-.1.7-.6,1.3-1.2,6.8-6.51,6.9-6.61,10.8-10.02,2.4-2,4.8-4.01,6.9-5.71l.7-.6.6-.4.6-.6.7-.6c2-1.5,1.2-.9,2.5-1.9l.5-.4c1.3-1.1,1.5-2.3.5-3.4-.7-.8-1.7-.8-2.8-.2-6.5,3.91-7.3,3.71-12.21-1.89h.1s-27.75-31.91-27.75-31.91c-4.21-4.9-4.51-6.8-1.71-10.31,2.7-3.4,2.7-3.71,1.8-4.81-1-1.2-2.2-1.1-3.5,0-.2.2-.7.7-1.3,1.3-4.6,4.31-8.3,7.71-11,10.12-2.1,1.8-4.6,3.91-6.6,5.51l-.7.6-.7.4-.6.6-.7.6-.9.6-.7.6-.4.4c-.6.4-1,.8-1,.8-1.3,1.1-1.6,2.3-.5,3.4.6.8,1.6.8,2.7.2Z"/>
        <path class="cls-5" d="M232.12,148.08c7.1-3.01,7.81-2.71,11.91,3.49l23.25,35.32c3.61,5.5,3.61,7.4.41,10.51-3.2,3-3.2,3.31-2.4,4.51.8,1.3,2,1.4,3.4.4.3-.2.9-.5,1.5-1.1,7.2-5.21,5.7-4.21,9.8-6.91,2.9-2,10.9-7.31,16.71-11.12,6.6-4.31,11.71-7.52,15.41-9.72,1.1-.8,2.7-1.7,3.1-2,1-.7,1.2-1.3.4-2.6-2-3.6-3.11-6-3.91-8.1-.7-2.1-1.7-4-2.21-4.9-.7-1.1-1.9-1.5-3-.7-1.3.9-1.7,2.2-1.3,5.51,1.01,7.41-2.19,13.81-9.1,18.32-6.1,4.01-10.21,3.01-14.62-3.79l-.4-.2-8.62-13.11c-1.9-2.8-2-2.6,4-6.91l1.7-1.2c3.4-2.3,6.6-1.81,11.41,1.69,1.9,1.3,3.1,1.5,4.3.7,1.2-.7,1.3-2.1.2-3.7l-5.21-7.2-5.41-9.1c-.8-1.5-2.2-1.9-3.4-1.1-1.2.8-1.4,2.3-.5,5,1.61,5.7.61,7.21-9.2,13.62-1.8,1.2-2.9.8-4.51-1.7l-9.02-13.71c-2.4-3.6-1.8-4.4,6.3-9.81,5.4-3.51,9.41-3.71,15.81-.81,2.6,1.3,3.6,1.4,4.6.7,1.6-1,1.7-1.7,0-4.3l-4.01-5.7-2.1-3.4c-.8-1.2-1.5-1.3-2.6-.6l-.6.4c-4.7,3.51.6-.3-17.01,12.22-2.6,1.9-6.9,4.71-10.4,7.11-4.9,3.21-7.3,4.81-10.1,6.41l-.7.4-.9.4-.6.4-.8.5-.9.5-.8.5-.5.4-.6.2-.5.4c-1.4.9-1.9,2-1,3.3.6.9,1.6,1.2,2.7.6Z"/>
        <path class="cls-5" d="M293.35,109.1c7.41-1.71,8.11-1.41,11.11,5.5l16.74,38.82c2.61,5.9,2.31,7.91-1.39,10.41-3.5,2.4-3.7,2.7-3.2,4.01.6,1.4,1.7,1.7,3.3,1,.3,0,1-.4,1.6-.8l.9-.4.9-.4.9-.4.8-.3c4-2,6.1-3.01,8.8-4.11,3.5-1.5,5.7-2.51,8.71-3.51l.9-.4.8-.2.8-.4.9-.4c2.4-.9,1.5-.5,3-1.1l.5-.2c1.6-.6,2.2-1.7,1.6-3.1-.4-.9-1.3-1.3-2.6-1.1-7.41,1.71-8.11,1.41-11.11-5.5l-6.92-16.21c-.8-1.8-.6-2.3.9-2.9,3.1-1.3,4.7-.7,10.71,4.3l19.43,16.5c1.7,1.5,2.3,1.6,4,.9.2,0,.8-.3,1.2-.6,1-.6,2.4-1.2,4-2.1,1.4-.7,2.4-1.1,2.6-1.2l9.41-3.41c1.4-.6,2.1-1.8,1.6-3-.5-1.1-1.3-1.6-3.1-1.1-3.6.8-4.3.5-8.81-3.2l-14.32-12c-4.91-4.1-8.11-4.9-13.41-3.59,10.91-6.61,14.4-13.92,10.69-22.43-4.21-9.71-14.02-12.8-25.43-7.89-2.5,1.1-6.2,2.91-10.11,4.81-4.9,2.61-9.51,4.71-12.11,5.91-3.3,1.4-5,2.11-8.11,3.21l-.8.4-.3-.4-.9.2-.8.4-.9.4-1,.4-.8.4-.6.2c-.7.2-1.1.4-1.1.4-1.6.7-2.2,1.7-1.6,3.1.5.9,1.3,1.3,2.6,1.1ZM322.17,96.87c6.1-2.71,13.41.79,16.42,7.7,3.31,7.6.01,14.81-8.09,18.32-2.5,1.1-3.1.8-4.41-2.2l-6.92-16.21v.2c-1.8-4.1-1-6,3-7.81Z"/>
        <path class="cls-5" d="M398,48.27c10.11.69,10.71,1.49,11.72,11.2l5.64,54.94c.91,8.61-.29,10.71-5.9,12.42-5.3,1.61-5.7,1.91-5.5,3.91.2,1.8,1.5,2.6,3.81,2.4.4,0,1.3-.2,2.4-.4,11.91-1.71,12.41-1.81,19.12-2.52,4-.4,8.01-.71,11.51-.91,6.41-.4,6.51-.4,8.61-.51h.9c2.2-.3,3.3-1.3,3.1-3.21-.2-1.5-1.2-2.4-2.8-2.4-9.91-.89-10.51-1.49-11.52-11.3l-2.42-23.62c-.3-3.4-.2-3.6,3.5-4.01l28.62-2.92c2.3-.2,2.5-.1,3.01,4l2.42,22.92c.91,8.61-.09,10.71-5.7,12.42-5.5,1.61-5.7,1.91-5.5,3.91.2,1.8,1.5,2.6,3.7,2.4.4-.1,1.3-.2,2.3-.4,12.41-1.81,12.31-1.81,19.92-2.62,3.2-.3,7.61-.61,10.81-.81,6.31-.3,6.61-.41,8.71-.51h.8c2.3-.3,3.4-1.3,3.2-3.21-.1-1.5-1.2-2.4-2.8-2.4-10.11-.69-10.71-1.49-11.72-11.2l-5.64-54.94c-.81-8.61.19-10.91,5.9-12.52,5.3-1.51,5.7-1.81,5.5-3.81-.1-1.9-1.4-2.7-3.71-2.5-.4.1-1.4.2-2.4.5h-1.2s-1.3.2-1.3.2l-1.2.2h-1c-5.9.91-9.01,1.31-13.21,1.81-5.4.5-8.81.91-12.71,1.11h-1.1s-1.1,0-1.1,0h-1s-1.3.2-1.3.2h-1.2s-2,.2-2,.2c-.9,0-1.6,0-1.6,0-2.2.3-3.4,1.3-3.2,3.21.1,1.4,1.2,2.2,2.8,2.4,9.91.69,10.51,1.49,11.52,11.2l1.81,17.81c.3,2.8-.1,3.4-2.6,3.61l-.6.5-28.62,2.92c-2.8.2-3.6-.4-3.81-3l-1.81-17.81c-.81-8.61.19-10.81,5.8-12.52,5.5-1.51,5.7-1.81,5.5-3.81-.2-1.8-1.5-2.6-3.81-2.4-.4.1-1.2.2-2.2.4-11.91,1.81-12.31,1.81-19.02,2.52-4,.4-8.11.71-11.61,1.01h-1.2s-1,0-1,0h-1.1s-1.2.2-1.2.2h-1.3s-1.2.2-1.2.2h-.8c-1,0-1.6,0-1.6,0-2.1.2-3.4,1.4-3.2,3,.2,1.5,1,2.3,2.8,2.5Z"/>
        <path class="cls-5" d="M541.99,128.64c8.01.9,16.01-1.21,22.52-5.52,2.2-1.5,3.4-2.91,3.6-4.11,0-.9-.8-1.9-1.6-1.9s-1.5.2-3.3,1.2c-4.6,2.71-8.1,3.61-12.31,3.11-11.01-1.19-18.52-12-17.13-24.61.3-2.3.8-2.8,2.9-2.6l29.23,3.28h-.1c3.7.4,5.2-.7,5.6-3.61,1.09-10.11-8.92-19.21-22.94-20.8-16.72-1.89-31.62,8.83-33.21,24.04-1.69,15.62,10.23,29.72,26.75,31.51ZM535.75,87.91c.7-6.11,7.5-11.42,13.9-10.72h0c4.4.5,7.11,3.8,6.51,8.4-.6,5.41-3.5,6.21-16.61,4.82-3.2-.4-4-.9-3.81-2.5Z"/>
        <path class="cls-5" d="M541.24,66.39h.1c.4.6.5.7.8.7.3,0,.7,0,2-.6l23.01-10.03c1.3-.5,1.9-1,2-1.6,0-.3,0-.7-.4-1.3l-2.3-3.8c-.6-1-.6-1.1-1.2-1.2-.4,0-1.1.2-2.1,1l-21.21,13.43c-1.6,1-1.6.9-1.6,1.2,0,.1.1.5.4,1.1l.5,1.1Z"/>
        <path class="cls-5" d="M567.61,129.02c-.4,1.3.6,2.3,2.8,2.9.4,0,1.2.4,2,.4,4.91,1,9.71,2.1,11.91,2.69,2.5.6,7.01,1.9,12.01,3.39.7.2,1.6.5,1.9.6,2.3.5,3.6.1,3.9-1.2.4-1.2-.2-2.2-1.9-3-6.01-3-6.01-3.1-4.01-11.11l3.49-13.71c1.5-6.11,2.3-8.01,3.7-10.21,1.2-1.6,2.9-2.6,4.1-2.3.9.3,1.5,1,2.81,3.6,1.5,3.3,3.41,4.9,6.41,5.7,5.21,1.4,10.21-1.51,11.51-6.61,1.2-4.6-2.21-9.51-7.51-10.8-4.71-1.2-11.81.61-16.51,4.22-.3.4-.8.4-.8.4-.4-.1-.3-.7,0-1.9l1.8-7.21c.4-1.3.2-2-.8-2.2-1.1-.2-1.9,0-4.4,1.2-4.5,2.11-12.31,4.51-15.61,4.52-4,.2-6.1.7-6.3,1.71-.4,1.2.4,1.9,2.3,2.5,4.4,1.5,5.11,3.2,3.61,9.11l.1.1-4.49,17.82c-2,7.91-2.2,8.11-8.8,7.71-1.9-.1-2.9.5-3.2,1.7Z"/>
        <path class="cls-5" d="M633.36,112.36c2.3.9,6.41,1.5,9.91,1.39,2.7-.2,3.9-.8,6.8-3.61,3.7-3.51,7.2-4.81,10.31-3.61,3.4,1.4,3.81,4.5,1.31,10.41l-2.3,5.61h0c-.3.7-1.9,1.1-4.8,1.2h-3s-3.2.3-3.2.3h-3c-5,.31-8.81.61-11.71.91-6.51.81-10.81,3.61-13.01,8.72-2.5,6.11.21,12.41,6.52,15.11,2.9,1.2,6.01,1.7,9.51,1.59,3.3-.2,4-.4,11.61-2.71.4,0,.6,0,.8,0,.3,0,.5.4.5,1l.2,3.6c0,.6.2,1.2.3,1.7.8,2.4,2.51,4.2,5.31,5.4,3.8,1.6,8.61,1.5,13.71-.21,2.5-.9,3.9-1.9,4.4-2.91.4-.9,0-1.9-.8-2.2-.3-.2-.8-.2-1.2,0-4.2.7-3.8.6-4.8.2-1.8-.9-1.8-2.5-.2-6.41l10.79-26.03c3.1-7.51-1.01-13.21-13.12-18.21-7.31-3-15.52-3.79-22.12-2.09-4.7,1.3-9.71,4.51-10.7,7.01-.7,1.5.2,3.1,2,3.8ZM656.19,129.96l-2.8,6.71h.1c-1.5,3.6-2.9,5.71-4.6,6.61-2.5,1.4-6.1,1.61-8.81.51-3.1-1.3-4.41-5-2.91-8.61,1.3-3.1,3.7-4.91,7.9-5.81,4.1-.8,10.01-1.41,10.91-1.11.5.2.6.8.2,1.7Z"/>
        <path class="cls-5" d="M685.95,176.68c4.41,2.6,9.91,3.8,16.12,3.39,4.4-.3,3.9-.4,4.4,0,.7.3.6,1,0,2l-2.5,3.91c-.8,1.3-.8,1.8.2,2.4.6.4,1,.5,4.71,1.3,4.71,1.2,8.81,2.4,12.21,3.59,3.9,1.5,5.21,1.6,5.91.4.5-.9.2-1.6-1-2.7-3.61-2.9-3.61-3.8-.21-9.31l17.9-28.84c1.1-1.9,1.1-2.2-.2-3l-2.5-1.5c-3-1.8-4.31-2.6-5.81-3.5-.2-.1-2.3-1.5-4.81-3.2l-1.1-.7-1-.8-1.1-.7c-.7-.5-1.5-1.1-1.7-1.1-2-1.2-3.4-1.1-4.1,0s-.4,2.2,1,3.5c4.81,4.5,4.81,4.8.51,11.71l-11.3,18.22c-1.7,2.7-2.4,3.4-4.4,3.81-3.2.8-7.11.21-9.61-1.29-4.51-2.8-4.81-7.6-1.01-13.71l16.1-25.93c1.7-2.6,1.7-2.8,0-3.9-.1-.1-1.6-1-2.6-1.5l-3.3-2.1c-1.2-.7-3.7-2.4-6.81-4.4l-1-.8-2.2-1.3c-.8-.6-1.5-1.2-1.7-1.2-1.9-1.2-3.3-1.2-4.1,0-.7,1.1-.4,2.3,1,3.5,4.81,4.5,4.81,4.7.51,11.71h.1s-11,17.82-11,17.82c-6,9.71-4.39,18.72,4.42,24.22Z"/>
        <path class="cls-5" d="M766.81,155.51l-30.5,37.45c-5.2,6.31-5.5,6.41-11.31,3.31-1.6-.9-2.8-.8-3.6.2-.9,1.1-.5,2.4,1.3,3.9.2.2.9.8,1.6,1.2,3.81,2.8,7.91,6,9.41,7.2,2.2,1.8,5.71,4.8,9.71,8.3.5.5,1.3,1.1,1.5,1.3,1.8,1.5,3.2,1.7,4.1.6.8-1,.7-2.2-.5-3.6-4.21-5.2-4.21-5.3.99-11.71l.1.1,40.1-49.17c1.2-1.5,1.4-2.7.5-3.5-.3-.3-.7-.5-1.5-.7-8.21-2.4-10.81-3.6-16.02-6.59-3.91-2.3-5.11-2.5-6.11-1.4-.8.9-.8,1.7.2,2.8,3.81,4.6,3.81,5.6,0,10.31Z"/>
        <path class="cls-5" d="M778.74,183.32c-.8.7-.4,1.9,1,3.2l2.5,2.4c1.3,1.2,1,2-1.5,4.61l-.3-.2-18.9,19.43c-7.4,7.61-7.9,14.82-1.29,21.22,3.51,3.5,8.71,5.7,13.72,6.1,3.1.2,5.7-.3,6.61-1.21.5-.5.5-1.5,0-2.1-.5-.4-.7-.5-3.5-1-1.7-.4-3.4-1.1-4.21-1.9-2.8-2.8-1.21-6.71,5.8-13.92l15.2-15.62c1.8-1.8,2.5-1.8,4.2-.2l5.41,5.3c1.4,1.3,2.2,1.3,3.8-.4,1.5-1.5,1.5-2-.2-3.6l-5.91-5.8c-1.4-1.4-1.2-2.5.6-4.4l6.2-6.31c1.6-1.5,1.6-2.4.4-3.5-1-.9-2.3-.9-5.4,0-5.8,1.81-12.71,1.21-19.62-1.69-2.4-1-3.8-1.1-4.6-.4Z"/>
        <g>
          <path class="cls-5" d="M800.91,253.87c-2.9,2-3.4,2.3-4.4,3.11-2.2,1.7-2.7,2.4-2.9,3.61-.8,4.9,4.12,17.71,9.73,26.02,12.32,18.11,32.95,23.7,48.45,13.08,10.4-7.11,13.5-19.33,8.88-35.34l-1-3.6-1.2-3.6-1-3.7c-.3-1.1-.5-2.1-.8-3.2-1.11-6.4.19-10.41,4.09-13.01,5.9-4.01,14.81-1.21,19.82,6.19,4.41,6.4,3.21,13.41-3.59,22.42-2,2.5-2.2,4.01-1.2,5.51,1.2,1.7,2.7,1.8,4.7.4l.2-.1,11.1-7.51c2.1-1.4,2.6-2.5,2.6-4.31-.3-4-3.91-12.71-7.42-17.81-11.62-17.11-31.85-23.6-44.95-14.68-9.1,6.21-10.9,15.72-6.78,35.34,1.71,8.91,2.21,11.21,2.51,13.31.61,7.41-.99,11.71-5.89,15.02-7.2,4.91-17.21,1.81-23.63-7.69-5.91-8.6-5.82-16.51-.02-23.72,5.8-7.11,4.3-5.21,4.7-5.91,1.2-1.8,1.3-3.4.5-4.6-1.5-2.1-3.2-1.7-8.41,1.81-.5.4-1.9,1.3-4.1,3.01Z"/>
          <path class="cls-5" d="M837.8,340.72c.2.3.2.5.2.9.7,4.8,1.31,7.01,2.71,10.31,6.42,14.41,22.94,20.8,37.54,14.29,13.31-5.91,19.5-20.53,13.99-32.94-1.6-3.5-3.41-5.8-6.21-7.6-6.61-4.2-6.31-4-6.51-4.5-.3-.6.2-1.2,1.6-1.8l5.3-2.41c1.2-.5,1.6-1.2,1.2-2.1-.4-.9-.8-1-4.11-2.2-3.7-1.2-8.71-5.2-12.32-9.8-4.21-5.2-4.01-5.1-5.51-4.4-1,.5-1.2,1.4-.8,2.5,2.01,6.3,1.71,6.9-4.7,9.81l-41.22,18.35c-6.1,2.71-8.21,2.51-10.81-1.39-2.5-3.6-2.81-3.9-4.21-3.2-1.4.6-1.7,1.9-1,3.5,0,.3.4,1,.8,1.7l.4.9.5,1,.4.9.4.8c2.21,4.4,3.11,6.2,4.41,9.21,1.2,2.7,2.31,5.4,3.41,8.1l.4.9.2.9.4.8.4.9.4,1,.4.9.2.6c.2.7.4,1.2.4,1.2.8,1.6,1.8,2.2,3.3,1.6,1-.5,1.3-1.4,1-2.7-1.91-7.71-1.51-8.41,5.6-11.61l9.31-4.21v-.4c1.5-.7,2.2-.6,2.5.2ZM850.21,333.81l19.81-8.92v.1c2.7-1.1,4.2-1.5,5.6-1.21,2.5.6,5.01,2.8,6.21,5.5,3.11,7-2.79,16.52-13.4,21.13-11.61,5.11-22.02,3.32-25.33-4.19-2.31-5.2-.21-9.21,7.1-12.42Z"/>
          <path class="cls-5" d="M878.86,371.32c-14.81,3.71-23.11,19.83-18.89,36.85,4.52,18.01,20.14,28.81,35.95,24.9,14.61-3.61,22.91-20.13,18.79-37.05l-.1.1c-4.52-18.01-19.94-28.71-35.75-24.8ZM910.3,395.12v.1c2.01,8.21-7.19,17.12-21.5,20.63-12.91,3.21-22.72.62-24.53-6.69-2.01-8.01,8.09-17.42,22.61-21.03,11.71-2.91,21.72.18,23.43,6.99Z"/>
          <path class="cls-5" d="M910.33,436.96c-1.3.1-1.7,1-1.7,3,.1,4.8-1.2,6.01-7.3,6.51l.2.2-18.22,1.61c-8.21.71-8.51.61-10.31-5.7-.5-1.8-1.4-2.4-2.7-2.4-1.4.2-2,1.4-1.8,3.7.1.4.1,1.3.3,2,.6,4.9,1.21,9.91,1.41,12.11.2,2.5.61,7.21.81,12.41-.2.8,0,1.7,0,2,.2,2.3,1.1,3.3,2.4,3.3,1.2-.2,2-1.1,2.2-2.9.7-6.61.8-6.71,9-7.51l14.11-1.31c6.31-.6,8.41-.61,10.91,0,2,.6,3.4,1.8,3.61,3.1,0,.9-.5,1.7-2.5,3.81-2.5,2.6-3.4,4.91-3.2,8.01.5,5.3,4.91,9.1,10.12,8.6,4.8-.4,8.2-5.21,7.7-10.61-.4-4.9-4.51-11.01-9.52-14.21-.4-.1-.6-.5-.6-.5-.1-.5.5-.7,1.7-.7l7.41-.71c1.3-.1,1.8-.5,1.8-1.5-.1-1-.6-1.8-2.6-3.7-3.51-3.6-8.31-10.1-9.52-13.21-1.5-3.6-2.71-5.4-3.71-5.4Z"/>
          <path class="cls-5" d="M920.78,491.8c-1.1,0-1.7,1-1.8,2.9v3.5c0,1.7-.8,2-4.4,2l.1.1-27.12-.78c-10.71-.29-16.31,4.32-16.51,13.42-.2,5,1.71,10.41,4.81,14.31,1.9,2.4,4.01,4,5.31,4,.7,0,1.5-.7,1.5-1.5,0-.6-.1-.8-1.6-3.2-.9-1.5-1.4-3.2-1.4-4.4.1-4,4.1-5.41,14.11-5.21l21.82.59c2.4,0,2.9.6,2.9,2.9l-.19,7.61c0,1.9.6,2.5,2.9,2.5,2.1.1,2.5-.3,2.5-2.6l.19-8.31c0-2,1-2.5,3.7-2.5l8.81.19c2.1,0,2.8-.5,2.8-2.2.1-1.4-.8-2.3-3.61-4-5.31-3.2-9.51-8.6-12.12-15.61-.9-2.5-1.7-3.7-2.71-3.7Z"/>
          <path class="cls-5" d="M914.42,561.46c-15.32-3.89-33.03,1.52-43.73,13.04-6.8,7.61-12.3,18.12-15.29,29.84-2.69,10.61-2.79,21.22-.38,28.93,1.2,3.4,2.31,4.5,6.01,5.7l.3.1,9.21,2.9c2,.6,3.7,0,4.2-2,.4-1.5-.2-2.6-2.1-4.3-11.02-10-14.33-18.11-11.73-28.22,4.49-17.82,24.9-26.44,47.93-20.55,23.22,5.89,36.45,22.99,31.86,41.01-2.3,9.01-6.5,13.02-17.7,17.13-3.3,1.3-4.9,2.51-5.3,4.01-.4,1.4.6,3,2,3.4.4,0,1,0,2.1.2l11.11.99c1.9.1,2.9-.3,4.2-2.2,3-4.41,7.3-14.62,8.99-21.23,8.28-32.33-5.45-61.95-31.68-68.74Z"/>
          <path class="cls-5" d="M914.39,662.05c-1-.5-1.8-.2-2.6,1-3.4,4.81-4.3,5.11-9.91,2.71l-44.25-19.19c-7.51-3.3-7.71-3.5-6.31-10,.5-1.8,0-2.9-1.2-3.4-1.2-.6-2.3.2-3.3,2.3-.2.3-.5,1.2-.7,1.9-1.7,4.41-3.6,9.21-4.4,11.01-1.2,2.6-3.1,6.81-5.4,11.61-.5.6-.8,1.5-1,1.8-.9,2.1-.7,3.5.5,4,1.2.6,2.3.1,3.3-1.4,3.8-5.41,4-5.51,11.51-2.21l.2.3,58.27,25.28c1.7.7,2.9.5,3.4-.5.2-.4.2-.9.2-1.6.09-8.61.49-11.51,1.99-17.32,1.1-4.4,1.1-5.71-.3-6.31Z"/>
          <path class="cls-5" d="M880.78,686.9c-1.1-.7-2.3-.4-3.5,1-4.4,4.91-4.7,4.91-11.71.71l-.3-.6-17.92-10.7c-9.71-5.9-18.82-4.09-24.12,4.82-2.7,4.41-3.7,9.91-3.19,16.12.3,4.4.4,3.9,0,4.4-.3.7-1,.6-2,0l-3.91-2.3c-1.2-.8-1.8-.7-2.4.3-.4.6-.4,1.1-1.2,4.71-1,4.7-2.1,8.91-3.29,12.31-1.5,3.9-1.6,5.21-.4,5.91.9.5,1.7.3,2.7-1,2.9-3.81,3.8-3.71,9.31-.41l29.14,17.39c2,1.2,2.2,1.1,3-.2l1.5-2.4c1.7-3.1,2.6-4.41,3.4-5.91.2-.2,1.5-2.2,3.2-4.81l.7-1.1.8-1,.7-1.1c.6-.7,1.2-1.5,1.2-1.7,1.2-1.9,1.2-3.3,0-4.1-1.1-.6-2.3-.3-3.5,1.2-4.5,4.91-4.7,4.91-11.71.71l-18.42-11c-2.7-1.6-3.4-2.4-3.91-4.3-.8-3.2-.31-7.11,1.19-9.61,2.8-4.51,7.5-4.91,13.71-1.21l26.23,15.7c2.6,1.6,2.8,1.7,3.8,0,.1-.2,1-1.6,1.5-2.7l2-3.3c.7-1.2,2.3-3.7,4.3-6.91l.7-1,1.3-2.2c.6-.7,1.1-1.4,1.1-1.6,1.2-2,1.2-3.4,0-4.1Z"/>
          <path class="cls-5" d="M855.92,765.99c-4.2,3.71-5,3.71-9.21,0l-42.46-36.6c-2.1-1.9-3.81-3.4-4.51-4.3-.5-.7-1-1.2-1.4-1.5-1-.8-2.2-.8-2.9,0-.5.7-.5,1.5.2,3.1,1.6,4.1,2.01,5.5,1.41,6.1-.2.2-.6.5-1,.7-9.01,3.51-10.91,4.81-15.11,9.62-12.1,14.02-11.99,32.84.03,43.24,11.22,9.7,26.93,8.69,36.43-2.23,1.6-1.8,3-4.81,4.2-9.01.7-2.2,1.2-3.8,1.3-4.2,0-.6.2-1.1.5-1.4.3-.3,1,0,2.1,1l19.53,16.8h0c2.7,2.3,3.4,2.7,4.3,1.3.7-.8.8-1.2,2-4.41,2.5-7.21,3.5-9.41,6.2-13.42,2-3.1,2.3-4.51,1.3-5.31-.8-.7-1.7-.7-2.9.5ZM817.09,773.12c-5.6,6.51-17.21,5.42-26.33-2.48-9.21-7.9-12.32-18.81-6.92-25.02,1.7-2,4.1-3.11,6.7-3.01,2.3,0,3.8,1,9.21,5.6l17.43,15.1.1.1c2.3,1.9,2.5,2.1,2.5,3.1.2,1.9-.8,4.5-2.7,6.61Z"/>
          <path class="cls-5" d="M424.91,872.89c-.5,0-1.2,0-2.1.2-6.3,1.41-13.51,1.91-26.32,1.92-6.31,0-8.11.51-8.61,2.41-.3,1.2.5,2.5,1.9,2.7,1.1.2,2.5.2,4.3.2l7.91-.41c.6-.1,1.2,0,1.7.2,2.1.6,2.2,1.3.91,6.71l-11.18,43.85c-1.6,6.01-3.9,6.91-12.31,4.61-3.1-.8-4.7-.5-5.2,1.51-.4,1.6.4,2.6,3,3.3.3.1,1.6.3,2.7.5,4.4.8,9.11,1.7,14.42,3.09,6.01,1.5,12.01,3.39,17.92,5.49,1.1.4,2.5,1,3,1,2.8.7,4.4.2,4.9-1.5.6-1.8-.9-3-5.11-4.1-6.81-1.6-7.51-3.3-5.31-12.01l.2.1,14.27-55.66c.7-2.6.4-3.7-1-4.1Z"/>
          <path class="cls-5" d="M466.65,879.96c-15.21-1.49-29.12,9.53-30.61,24.34-1.29,12.41,7.82,24.12,19.64,25.31,7.41.8,14.11-1.21,14.41-4.21.1-.8-.6-1.8-1.2-1.8-.1,0-.6.2-1.1.2-1.1.4-2.3.4-3.2.4-7.91-.8-13.82-13.4-12.53-26.31l-.1-.3c.89-8.71,5.39-14.12,11.4-13.52,8.41.89,14.42,15.4,12.83,31.42-2.09,21.22-18.99,40.75-39.2,45.37-3.6.9-4.4,1.4-4.6,2.71-.1,1.3.8,2.3,2.1,2.5.9.2,1.9,0,3-.2,8.51-1.91,14.51-3.61,19.51-5.82,20.81-9.02,34.81-26.15,36.7-44.47,1.79-18.42-9.93-33.92-27.05-35.61Z"/>
          <path class="cls-5" d="M556.23,880.5l-37.73,3.03c-5.4.5-9.71.51-15.01.01-1.2,0-2.5,0-3.2,0-1.9.2-2,.4-1.7,4.61,0,1.3.3,4,.5,5,.3,3,.5,5.1.5,5.3.2,2.8.9,3.9,2.3,3.9.5-.1,1.7-.3,3.1-.6.8-.1,2.9-.4,5.8-.6l31.33-2.52c1.5,0,2,.2,2,1.2.1.8,0,1.2-.5,3.1-.7,2.5-1.9,6.51-2.3,7.51l.2-.1-18.18,49.86c-.3.5-.3,1.2-.3,1.7,0,.3,0,.5,0,.5.2.9.4.9,2.5.7,0,0,.3,0,.8,0h1.3c1.6-.1,1.7-.2,3.2-5.01.8-2.5,2.2-6.81,4.1-12.11,5.49-15.82,9.99-27.83,12.99-35.14l2.9-7.11,2.8-7.11,3-7.11s.3-.6.8-1.8c2.2-5.61,2-5.41,2-6.41-.1-1-.5-1-3.2-.8Z"/>
          <path class="cls-5" d="M623.03,935.3c-7.11.81-7.91.41-9.31-5.3l.2-.3-2.01-8.11c-.6-2.6-.4-3,2-3.6l6.7-1.61c2.3-.5,2.5-1,1.8-3.7-.6-2.3-1.6-3.2-3-2.9l-7.01,1.81c-2.5.6-2.9.4-3.71-2.5l-5.82-23.52c-.2-1.2-.5-1.4-1.2-1.2-.3,0-.4,0-.7.2-.5.3-1.2.8-2.4,1.3-4.3,2.31-3.4,1.9-9.9,6.01-.2.1-.4.2-.6.4-1.5,1.2-1.5,1.5-.7,5l4.01,16.01c.8,3.2.6,3.5-2.7,4.31l-17.41,4.32c-1.7.4-2.3.3-2.5-.2-.1-.3,0-.4.4-1.6.4-1.4-.3.3,3.1-7.61l9.49-22.53c3.1-7.41,7.1-15.82,11.69-25.23,2.7-5.51,3.4-6.91,3.2-7.31-.2-.4-1.1-.6-1.9-.4-4.4,1.1-4.9,1.5-6.1,4.31l-25.78,61.07c-.8,1.8-1,2.8-.8,3.8,1.2,4.8.9,4.7,5.21,3.6l23.32-5.72c3-.8,3.2-.7,4.01,2.5l2.11,8.51c1,4,0,6.01-3.4,7.21-4.8,1.7-5.5,2.21-5,4.21.4,1.6,1.6,2.1,4.1,1.4.5-.1,2.1-.7,3.3-.9,4.6-1.5,7.71-2.51,8.41-2.71l17.81-3.62c2.9-.7,4.2-2,3.7-3.71-.3-1.2-1.3-1.7-2.6-1.7Z"/>
          <polygon class="cls-5" points="255.93 834.77 277.88 873.09 321.96 873.46 300.07 835.14 255.93 834.77"/>
          <polygon class="cls-5" points="669.78 873.21 713.96 872.78 735.76 834.43 691.62 834.87 669.78 873.21"/>
        </g>
      </g>
    </g>
  </g>
</svg>