<?xml version="1.0" encoding="UTF-8" standalone="no"?>
<!-- Generator: Adobe Illustrator 23.0.1, SVG Export Plug-In . SVG Version: 6.00 Build 0)  -->

<svg
   xmlns:dc="http://purl.org/dc/elements/1.1/"
   xmlns:cc="http://creativecommons.org/ns#"
   xmlns:rdf="http://www.w3.org/1999/02/22-rdf-syntax-ns#"
   xmlns:svg="http://www.w3.org/2000/svg"
   xmlns="http://www.w3.org/2000/svg"
   xmlns:sodipodi="http://sodipodi.sourceforge.net/DTD/sodipodi-0.dtd"
   xmlns:inkscape="http://www.inkscape.org/namespaces/inkscape"
   version="1.1"
   id="Calque_2"
   x="0px"
   y="0px"
   viewBox="0 0 240.68768 300"
   xml:space="preserve"
   sodipodi:docname="Rodez AF logo.svg"
   width="240.68768"
   height="300"
   inkscape:version="0.92.4 (5da689c313, 2019-01-14)"><metadata
   id="metadata475"><rdf:RDF><cc:Work
       rdf:about=""><dc:format>image/svg+xml</dc:format><dc:type
         rdf:resource="http://purl.org/dc/dcmitype/StillImage" /></cc:Work></rdf:RDF></metadata><defs
   id="defs473">
	
	
	
	

	
	
	
	
	
	
	
	
	
	
	
	
	
	
	
	
	
	
	
	
</defs><sodipodi:namedview
   pagecolor="#ffffff"
   bordercolor="#666666"
   borderopacity="1"
   objecttolerance="10"
   gridtolerance="10"
   guidetolerance="10"
   inkscape:pageopacity="0"
   inkscape:pageshadow="2"
   inkscape:window-width="1366"
   inkscape:window-height="705"
   id="namedview471"
   showgrid="false"
   inkscape:zoom="0.7375"
   inkscape:cx="21.967797"
   inkscape:cy="35.399997"
   inkscape:window-x="-8"
   inkscape:window-y="-8"
   inkscape:window-maximized="1"
   inkscape:current-layer="Calque_2" />
<style
   type="text/css"
   id="style384">
	.st0{fill:#971327;}
	.st1{fill:#AC1028;}
	.st2{fill:#A3112C;}
	.st3{fill:#F9B905;}
	.st4{fill:#EFB003;}
	.st5{fill-rule:evenodd;clip-rule:evenodd;fill:#F9B905;}
	.st6{fill:none;stroke:#FBC00C;stroke-width:0.1144;stroke-miterlimit:10;}
	.st7{fill-rule:evenodd;clip-rule:evenodd;fill:#EFB003;}
	.st8{fill:none;stroke:#AC1028;stroke-width:0.1716;stroke-miterlimit:10;}
</style>
<path
   class="st0"
   d="m 10.315186,25.78797 c 0,0 -23.209169,54.15472 0,153.43839 C 33.524355,278.51003 120.34384,300 120.34384,300 V 0 c 0,0 -74.785101,0.4298 -110.028654,25.78797 z"
   id="path386"
   inkscape:connector-curvature="0"
   style="fill:#971327;stroke-width:4.29799414" />
<path
   class="st0"
   d="m 230.37249,25.78797 c 0,0 23.20917,54.15472 0,153.43839 C 207.16332,278.51003 120.34384,300 120.34384,300 V 0 c 0,0 75.2149,0.4298 110.02865,25.78797 z"
   id="path388"
   inkscape:connector-curvature="0"
   style="fill:#971327;stroke-width:4.29799414" />
<path
   class="st1"
   d="m 11.604585,27.07736 c 0,0 -22.77937,53.72493 0,151.7192 C 34.383954,276.79083 120.34384,298.2808 120.34384,298.2808 V 1.2894 c 0,0 -73.925502,0.8596 -108.739255,25.78796 z"
   id="path390"
   inkscape:connector-curvature="0"
   style="fill:#ac1028;stroke-width:4.29799414" />
<path
   class="st2"
   d="m 229.08309,27.07736 c 0,0 22.77937,53.72493 0,151.7192 C 206.30372,276.79083 120.34384,298.2808 120.34384,298.2808 V 1.2894 c 0,0 73.9255,0.8596 108.73925,25.78796 z"
   id="path392"
   inkscape:connector-curvature="0"
   style="fill:#a3112c;stroke-width:4.29799414" />
<path
   class="st3"
   d="m 17.191977,35.67335 c 0,0 -21.9197705,50.71633 0,143.98281 21.919771,93.26648 103.151863,113.46705 103.151863,113.46705 V 11.60458 c 0,0 -70.057307,0.4298 -103.151863,24.06877 z"
   id="path394"
   inkscape:connector-curvature="0"
   style="fill:#f9b905;stroke-width:4.29799414" />
<path
   class="st4"
   d="m 223.9255,35.67335 c 0,0 21.91977,50.71633 0,143.98281 -21.91977,93.26648 -103.15186,113.46705 -103.15186,113.46705 V 11.60458 c -0.4298,0 70.05731,0.4298 103.15186,24.06877 z"
   id="path396"
   inkscape:connector-curvature="0"
   style="fill:#efb003;stroke-width:4.29799414" />
<path
   class="st1"
   d="m 21.489971,43.40974 c 0,0 -20.63037193,48.56734 0,137.96562 21.060172,88.96848 98.853869,108.30945 98.853869,108.30945 V 19.77077 c 0,0 -67.048711,0.8596 -98.853869,23.63897 z"
   id="path398"
   inkscape:connector-curvature="0"
   style="fill:#ac1028;stroke-width:4.29799414" />
<path
   class="st2"
   d="m 219.19771,43.40974 c 0,0 20.63037,48.56734 0,137.96562 -20.63037,88.96848 -98.85387,108.30945 -98.85387,108.30945 V 19.77077 c 0,0 67.47851,0.8596 98.85387,23.63897 z"
   id="path400"
   inkscape:connector-curvature="0"
   style="fill:#a3112c;stroke-width:4.29799414" />
<path
   style="fill:#efb003;stroke-width:4.29799414"
   d="m 148.2808,237.24928 -12.46418,7.30659 v 41.26075 l 24.49857,-14.18338 v -27.07737 z"
   id="polygon402"
   inkscape:connector-curvature="0" />
<path
   style="fill:#f9b905;stroke-width:4.29799414"
   d="m 130.22923,229.08309 -1.7192,11.60459 -8.16619,-17.19198 -8.16619,17.19198 -1.7192,-11.60459 -2.14899,12.03439 v 44.26934 l 12.03438,5.15759 12.46418,-5.15759 v -44.26934 z"
   id="polygon404"
   inkscape:connector-curvature="0" />
<path
   style="fill:#f9b905;stroke-width:4.29799414"
   d="m 94.985673,216.18911 v -4.72779 h -0.429799 -1.719198 -0.859599 v 4.72779 l -9.885386,1.7192 v 53.72493 l 23.209169,13.75358 v -67.47851 z"
   id="polygon406"
   inkscape:connector-curvature="0" />
<path
   style="clip-rule:evenodd;fill:#f9b905;fill-rule:evenodd;stroke-width:4.29799414"
   d="m 120.34384,71.3467 15.47278,9.02579 5.58739,20.20058 8.59599,8.59598 3.4384,3.0086 4.29799,33.09456 14.61318,9.45558 -2.149,4.298 0.8596,5.15759 14.18338,12.89398 -15.90258,18.05158 -14.61318,2.149 -2.14899,13.75358 -32.23496,-7.73639 -15.04298,-29.65616 -24.928367,-18.48138 -16.332378,3.8682 -5.157594,-6.01719 4.727794,-6.0172 -8.166189,-2.57879 -1.719198,-19.34098 29.656161,-11.17478 2.578796,-5.58739 22.779375,-6.8768 z"
   id="polygon408"
   inkscape:connector-curvature="0" />
<path
   class="st6"
   d="M 142.26361,161.17478"
   id="path410"
   inkscape:connector-curvature="0"
   style="fill:none;stroke:#fbc00c;stroke-width:0.49169055;stroke-miterlimit:10" />
<path
   style="fill:#efb003;stroke-width:4.29799414"
   inkscape:connector-curvature="0"
   id="path412"
   d="m 159.02579,205.44413 3.43839,-3.0086 h 0.4298 v 21.91977 c 0,1.2894 0,2.149 0,2.5788 0,0.4298 0,0.4298 0.4298,0.8596 0,0 0.4298,0.4298 1.2894,0.4298 v 0.85959 h -5.15759 v -0.85959 c 0.8596,0 1.2894,0 1.2894,-0.4298 0,-0.4298 0.4298,-0.4298 0.4298,-0.8596 0,-0.4298 0,-1.2894 0,-2.5788 v -13.75358 c 0,-1.7192 0,-3.0086 0,-3.4384 0,-0.4298 0,-0.8596 -0.4298,-0.8596 0,0 -0.4298,-0.42979 -0.4298,-0.42979 -0.4298,0 -0.4298,0 -0.8596,0.42979 z"
   class="st4" /><path
   style="fill:#efb003;stroke-width:4.29799414"
   inkscape:connector-curvature="0"
   id="path414"
   d="m 167.62178,229.08309 v -0.85959 c 0.8596,0 1.71919,-0.4298 2.57879,-1.2894 0.8596,-0.8596 1.7192,-2.149 2.149,-3.8682 0.8596,-1.7192 1.2894,-3.86819 1.2894,-6.01719 -1.2894,1.2894 -2.149,1.7192 -3.0086,1.7192 -0.8596,0 -1.7192,-0.8596 -2.57879,-2.149 -0.8596,-1.2894 -0.8596,-3.43839 -0.8596,-5.58739 0,-2.149 0.4298,-4.298 0.8596,-6.01719 0.85959,-2.149 2.14899,-3.0086 3.43839,-3.0086 1.2894,0 2.149,0.8596 3.0086,2.5788 0.8596,2.14899 1.2894,4.72779 1.2894,8.16619 0,3.00859 -0.4298,5.58739 -1.2894,8.16619 -0.8596,2.57879 -1.7192,4.72779 -3.0086,6.01719 -1.2894,1.2894 -2.149,2.14899 -3.43839,2.14899 z m 6.44699,-13.32378 c 0,-1.7192 0,-3.00859 0,-3.86819 0,-1.2894 0,-2.5788 -0.4298,-3.8682 -0.4298,-1.2894 -0.4298,-2.57879 -0.8596,-3.43839 0,-0.4298 -0.4298,-0.8596 -1.2894,-0.8596 -0.4298,0 -1.2894,0.4298 -1.7192,1.7192 -0.4298,0.85959 -0.8596,2.57879 -0.8596,4.72779 0,2.5788 0.4298,4.72779 0.8596,6.44699 0.4298,1.2894 0.8596,1.7192 1.7192,1.7192 0.4298,0 0.8596,0 1.2894,-0.4298 0.8596,-1.2894 1.2894,-1.2894 1.2894,-2.149 z"
   class="st4" /><path
   style="fill:#efb003;stroke-width:4.29799414"
   inkscape:connector-curvature="0"
   id="path416"
   d="m 186.53295,223.4957 -0.8596,5.1576 h -8.16619 v -0.8596 c 2.5788,-4.298 4.298,-7.30659 5.1576,-9.88539 0.8596,-2.5788 1.28939,-5.15759 1.28939,-7.30659 0,-1.7192 -0.42979,-3.0086 -0.85959,-3.8682 -0.4298,-0.85959 -1.2894,-1.71919 -2.149,-1.71919 -0.8596,0 -1.2894,0.4298 -1.7192,1.28939 -0.4298,0.8596 -0.8596,1.7192 -1.2894,3.4384 h -0.4298 c 0,-2.149 0.4298,-4.29799 1.2894,-5.58739 0.8596,-1.2894 1.7192,-1.7192 2.5788,-1.7192 1.2894,0 2.149,0.8596 3.00859,2.149 0.8596,1.2894 1.2894,3.00859 1.2894,4.72779 0,1.2894 0,2.5788 -0.4298,3.8682 -0.4298,2.14899 -1.2894,4.29799 -2.57879,6.44699 -1.7192,3.43839 -2.5788,5.58739 -3.0086,6.44699 h 3.4384 c 0.85959,0 1.28939,0 1.71919,0 0.4298,0 0.4298,-0.4298 0.8596,-0.4298 0,-0.8596 0.4298,-1.2894 0.8596,-2.149 z"
   class="st4" /><path
   style="fill:#efb003;stroke-width:4.29799414"
   inkscape:connector-curvature="0"
   id="path418"
   d="m 188.25215,229.08309 v -0.85959 c 0.8596,0 1.7192,-0.4298 2.5788,-1.2894 0.85959,-0.8596 1.71919,-2.149 2.14899,-3.8682 0.8596,-1.7192 1.2894,-3.86819 1.2894,-6.01719 -1.2894,1.2894 -2.149,1.7192 -3.0086,1.7192 -0.85959,0 -1.71919,-0.8596 -2.57879,-2.149 -0.8596,-1.2894 -0.8596,-3.43839 -0.8596,-5.58739 0,-2.149 0.4298,-4.298 0.8596,-6.01719 0.8596,-2.149 2.149,-3.0086 3.43839,-3.0086 1.2894,0 2.149,0.8596 3.0086,2.5788 0.8596,2.14899 1.2894,4.72779 1.2894,8.16619 0,3.00859 -0.4298,5.58739 -1.2894,8.16619 -0.8596,2.57879 -1.7192,4.72779 -3.0086,6.01719 -1.28939,1.2894 -2.14899,2.14899 -3.43839,2.14899 z m 6.44699,-13.32378 c 0,-1.7192 0,-3.00859 0,-3.86819 0,-1.2894 0,-2.5788 -0.4298,-3.8682 -0.4298,-1.2894 -0.4298,-2.57879 -0.8596,-3.43839 -0.4298,-0.4298 -0.8596,-0.8596 -1.2894,-0.8596 -0.4298,0 -1.28939,0.4298 -1.71919,1.7192 -0.4298,0.85959 -0.8596,2.57879 -0.8596,4.72779 0,2.5788 0.4298,4.72779 0.8596,6.44699 0.4298,1.2894 0.85959,1.7192 1.71919,1.7192 0.4298,0 0.8596,0 1.2894,-0.4298 0.4298,-1.2894 0.8596,-1.2894 1.2894,-2.149 z"
   class="st4" />
<path
   style="clip-rule:evenodd;fill:#efb003;fill-rule:evenodd;stroke-width:4.29799414"
   d="m 120.34384,71.3467 v 131.94843 l 32.23496,7.73639 2.14899,-13.75358 14.61318,-2.149 15.90258,-18.05158 -14.18338,-12.89398 -0.8596,-5.15759 2.149,-4.298 -14.61318,-9.45558 -4.29799,-33.09456 -12.03439,-11.60458 -5.58739,-20.20058 z"
   id="polygon422"
   inkscape:connector-curvature="0" />
<path
   style="fill:#efb003;stroke-width:4.29799414"
   d="m 120.34384,290.54441 12.46418,-5.15759 v -45.98854 l -2.57879,-10.31519 -1.7192,11.60459 -8.16619,-17.19198 z"
   id="polygon424"
   inkscape:connector-curvature="0" />
<path
   style="fill:#f9b905;stroke-width:4.29799414"
   inkscape:connector-curvature="0"
   id="path426"
   d="m 44.269341,67.90831 -3.008596,1.2894 -7.73639,-8.59599 c -0.429799,0 -0.429799,0.4298 -0.859599,0.4298 0,0 0,0 -0.429799,0 0,0 0,0 -0.429799,0 l 2.148997,6.44699 c 0.429799,1.2894 0.859599,2.149 1.289398,2.5788 0.429799,0.4298 0.859599,0.4298 1.289398,0.4298 h 0.4298 l 0.429799,0.4298 -5.157593,1.71919 -0.429799,-0.4298 h 0.429799 c 0.429799,0 0.859599,-0.4298 0.859599,-1.28939 0,-0.4298 -0.4298,-1.2894 -0.859599,-2.5788 L 27.077364,54.58453 c -0.4298,-1.2894 -0.859599,-2.149 -1.289398,-2.5788 -0.4298,-0.4298 -0.859599,-0.4298 -1.289399,-0.4298 h -0.429799 l -0.4298,-0.4298 4.297995,-1.7192 c 1.289398,-0.4298 2.148997,-0.4298 3.008596,-0.4298 0.859599,0 1.289398,0.4298 2.148997,1.2894 0.859599,0.8596 1.289398,1.7192 1.719198,3.0086 0.429799,1.2894 0.859598,2.5788 0.429799,3.86819 0,1.2894 -0.429799,2.149 -1.289398,3.0086 l 4.727793,5.15759 c 0.859599,1.2894 1.719198,2.149 2.578797,2.149 0.429799,0.4298 1.289398,0.4298 1.719198,0.4298 z M 31.805158,60.17192 c 0,-0.4298 0.429799,-0.4298 0,0 0.429799,0 0.429799,0 0.429799,0 1.289398,-0.4298 1.719198,-1.2894 2.148997,-2.149 0.4298,-1.2894 0,-2.14899 -0.429799,-3.86819 -0.4298,-1.2894 -1.289399,-2.149 -1.719198,-3.0086 -0.859599,-0.8596 -1.719198,-0.8596 -2.148997,-0.4298 -0.4298,0 -0.859599,0.4298 -1.289398,0.8596 z"
   class="st3" /><path
   style="fill:#f9b905;stroke-width:4.29799414"
   inkscape:connector-curvature="0"
   id="path428"
   d="m 43.409742,51.57593 c 1.289398,-0.4298 2.578797,0 3.868195,1.7192 1.289398,1.2894 1.719198,3.00859 2.578797,4.72779 0.429799,1.2894 0.859598,2.5788 0.859598,4.298 0,1.2894 0,2.57879 -0.429799,3.43839 -0.429799,0.8596 -0.859599,1.2894 -1.719198,1.7192 -1.289398,0.4298 -2.578796,0 -3.868195,-1.7192 -0.859598,-1.2894 -1.719197,-3.00859 -2.578796,-4.72779 -0.4298,-1.2894 -0.859599,-2.5788 -0.859599,-4.298 0,-1.28939 0,-2.57879 0.429799,-3.43839 0.4298,-0.8596 1.289399,-1.7192 1.719198,-1.7192 z m 0,1.2894 c -0.429799,0 -0.429799,0.4298 -0.859599,0.8596 0,0.4298 -0.429799,1.2894 0,2.149 0.4298,0.85959 0.4298,2.14899 0.859599,3.43839 0.859599,2.149 1.289398,3.8682 2.578797,5.15759 0.859599,1.2894 1.719197,2.149 2.578796,1.7192 0.4298,0 0.859599,-0.8596 0.859599,-1.7192 0,-0.85959 0,-2.57879 -0.859599,-4.72779 -0.859599,-2.5788 -1.719197,-4.72779 -3.008596,-6.01719 -0.859599,-0.8596 -1.289398,-1.2894 -2.148997,-0.8596 z"
   class="st3" /><path
   style="fill:#f9b905;stroke-width:4.29799414"
   inkscape:connector-curvature="0"
   id="path430"
   d="m 58.452722,61.89112 c 0,0.8596 -0.429799,1.7192 -0.859599,2.14899 -0.429799,0.4298 -0.429799,0.8596 -1.289398,0.8596 -0.859599,0.4298 -1.719198,-0.4298 -3.008596,-1.28939 -0.859599,-1.2894 -1.719198,-3.0086 -2.578797,-5.1576 -0.429799,-2.149 -0.859598,-4.29799 -0.429799,-6.01719 0.429799,-2.149 0.859599,-3.0086 2.148997,-3.4384 0.859599,0 1.289398,0 2.148997,0.8596 l -0.859599,-2.57879 c -0.429799,-1.7192 -0.859598,-2.5788 -0.859598,-3.0086 0,-0.4298 -0.4298,-0.4298 -0.4298,-0.8596 0,0 -0.429799,0 -0.429799,0 0,0 -0.4298,0 -0.4298,0.4298 l -0.429799,-0.4298 1.719198,-2.57879 h 0.429799 l 4.727794,17.19197 c 0.429799,1.7192 0.859598,3.0086 0.859598,3.0086 0,0.4298 0.4298,0.4298 0.4298,0.8596 0,0 0.429799,0 0.429799,0 0,0 0.4298,0 0.4298,-0.4298 l 0.429799,0.4298 -1.719198,2.57879 h -0.429799 z m -0.429799,-0.8596 -2.148997,-7.73639 c -0.4298,-0.8596 -0.4298,-1.2894 -0.859599,-1.7192 -0.4298,-0.4298 -0.859599,-0.8596 -1.289399,-1.2894 -0.429799,-0.4298 -0.859598,-0.4298 -0.859598,-0.4298 -0.4298,0 -0.859599,0.8596 -0.859599,1.7192 -0.4298,1.2894 0,3.0086 0.429799,5.15759 0.4298,2.149 1.289398,3.8682 2.148997,4.7278 0.859599,0.8596 1.719198,1.2894 2.148997,1.2894 0.859599,0 1.289399,-0.8596 1.289399,-1.7192 z"
   class="st3" /><path
   style="fill:#f9b905;stroke-width:4.29799414"
   inkscape:connector-curvature="0"
   id="path432"
   d="m 61.031519,53.29513 c 0.429799,2.149 1.289398,3.86819 2.148997,5.15759 0.859599,1.2894 1.719197,1.7192 2.578796,1.2894 0.4298,0 0.859599,-0.4298 1.289399,-1.2894 0.429799,-0.4298 0.429799,-1.7192 0.429799,-3.00859 l 0.429799,0.4298 c 0.4298,1.71919 0,3.00859 0,4.29799 -0.429799,1.2894 -0.859598,2.149 -1.719197,2.5788 -0.859599,0.4298 -2.148997,-0.4298 -3.008596,-1.7192 -0.859599,-1.2894 -1.719198,-3.0086 -2.578797,-5.58739 -0.859599,-2.5788 -0.859599,-4.7278 -0.429799,-6.447 0.429799,-1.71919 1.289398,-2.57879 2.148997,-3.00859 0.859599,-0.4298 1.719198,0 2.578796,1.2894 0.859599,0.8596 1.289399,2.57879 1.719198,4.29799 z m 0,-1.2894 3.868194,-0.8596 c -0.429799,-0.8596 -0.429799,-1.7192 -0.859598,-2.149 -0.4298,-0.42979 -0.4298,-0.85959 -0.859599,-1.28939 -0.4298,-0.4298 -0.859599,-0.4298 -0.859599,-0.4298 -0.4298,0 -0.859599,0.4298 -0.859599,1.2894 -0.859599,1.28939 -0.859599,2.14899 -0.429799,3.43839 z"
   class="st3" /><path
   style="fill:#f9b905;stroke-width:4.29799414"
   inkscape:connector-curvature="0"
   id="path434"
   d="m 76.074499,55.01433 0.859598,4.72779 -7.30659,1.2894 v -0.4298 l 2.578797,-14.61318 -2.578797,0.4298 c -0.429799,0 -0.859599,0.4298 -1.289398,0.4298 0,0 -0.4298,0.4298 -0.4298,0.8596 0,0.4298 0,1.28939 0,2.14899 H 67.47851 l -0.859599,-4.29799 6.876791,-1.2894 v 0.4298 l -2.578797,14.61318 3.008596,-0.4298 c 0.4298,0 0.859599,-0.4298 1.289399,-0.4298 0.429799,0 0.429799,-0.4298 0.429799,-1.2894 0.4298,-0.4298 0.4298,-1.28939 0.4298,-2.14899 z"
   class="st3" /><path
   style="fill:#f9b905;stroke-width:4.29799414"
   inkscape:connector-curvature="0"
   id="path436"
   d="m 88.538682,49.85673 -4.727794,0.8596 -0.429799,3.8682 c 0,0.8596 0,1.71919 0,2.14899 0,0.4298 0,0.4298 0.429799,0.8596 0.4298,0.4298 0.4298,0.4298 1.289399,0.4298 v 0.4298 l -3.868195,0.4298 v -0.4298 c 0.429799,-0.4298 0.859599,-0.4298 0.859599,-0.8596 0.429799,-0.4298 0.429799,-1.71919 0.429799,-3.43839 l 1.719198,-19.34098 h 0.429799 l 6.876791,18.05158 c 0.429799,1.2894 0.859599,2.5788 1.289398,3.0086 0.4298,0.42979 0.859599,0.42979 1.289398,0.42979 v 0.4298 l -4.727793,0.8596 v -0.4298 c 0.429799,0 0.859599,-0.4298 0.859599,-0.4298 0,-0.4298 0,-0.4298 0,-0.85959 0,-0.4298 -0.4298,-1.2894 -0.859599,-2.149 z m -0.429799,-0.8596 -3.438396,-9.02578 -0.859599,9.45558 z"
   class="st3" /><path
   style="fill:#f9b905;stroke-width:4.29799414"
   inkscape:connector-curvature="0"
   id="path438"
   d="m 91.117479,41.69054 3.868194,-0.4298 v 0.4298 h -0.429799 c -0.4298,0 -0.4298,0 -0.4298,0.4298 0,0.4298 0,0.4298 0,0.8596 0,0.4298 0,0.8596 0.4298,1.2894 l 2.578796,8.16619 0.859599,-9.02579 c 0,-0.4298 0,-1.2894 0,-1.2894 0,0 0,-0.4298 0,-0.4298 0,0 0,-0.4298 -0.429799,-0.4298 0,0 -0.4298,0 -0.4298,0 v -0.42979 l 2.578797,-0.4298 v 0.4298 c -0.429799,0 -0.429799,0.42979 -0.429799,0.42979 0,0.4298 -0.4298,0.8596 -0.4298,1.7192 L 97.13467,56.30372 H 96.704871 L 92.406877,43.40974 c 0,-0.4298 -0.4298,-0.8596 -0.4298,-1.2894 0,-0.4298 -0.429799,-0.4298 -0.429799,-0.4298 0,0 -0.429799,0 -0.429799,-0.4298 z"
   class="st3" /><path
   style="fill:#f9b905;stroke-width:4.29799414"
   inkscape:connector-curvature="0"
   id="path440"
   d="m 102.72206,46.41834 c 0,2.149 0.4298,3.86819 1.2894,5.15759 0.8596,1.2894 1.2894,1.7192 2.149,1.7192 0.4298,0 0.8596,-0.4298 1.2894,-0.8596 0.4298,-0.4298 0.8596,-1.7192 0.8596,-3.0086 l 0.4298,0.4298 c 0,1.7192 -0.4298,3.0086 -0.8596,4.298 -0.4298,1.2894 -1.2894,2.14899 -2.149,2.14899 -0.8596,0 -1.7192,-0.42979 -2.5788,-2.14899 -0.8596,-1.7192 -1.2894,-3.4384 -1.2894,-5.58739 0,-2.5788 0,-4.7278 0.8596,-6.447 0.4298,-1.71919 1.7192,-2.14899 2.5788,-2.57879 0.8596,0 1.7192,0.4298 2.5788,1.71919 0.8596,1.2894 0.8596,2.5788 1.28939,4.7278 z m -0.4298,-0.8596 3.8682,-0.4298 c 0,-0.8596 0,-1.7192 -0.4298,-2.149 0,-0.4298 -0.4298,-1.2894 -0.8596,-1.2894 -0.4298,-0.4298 -0.8596,-0.4298 -0.8596,-0.4298 -0.4298,0 -0.8596,0.4298 -1.2894,1.2894 0,0.8596 -0.4298,1.7192 -0.4298,3.0086 z"
   class="st3" /><path
   style="fill:#f9b905;stroke-width:4.29799414"
   inkscape:connector-curvature="0"
   id="path442"
   d="m 108.73926,40.40115 h 3.86819 v 0.4298 0 c -0.4298,0 -0.4298,0 -0.4298,0.42979 0,0.4298 0,0.4298 0,0.8596 0,0.4298 0,0.8596 0.4298,1.7192 l 2.149,7.73639 1.71919,-8.59599 c 0,-0.4298 0,-0.8596 0,-1.2894 0,0 0,-0.4298 0,-0.4298 0,0 0,-0.42979 -0.42979,-0.42979 0,0 -0.4298,0 -0.4298,0 v -0.4298 h 2.57879 v 0.4298 c -0.4298,0 -0.4298,0 -0.4298,0.42979 0,0 -0.4298,0.4298 -0.4298,0.8596 0,0 0,0.4298 -0.4298,1.2894 l -3.00859,15.47278 c -0.4298,1.7192 -0.8596,2.5788 -1.2894,3.4384 -0.4298,0.8596 -0.8596,1.2894 -1.7192,1.2894 -0.4298,0 -0.8596,0 -0.8596,-0.4298 -0.4298,-0.4298 -0.4298,-0.8596 -0.4298,-1.2894 0,-0.4298 0,-0.8596 0.4298,-1.2894 0,-0.4298 0.4298,-0.4298 0.8596,-0.4298 0,0 0.4298,0 0.8596,0.4298 0.4298,0 0.4298,0.4298 0.4298,0.4298 0,0 0.4298,0 0.4298,-0.4298 0,-0.4298 0.4298,-0.8596 0.4298,-2.149 l 0.4298,-2.57879 -3.4384,-11.60459 c 0,-0.4298 -0.4298,-0.8596 -0.4298,-1.2894 0,-0.4298 -0.4298,-0.8596 -0.4298,-0.8596 0,0 -0.42979,-0.4298 -0.85959,-0.4298 z"
   class="st3" /><path
   style="fill:#efb003;stroke-width:4.29799414"
   inkscape:connector-curvature="0"
   id="path444"
   d="m 120.77364,39.54155 v 3.43839 c 0.8596,-2.14899 1.2894,-3.43839 2.149,-3.43839 0.4298,0 0.4298,0 0.85959,0.4298 0.4298,0.4298 0.4298,0.8596 0.4298,1.28939 0,0.4298 0,0.8596 -0.4298,1.2894 0,0.4298 -0.42979,0.4298 -0.42979,0.4298 0,0 -0.4298,0 -0.8596,-0.4298 -0.4298,-0.4298 -0.4298,-0.4298 -0.4298,-0.4298 0,0 -0.4298,0 -0.4298,0.4298 -0.4298,0.4298 -0.4298,1.2894 -0.8596,2.149 v 7.30659 c 0,0.8596 0,1.2894 0,2.149 0,0.4298 0.4298,0.4298 0.4298,0.8596 0,0 0.4298,0.4298 0.8596,0.4298 v 0.4298 h -4.298 v -0.4298 c 0.4298,0 0.8596,0 0.8596,-0.4298 0,0 0.4298,-0.4298 0.4298,-0.8596 0,0 0,-0.8596 0,-1.7192 v -6.01719 c 0,-1.7192 0,-3.0086 0,-3.0086 0,-0.4298 0,-0.4298 -0.4298,-0.8596 0,0 -0.4298,-0.4298 -0.4298,-0.4298 0,0 -0.4298,0 -0.4298,0.4298 v -0.4298 z"
   class="st4" /><path
   style="fill:#efb003;stroke-width:4.29799414"
   inkscape:connector-curvature="0"
   id="path446"
   d="m 128.93983,39.97135 c 1.2894,0 2.149,0.8596 3.00859,2.57879 0.4298,1.7192 0.8596,3.4384 0.8596,5.1576 0,1.28939 -0.4298,2.57879 -0.8596,4.29799 -0.4298,1.2894 -0.85959,2.5788 -1.71919,3.0086 -0.8596,0.8596 -1.2894,0.8596 -2.149,0.8596 -1.2894,0 -2.149,-0.8596 -3.0086,-3.0086 -0.4298,-1.7192 -0.8596,-3.4384 -0.8596,-5.15759 0,-1.2894 0.4298,-3.0086 0.8596,-4.298 0.4298,-1.2894 0.8596,-2.57879 1.7192,-3.00859 0.4298,-0.4298 1.2894,-0.4298 2.149,-0.4298 z m -0.4298,0.8596 c -0.4298,0 -0.8596,0 -0.8596,0.42979 -0.4298,0.4298 -0.4298,0.8596 -0.8596,1.7192 -0.4298,0.8596 -0.4298,2.149 -0.4298,3.4384 0,2.149 0,4.29799 0.4298,6.01719 0.4298,1.7192 0.8596,2.5788 1.7192,2.5788 0.4298,0 1.2894,-0.4298 1.7192,-1.2894 0.4298,-0.8596 0.8596,-2.5788 0.8596,-4.7278 0,-2.57879 0,-4.72779 -0.8596,-6.44699 -0.4298,-0.8596 -1.2894,-1.71919 -1.7192,-1.71919 z"
   class="st4" /><path
   style="fill:#efb003;stroke-width:4.29799414"
   inkscape:connector-curvature="0"
   id="path448"
   d="m 136.24642,43.40974 c 1.2894,-2.149 2.149,-3.00859 3.00859,-3.00859 0.4298,0 0.8596,0.4298 1.2894,0.85959 0.4298,0.4298 0.4298,1.2894 0.4298,2.149 0,0.8596 0,1.7192 0,3.0086 l -0.4298,6.44699 c 0,0.8596 0,1.7192 0,2.149 0,0.4298 0,0.4298 0.4298,0.8596 0,0 0.4298,0.42979 0.8596,0.42979 v 0.4298 l -4.29799,-0.4298 v -0.42979 0 c 0.4298,0 0.8596,0 0.8596,-0.4298 0,0 0.42979,-0.4298 0.42979,-0.8596 0,0 0,-0.8596 0,-1.7192 l 0.4298,-6.44699 c 0,-1.2894 0,-2.5788 0,-3.0086 0,-0.8596 -0.4298,-0.8596 -0.85959,-0.8596 -0.8596,0 -1.2894,0.4298 -2.149,2.149 l -0.4298,8.16619 c 0,0.8596 0,1.7192 0,2.149 0,0.4298 0,0.4298 0.4298,0.8596 0,0 0.4298,0.42979 0.8596,0.42979 v 0.4298 l -4.298,-0.4298 v -0.42979 0 c 0.4298,0 0.8596,0 0.8596,-0.4298 0,-0.4298 0.4298,-1.2894 0.4298,-2.149 l 0.4298,-5.58739 c 0,-1.7192 0,-3.0086 0,-3.4384 0,-0.4298 0,-0.8596 0,-0.8596 0,0 0,-0.4298 -0.4298,-0.4298 0,0 -0.4298,0 -0.4298,0 v -0.4298 l 2.5788,-1.71919 h 0.4298 z"
   class="st4" /><path
   style="fill:#efb003;stroke-width:4.29799414"
   inkscape:connector-curvature="0"
   id="path450"
   d="M 151.2894,36.10315 150,44.69914 l 2.149,0.4298 c 0.4298,0 0.8596,0 1.2894,-0.4298 0.42979,-0.4298 0.42979,-1.2894 0.85959,-2.5788 h 0.4298 l -0.8596,7.73639 h -0.42979 c 0,-0.8596 0,-1.71919 0,-2.14899 0,-0.4298 0,-0.8596 -0.4298,-0.8596 0,-0.4298 -0.4298,-0.4298 -0.8596,-0.4298 H 150 l -0.8596,6.87679 c 0,1.2894 0,1.7192 0,2.149 0,0.4298 0,0.4298 0.4298,0.85959 0.4298,0.4298 0.4298,0.4298 0.8596,0.4298 h 0.4298 v 0.4298 l -5.15759,-0.8596 v -0.42979 h 0.4298 c 0.42979,0 0.85959,0 1.28939,-0.8596 0,-0.4298 0.4298,-1.2894 0.4298,-2.5788 L 150,37.82235 c 0,-1.2894 0,-1.7192 0,-2.149 0,-0.4298 0,-0.4298 -0.4298,-0.8596 -0.4298,-0.4298 -0.4298,-0.4298 -0.8596,-0.4298 h -0.4298 v -0.4298 l 9.02579,1.2894 -0.8596,5.1576 h -0.4298 c 0,-1.2894 0,-1.7192 -0.4298,-2.5788 0,-0.4298 -0.4298,-0.8596 -0.4298,-1.2894 -0.4298,-0.4298 -0.8596,-0.4298 -1.2894,-0.4298 z"
   class="st4" /><path
   style="fill:#efb003;stroke-width:4.29799414"
   inkscape:connector-curvature="0"
   id="path452"
   d="m 161.60458,43.40974 c 1.2894,0.4298 2.149,1.2894 2.5788,3.0086 0.4298,1.7192 0.4298,3.43839 0,5.15759 -0.4298,1.2894 -0.8596,2.5788 -1.2894,3.8682 -0.4298,1.28939 -1.2894,2.14899 -2.14899,3.00859 -0.8596,0.4298 -1.2894,0.8596 -2.149,0.8596 -1.2894,-0.4298 -2.149,-1.2894 -2.5788,-3.43839 -0.4298,-1.7192 -0.4298,-3.4384 0,-5.1576 0.4298,-1.2894 0.8596,-2.57879 1.2894,-3.86819 0.4298,-1.2894 1.2894,-2.149 2.149,-3.0086 0.8596,-0.4298 1.2894,-0.8596 2.14899,-0.4298 z m -0.42979,0.8596 c -0.4298,0 -0.8596,0 -0.8596,0.4298 -0.4298,0.4298 -0.8596,0.8596 -1.2894,1.7192 -0.4298,0.8596 -0.4298,2.149 -0.8596,3.43839 -0.4298,2.149 -0.4298,4.298 -0.4298,6.0172 0,1.71919 0.8596,2.57879 1.2894,2.57879 0.4298,0 1.2894,-0.4298 1.7192,-1.2894 0.4298,-0.8596 0.85959,-2.14899 1.28939,-4.29799 0.4298,-2.5788 0.4298,-4.72779 0,-6.44699 0.4298,-1.2894 -0.4298,-2.149 -0.85959,-2.149 z"
   class="st4" /><path
   style="fill:#efb003;stroke-width:4.29799414"
   inkscape:connector-curvature="0"
   id="path454"
   d="m 170.63037,45.12894 c 1.2894,0.4298 2.149,1.2894 2.5788,3.4384 0.4298,1.71919 0.4298,3.43839 0,5.15759 -0.4298,1.2894 -0.8596,2.57879 -1.2894,3.86819 -0.4298,1.2894 -1.2894,2.149 -2.149,3.0086 -0.8596,0.4298 -1.71919,0.8596 -2.14899,0.4298 -1.2894,-0.4298 -2.149,-1.2894 -2.149,-3.4384 -0.4298,-1.71919 -0.4298,-3.43839 0,-5.15759 0.4298,-1.2894 0.8596,-2.5788 1.2894,-3.86819 0.8596,-1.2894 1.2894,-2.149 2.14899,-2.5788 0.4298,-0.8596 1.2894,-1.2894 1.7192,-0.8596 z m -0.4298,0.8596 c -0.4298,0 -0.8596,0 -0.8596,0.4298 -0.4298,0.4298 -0.85959,0.8596 -1.28939,1.7192 -0.4298,0.85959 -0.8596,1.71919 -0.8596,3.00859 -0.4298,2.149 -0.4298,4.298 -0.4298,6.01719 0,1.7192 0.4298,2.5788 1.2894,2.5788 0.4298,0 1.28939,0 1.71919,-0.8596 0.4298,-0.8596 1.2894,-2.149 1.7192,-4.29799 0.4298,-2.5788 0.8596,-4.7278 0.4298,-6.44699 -0.4298,-1.2894 -0.8596,-2.149 -1.7192,-2.149 z"
   class="st4" /><path
   style="fill:#efb003;stroke-width:4.29799414"
   inkscape:connector-curvature="0"
   id="path456"
   d="m 179.22636,42.12034 -1.2894,4.7278 1.7192,0.4298 -0.4298,1.2894 -1.7192,-0.4298 -2.57879,9.88538 c -0.4298,0.8596 -0.4298,1.7192 -0.4298,2.149 0,0.4298 0.4298,0.4298 0.4298,0.8596 0,0 0.4298,0 0.8596,0 0.4298,0 0.4298,-0.4298 0.85959,-0.8596 h 0.4298 c -0.4298,0.8596 -0.85959,1.7192 -1.28939,2.149 -0.4298,0.4298 -0.8596,0.4298 -1.2894,0.4298 -0.4298,0 -0.4298,-0.4298 -0.8596,-0.4298 -0.4298,0 -0.4298,-0.8596 -0.4298,-1.2894 0,-0.4298 0,-1.2894 0.4298,-2.5788 l 2.5788,-10.31518 -1.2894,-0.4298 v -0.4298 c 0.4298,0 0.8596,-0.4298 1.2894,-0.8596 0.42979,-0.4298 0.85959,-1.2894 1.28939,-1.7192 0.4298,-0.8596 0.8596,-1.7192 1.7192,-2.5788 z"
   class="st4" /><path
   style="fill:#efb003;stroke-width:4.29799414"
   inkscape:connector-curvature="0"
   id="path458"
   d="m 181.80516,50.71633 c 1.2894,-1.7192 2.57879,-2.57879 3.43839,-2.14899 0.8596,0.42979 1.2894,1.28939 1.7192,2.57879 0.4298,1.2894 0,3.4384 -0.4298,5.58739 -0.8596,2.5788 -1.7192,4.7278 -3.00859,6.0172 -1.2894,1.28939 -2.149,1.71919 -3.4384,1.28939 -0.4298,0 -0.8596,-0.42979 -1.2894,-0.85959 -0.4298,-0.4298 -0.8596,-0.8596 -1.2894,-1.7192 l 4.298,-15.47278 c 0.4298,-1.7192 0.8596,-2.5788 0.8596,-3.0086 0,-0.4298 0,-0.8596 0,-0.8596 0,0 0,-0.4298 -0.4298,-0.4298 0,0 -0.4298,0 -0.8596,0 v -0.4298 l 3.00859,-1.28939 h 0.4298 z m 0,1.2894 -2.5788,9.02579 c 0,0.4298 0.4298,1.2894 0.4298,1.2894 0,0 0.4298,0.4298 0.8596,0.8596 0.4298,0 1.2894,-0.4298 2.149,-1.2894 0.8596,-0.8596 1.28939,-2.5788 2.14899,-4.7278 0.4298,-1.71919 0.8596,-3.43839 0.4298,-4.72779 0,-1.2894 -0.4298,-1.7192 -1.2894,-2.149 -0.42979,0 -0.85959,0 -0.85959,0 -0.4298,0.8596 -0.8596,1.2894 -1.2894,1.7192 z"
   class="st4" /><path
   style="fill:#efb003;stroke-width:4.29799414"
   inkscape:connector-curvature="0"
   id="path460"
   d="m 189.97135,64.46991 c -1.2894,0.8596 -1.7192,1.2894 -2.149,1.7192 -0.4298,0 -0.8596,0 -1.2894,0 -0.4298,0 -0.8596,-0.8596 -0.8596,-1.2894 0,-0.8596 0,-1.71919 0.4298,-3.00859 0.4298,-0.8596 0.4298,-1.2894 0.8596,-1.7192 0.4298,-0.8596 1.2894,-1.2894 1.7192,-1.7192 0.8596,-0.4298 2.149,-0.8596 3.86819,-1.2894 v -0.4298 c 0.4298,-1.28939 0.8596,-2.57879 0.4298,-3.00859 0,-0.4298 -0.4298,-0.8596 -0.8596,-1.2894 -0.4298,0 -0.8596,0 -0.8596,0.4298 -0.42979,0.4298 -0.42979,0.8596 -0.85959,1.2894 l -0.4298,0.8596 c 0,0.4298 -0.4298,0.8596 -0.4298,1.28939 -0.4298,0.4298 -0.4298,0.4298 -0.8596,0.4298 -0.4298,0 -0.4298,-0.4298 -0.4298,-0.4298 0,-0.42979 0,-0.85959 0,-1.28939 0.4298,-0.8596 0.8596,-1.7192 1.7192,-2.149 0.8596,-0.4298 1.71919,-0.8596 2.57879,-0.4298 0.8596,0.4298 1.2894,0.4298 1.7192,1.2894 0.4298,0.4298 0.4298,0.8596 0.4298,1.7192 0,0.4298 -0.4298,1.28939 -0.8596,3.00859 l -1.2894,3.4384 c -0.4298,1.2894 -0.8596,2.14899 -0.8596,2.57879 0,0.4298 0,0.4298 0,0.8596 0,0 0,0 0,0.4298 0,0 0,0 0.4298,0 0,0 0.4298,-0.4298 0.8596,-0.8596 v 0.4298 c -1.2894,1.2894 -2.14899,2.149 -2.57879,1.7192 -0.4298,0 -0.4298,-0.4298 -0.4298,-0.8596 -0.4298,-0.4298 0,-0.8596 0,-1.7192 z m 0.4298,-1.28939 1.71919,-5.5874 c -1.28939,0.4298 -1.71919,0.8596 -2.14899,0.8596 -0.4298,0.4298 -1.2894,0.8596 -1.2894,1.2894 -0.4298,0.4298 -0.4298,0.8596 -0.8596,1.7192 -0.4298,0.8596 -0.4298,1.2894 -0.4298,2.149 0,0.42979 0.4298,0.85959 0.4298,0.85959 0.8596,0 1.7192,-0.4298 2.5788,-1.28939 z"
   class="st4" /><path
   style="fill:#efb003;stroke-width:4.29799414"
   inkscape:connector-curvature="0"
   id="path462"
   d="m 203.29513,45.55874 -6.87679,19.34097 c -0.4298,0.8596 -0.4298,1.7192 -0.4298,1.7192 0,0.4298 0,0.4298 0,0.8596 0,0 0.4298,0.4298 0.8596,0.4298 v 0.4298 l -3.8682,-1.2894 v -0.4298 c 0.4298,0 0.4298,0 0.8596,0 0,0 0.4298,-0.4298 0.4298,-0.4298 0,-0.4298 0.4298,-0.8596 0.8596,-1.7192 l 4.72779,-13.32378 c 0.4298,-1.7192 0.8596,-2.57879 0.8596,-3.00859 0,-0.4298 0,-0.8596 0,-0.8596 0,0 0,-0.4298 -0.4298,-0.4298 0,0 -0.4298,0 -0.8596,0 v -0.4298 z"
   class="st4" /><path
   style="fill:#efb003;stroke-width:4.29799414"
   inkscape:connector-curvature="0"
   id="path464"
   d="m 208.45272,47.70774 -7.30659,19.34097 c -0.4298,0.8596 -0.4298,1.7192 -0.4298,1.7192 0,0.4298 0,0.4298 0,0.8596 0,0 0.4298,0.4298 0.8596,0.4298 v 0.4298 l -3.86819,-1.2894 v -0.4298 c 0.4298,0 0.4298,0 0.8596,0 0,0 0.42979,-0.4298 0.42979,-0.4298 0,-0.4298 0.4298,-0.8596 0.8596,-1.7192 l 4.7278,-13.32378 c 0.4298,-1.7192 0.8596,-2.5788 0.8596,-3.0086 0,-0.4298 0,-0.8596 0,-0.8596 0,0 0,-0.4298 -0.4298,-0.4298 0,0 -0.4298,0 -0.8596,0 v -0.42979 z"
   class="st4" />
<path
   style="fill:none;stroke:#ac1028;stroke-width:0.73753583;stroke-miterlimit:10"
   d="m 85.100287,247.13467 8.595988,-4.72779 12.034385,6.87679"
   id="polyline468"
   inkscape:connector-curvature="0" />
</svg>