<?xml version="1.0" encoding="UTF-8" standalone="no"?>
<!-- Created with Inkscape (http://www.inkscape.org/) -->

<svg
   xmlns:dc="http://purl.org/dc/elements/1.1/"
   xmlns:cc="http://creativecommons.org/ns#"
   xmlns:rdf="http://www.w3.org/1999/02/22-rdf-syntax-ns#"
   xmlns:svg="http://www.w3.org/2000/svg"
   xmlns="http://www.w3.org/2000/svg"
   xmlns:sodipodi="http://sodipodi.sourceforge.net/DTD/sodipodi-0.dtd"
   xmlns:inkscape="http://www.inkscape.org/namespaces/inkscape"
   width="79.374992mm"
   height="79.375mm"
   viewBox="0 0 79.374992 79.375"
   version="1.1"
   id="svg2461"
   inkscape:version="0.92.4 (5da689c313, 2019-01-14)"
   sodipodi:docname="Red Star FC logo.svg">
  <defs
     id="defs2455" />
  <sodipodi:namedview
     id="base"
     pagecolor="#ffffff"
     bordercolor="#666666"
     borderopacity="1.0"
     inkscape:pageopacity="0.0"
     inkscape:pageshadow="2"
     inkscape:zoom="0.7"
     inkscape:cx="61.885715"
     inkscape:cy="-5.2571465"
     inkscape:document-units="mm"
     inkscape:current-layer="layer1"
     showgrid="false"
     inkscape:window-width="1366"
     inkscape:window-height="705"
     inkscape:window-x="-8"
     inkscape:window-y="-8"
     inkscape:window-maximized="1" />
  <metadata
     id="metadata2458">
    <rdf:RDF>
      <cc:Work
         rdf:about="">
        <dc:format>image/svg+xml</dc:format>
        <dc:type
           rdf:resource="http://purl.org/dc/dcmitype/StillImage" />
        <dc:title></dc:title>
      </cc:Work>
    </rdf:RDF>
  </metadata>
  <g
     inkscape:label="Layer 1"
     inkscape:groupmode="layer"
     id="layer1"
     transform="translate(-76.230238,-68.06738)">
    <g
       id="g2515">
      <path
         style="fill:#144733;stroke-width:1.05551839"
         inkscape:connector-curvature="0"
         id="path2351"
         d="m 155.60523,107.7549 c 0,21.91994 -17.76755,39.68748 -39.6875,39.68748 -21.918894,0 -39.687492,-17.76754 -39.687492,-39.68748 0,-21.918906 17.768598,-39.68752 39.687492,-39.68752 21.91995,0 39.6875,17.768614 39.6875,39.68752" />
      <path
         style="fill:#ffffff;stroke-width:1.05551839"
         inkscape:connector-curvature="0"
         id="path2353"
         d="m 90.392131,80.881407 c 0.136156,-0.132048 0.279734,-0.230186 0.431704,-0.293617 0.150958,-0.06223 0.30399,-0.09295 0.455984,-0.09295 0.151995,0 0.297646,0.03191 0.43804,0.09096 0.138271,0.06024 0.264934,0.147607 0.377872,0.263697 0.174176,0.177527 0.287115,0.368218 0.339894,0.571037 0.05174,0.203857 0.02633,0.421157 -0.076,0.655452 l 0.0076,0.008 c 0.104482,-0.05824 0.205812,-0.08976 0.305027,-0.09495 0.100253,-0.008 0.197393,0.004 0.293417,0.0359 0.09606,0.03191 0.188937,0.07699 0.278657,0.137234 0.08972,0.06104 0.17629,0.126462 0.255439,0.197473 0.04959,0.04548 0.10871,0.09934 0.175213,0.161569 0.0665,0.06223 0.135119,0.124468 0.209002,0.184707 0.07285,0.06104 0.147766,0.114096 0.222726,0.159575 0.07496,0.04428 0.148844,0.0738 0.220612,0.08537 l -0.666032,0.652301 c -0.130891,-0.06024 -0.264933,-0.151995 -0.403208,-0.276463 -0.138272,-0.124468 -0.275506,-0.239761 -0.410597,-0.344282 -0.177327,-0.135239 -0.338817,-0.204654 -0.483427,-0.205851 -0.145652,-0.0021 -0.300838,0.07939 -0.467593,0.241755 l -0.664975,0.651224 1.156851,1.182207 -0.664979,0.650186 -2.959675,-3.024055 z m 1.103014,1.60121 c 0.151995,-0.15 0.233258,-0.295612 0.24383,-0.436995 0.0096,-0.14242 -0.06016,-0.290425 -0.209003,-0.44226 -0.144614,-0.146809 -0.286037,-0.216224 -0.427484,-0.207846 -0.141423,0.008 -0.288151,0.08777 -0.44015,0.236569 l -0.72831,0.713537 0.83386,0.851809 z" />
      <path
         id="polygon2355"
         d="m 97.047171,77.798229 0.411654,0.595293 -1.686718,1.165292 0.588977,0.852886 1.876711,-1.296184 0.444375,0.643843 -2.643019,1.825013 -2.404468,-3.482153 2.603964,-1.798604 0.444371,0.643843 -1.837655,1.269814 0.514037,0.74625 z"
         style="fill:#ffffff;stroke-width:1.05551839"
         inkscape:connector-curvature="0" />
      <path
         style="fill:#ffffff;stroke-width:1.05551839"
         inkscape:connector-curvature="0"
         id="path2357"
         d="m 100.4565,74.06698 c 0.24698,-0.114096 0.49714,-0.181516 0.74625,-0.199468 0.25017,-0.01995 0.48976,0.01197 0.71775,0.09933 0.23011,0.08657 0.44332,0.226995 0.63964,0.423271 0.19844,0.196277 0.36942,0.45387 0.51615,0.77262 0.12982,0.279654 0.21323,0.555199 0.25017,0.825439 0.0371,0.269281 0.0231,0.524601 -0.0433,0.763124 -0.0665,0.239761 -0.18471,0.458099 -0.35677,0.657607 -0.17098,0.199468 -0.4032,0.366223 -0.69769,0.501343 l -1.65822,0.764202 -1.770109,-3.843151 z m 1.38484,3.159135 c 0.12243,-0.05585 0.23222,-0.130851 0.32932,-0.222606 0.0961,-0.09295 0.16783,-0.204654 0.21534,-0.337899 0.0475,-0.132846 0.0644,-0.28484 0.0507,-0.457021 -0.0148,-0.171942 -0.0707,-0.364229 -0.16783,-0.575266 -0.0897,-0.194282 -0.18894,-0.35984 -0.29765,-0.499269 -0.10979,-0.13843 -0.23326,-0.24375 -0.37049,-0.31476 -0.13827,-0.07181 -0.29134,-0.104521 -0.46021,-0.09814 -0.16783,0.004 -0.35676,0.05705 -0.56575,0.15399 l -0.602705,0.277659 1.116735,2.42242 z" />
      <path
         style="fill:#ffffff;stroke-width:1.05551839"
         inkscape:connector-curvature="0"
         id="path2359"
         d="m 109.75139,74.435358 c 0.0665,0.08856 0.14565,0.15718 0.2396,0.204654 0.095,0.04747 0.19951,0.0758 0.31664,0.08777 0.1182,0.01197 0.23748,0.008 0.35888,-0.01197 0.0823,-0.01197 0.16783,-0.03191 0.2607,-0.06223 0.0908,-0.02793 0.17522,-0.06862 0.25018,-0.121277 0.076,-0.05066 0.13615,-0.11609 0.17944,-0.193085 0.0433,-0.07699 0.057,-0.167952 0.0412,-0.273271 -0.0191,-0.112899 -0.0696,-0.199468 -0.15303,-0.257713 -0.0823,-0.05904 -0.18682,-0.102526 -0.31137,-0.130851 -0.12455,-0.02792 -0.2639,-0.04747 -0.41799,-0.06024 -0.15411,-0.01197 -0.31033,-0.02793 -0.46865,-0.04428 -0.16256,-0.01197 -0.32194,-0.03989 -0.4792,-0.07061 -0.15834,-0.03191 -0.30296,-0.08537 -0.43382,-0.156383 -0.13089,-0.07061 -0.24383,-0.167952 -0.3367,-0.291223 -0.094,-0.12367 -0.15515,-0.280851 -0.18579,-0.471822 -0.0347,-0.214229 -0.0192,-0.407433 0.0475,-0.580532 0.0665,-0.171941 0.16572,-0.323138 0.29661,-0.452832 0.13193,-0.128856 0.28712,-0.234176 0.46654,-0.313564 0.17944,-0.08138 0.36311,-0.136037 0.54993,-0.165558 0.2185,-0.0359 0.4317,-0.04428 0.6407,-0.02793 0.20792,0.01596 0.39898,0.06742 0.57315,0.151995 0.17309,0.08457 0.31875,0.203856 0.43803,0.359042 0.11821,0.155186 0.1974,0.353458 0.23645,0.595293 l -0.8898,0.14242 c -0.0283,-0.123271 -0.0718,-0.223803 -0.12981,-0.297606 -0.0581,-0.075 -0.12666,-0.129655 -0.20901,-0.164761 -0.0823,-0.0359 -0.17206,-0.05386 -0.27019,-0.05904 -0.0982,-0.004 -0.20478,0.0021 -0.31664,0.01995 -0.0749,0.01197 -0.14777,0.03191 -0.21953,0.06024 -0.0718,0.02793 -0.13405,0.06543 -0.18894,0.112898 -0.0538,0.04867 -0.0961,0.106516 -0.12666,0.169947 -0.0283,0.06423 -0.0371,0.14242 -0.0223,0.232181 0.0136,0.08218 0.0391,0.145612 0.0791,0.19109 0.0391,0.04628 0.10767,0.08338 0.20688,0.112102 0.0982,0.02793 0.23222,0.05066 0.40004,0.06742 0.16887,0.01995 0.38949,0.03989 0.66076,0.06223 0.0802,0.004 0.19316,0.01596 0.33778,0.03191 0.14565,0.01995 0.29342,0.06223 0.44437,0.130053 0.15096,0.06862 0.28712,0.169947 0.41165,0.303989 0.12351,0.135239 0.2037,0.31875 0.24172,0.553085 0.0307,0.191091 0.0223,0.374601 -0.0263,0.549894 -0.0475,0.176329 -0.13512,0.334707 -0.26282,0.478164 -0.12774,0.142421 -0.2945,0.263697 -0.50033,0.365027 -0.20581,0.100133 -0.45176,0.174335 -0.73675,0.218617 -0.22907,0.03989 -0.45704,0.04428 -0.68292,0.02394 -0.22484,-0.02394 -0.4317,-0.08019 -0.61642,-0.175133 -0.18471,-0.09415 -0.34093,-0.226994 -0.46865,-0.398976 -0.12774,-0.171941 -0.21004,-0.38617 -0.24698,-0.643883 l 0.8898,-0.141223 c 0.0223,0.138431 0.0654,0.253324 0.13301,0.343085" />
      <path
         id="polygon2361"
         d="m 116.49827,71.486223 -0.0559,3.44944 -0.93096,-0.01596 0.057,-3.449441 -1.26873,-0.01995 0.0136,-0.782154 3.46632,0.05705 -0.0128,0.782114 z"
         style="fill:#ffffff;stroke-width:1.05551839"
         inkscape:connector-curvature="0" />
      <path
         style="fill:#ffffff;stroke-width:1.05551839"
         inkscape:connector-curvature="0"
         id="path2363"
         d="m 121.93841,71.181156 0.93835,4.419494 -0.95524,-0.143617 -0.17629,-0.979508 -1.56533,-0.234175 -0.46654,0.882406 -0.92675,-0.13843 2.21131,-3.947633 z m -0.33144,2.574415 -0.29661,-1.614934 -0.0116,-0.001 -0.77475,1.453444 z" />
      <path
         style="fill:#ffffff;stroke-width:1.05551839"
         inkscape:connector-curvature="0"
         id="path2365"
         d="m 128.24513,72.792938 c 0.17944,0.05904 0.33144,0.143617 0.45704,0.250133 0.12455,0.106516 0.22165,0.226994 0.28919,0.363032 0.0697,0.135239 0.10979,0.278856 0.11821,0.429574 0.01,0.151995 -0.0128,0.303989 -0.0633,0.458098 -0.0791,0.235373 -0.19843,0.423271 -0.35465,0.561543 -0.15622,0.139228 -0.36311,0.216223 -0.61853,0.230984 l -0.002,0.01197 c 0.0982,0.06662 0.17206,0.14242 0.22272,0.228191 0.0517,0.08537 0.0845,0.177128 0.10133,0.27766 0.0168,0.09933 0.0191,0.202659 0.005,0.310372 -0.0136,0.107713 -0.0327,0.214229 -0.0602,0.317553 -0.0179,0.06423 -0.0391,0.140426 -0.0644,0.228192 -0.0243,0.08777 -0.0486,0.177526 -0.0686,0.270079 -0.0223,0.09295 -0.0347,0.183511 -0.0412,0.271277 -0.008,0.08777 0.002,0.165558 0.0243,0.236569 l -0.88242,-0.296409 c -0.006,-0.143617 0.0148,-0.305187 0.0623,-0.485546 0.0496,-0.179521 0.0897,-0.353457 0.11928,-0.522486 0.0401,-0.219415 0.0283,-0.394947 -0.0359,-0.525638 -0.0654,-0.129655 -0.20688,-0.231383 -0.42854,-0.305984 l -0.88129,-0.296809 -0.52777,1.569574 -0.88135,-0.295611 1.34578,-4.012021 z m -0.92463,1.708882 c 0.20158,0.06742 0.36941,0.0738 0.50137,0.01596 0.12981,-0.05585 0.23114,-0.185904 0.29764,-0.387367 0.0665,-0.195479 0.0634,-0.35266 -0.01,-0.474973 -0.0707,-0.121277 -0.20793,-0.217421 -0.4106,-0.284841 l -0.96579,-0.325133 -0.37895,1.129388 z" />
      <path
         id="polygon2367"
         d="m 136.67028,79.166181 -0.40215,0.600599 -1.47245,-0.986928 -0.97319,1.452406 -0.77475,-0.518258 2.35697,-3.514906 2.47097,1.656143 -0.43382,0.650186 -1.69938,-1.137845 -0.54465,0.811675 z"
         style="fill:#ffffff;stroke-width:1.05551839"
         inkscape:connector-curvature="0" />
      <path
         style="fill:#ffffff;stroke-width:1.05551839"
         inkscape:connector-curvature="0"
         id="path2369"
         d="m 141.27339,82.282072 c 0.0223,-0.102527 0.0243,-0.207048 0.0104,-0.312367 -0.0148,-0.105718 -0.0464,-0.207846 -0.0971,-0.307181 -0.0507,-0.09934 -0.11717,-0.187899 -0.19951,-0.266888 -0.15303,-0.143617 -0.30926,-0.236569 -0.47076,-0.27766 -0.16257,-0.04109 -0.32298,-0.04428 -0.48238,-0.008 -0.16045,0.0359 -0.31559,0.104522 -0.46337,0.201463 -0.14988,0.09694 -0.28815,0.214229 -0.41693,0.349468 -0.12139,0.128857 -0.22484,0.269282 -0.31033,0.419043 -0.0855,0.15 -0.1425,0.305984 -0.16783,0.465518 -0.0243,0.159575 -0.0148,0.319947 0.0371,0.479202 0.0507,0.158378 0.15199,0.310373 0.30399,0.45387 0.20581,0.196276 0.42748,0.28484 0.66286,0.269282 0.23645,-0.01596 0.46443,-0.116091 0.68609,-0.298803 l 0.65442,0.61855 c -0.19951,0.17633 -0.40848,0.307979 -0.62697,0.395745 -0.2185,0.08657 -0.43804,0.128856 -0.65865,0.127659 -0.22061,-0.0021 -0.43593,-0.04947 -0.64914,-0.141223 -0.21216,-0.09175 -0.41377,-0.226995 -0.60165,-0.406396 -0.23645,-0.222607 -0.40848,-0.463365 -0.51931,-0.723032 -0.10979,-0.259708 -0.16253,-0.522487 -0.15515,-0.788457 0.006,-0.264894 0.0665,-0.527753 0.18156,-0.786383 0.11293,-0.259708 0.27654,-0.501343 0.4887,-0.725146 0.21742,-0.22899 0.45282,-0.410585 0.70825,-0.541476 0.25333,-0.132048 0.5151,-0.209043 0.7832,-0.234176 0.26808,-0.02394 0.53515,0.01197 0.80219,0.106516 0.26705,0.09415 0.5172,0.252128 0.75259,0.47605 0.16994,0.160373 0.30822,0.335506 0.41165,0.527753 0.10448,0.19109 0.17206,0.390558 0.20266,0.595293 0.0307,0.205851 0.0211,0.414813 -0.0327,0.62593 -0.0528,0.211037 -0.1541,0.414814 -0.29976,0.612208 l -0.65864,-0.619588 c 0.0633,-0.08856 0.10448,-0.184707 0.12455,-0.287234" />
      <path
         style="fill:#ffffff;stroke-width:1.05551839"
         inkscape:connector-curvature="0"
         id="path2371"
         d="m 108.20717,144.4352 0.52142,-2.54485 -0.98796,-0.20147 0.12243,-0.59952 c 0.13827,0.0319 0.27339,0.0487 0.40743,0.0527 0.13404,0.001 0.25859,-0.016 0.37365,-0.0578 0.11609,-0.0411 0.21953,-0.10572 0.31137,-0.19109 0.0907,-0.0878 0.1636,-0.20266 0.21742,-0.34828 l 0.63331,0.13086 -0.80325,3.92441 z" />
      <path
         style="fill:#ffffff;stroke-width:1.05551839"
         inkscape:connector-curvature="0"
         id="path2373"
         d="m 112.73007,141.63702 c 0.0876,-0.13205 0.19843,-0.24175 0.33036,-0.32513 0.133,-0.0846 0.28077,-0.14442 0.44331,-0.18152 0.16149,-0.0359 0.3251,-0.0507 0.48871,-0.0411 0.24698,0.016 0.45598,0.0654 0.6217,0.15 0.16675,0.0866 0.30083,0.1867 0.39794,0.3008 0.0992,0.11489 0.16783,0.23537 0.20688,0.36223 0.0379,0.12567 0.0549,0.23857 0.0496,0.3387 -0.0128,0.19747 -0.0707,0.36742 -0.17625,0.50984 -0.10448,0.14362 -0.25647,0.24176 -0.45493,0.29442 l -10e-4,0.012 c 0.23748,0.0666 0.41587,0.19109 0.53515,0.37141 0.12032,0.18032 0.17309,0.39695 0.15726,0.64808 -0.0116,0.21223 -0.0654,0.39375 -0.15938,0.5457 -0.095,0.152 -0.21534,0.27447 -0.36203,0.37061 -0.14673,0.0949 -0.31137,0.16237 -0.49293,0.20386 -0.18155,0.0411 -0.36626,0.0558 -0.55203,0.0455 -0.19528,-0.012 -0.38107,-0.0455 -0.55943,-0.10333 -0.17733,-0.0582 -0.33459,-0.14242 -0.47182,-0.25452 -0.13723,-0.10971 -0.24383,-0.24495 -0.32086,-0.40743 -0.076,-0.16037 -0.10979,-0.35027 -0.0971,-0.56577 0.0148,-0.25532 0.0918,-0.4644 0.23326,-0.63012 0.14142,-0.16357 0.33355,-0.26689 0.57631,-0.31038 l 0.001,-0.012 c -0.19209,-0.0654 -0.33144,-0.17434 -0.42327,-0.32833 -0.0908,-0.15399 -0.12981,-0.33032 -0.11928,-0.52883 0.0128,-0.17752 0.0612,-0.33231 0.14884,-0.46548 m 0.43804,2.56281 c 0.0339,0.0854 0.0802,0.15917 0.13935,0.2238 0.0602,0.0614 0.13193,0.11091 0.21954,0.15 0.0855,0.0359 0.17521,0.0579 0.2702,0.0634 0.10025,0.008 0.19105,-0.004 0.27442,-0.0319 0.0834,-0.0279 0.15834,-0.0698 0.22377,-0.12447 0.0665,-0.0559 0.11928,-0.12447 0.15833,-0.20585 0.0391,-0.0822 0.0612,-0.17194 0.0665,-0.27128 0.006,-0.0961 -0.008,-0.18351 -0.0391,-0.26409 -0.0315,-0.0802 -0.0781,-0.1508 -0.13723,-0.20984 -0.0602,-0.061 -0.12878,-0.10971 -0.20901,-0.14362 -0.0802,-0.0359 -0.16783,-0.0558 -0.26389,-0.0622 -0.19843,-0.012 -0.36838,0.0319 -0.51193,0.13524 -0.14354,0.10013 -0.22061,0.25332 -0.23222,0.45913 -0.004,0.10253 0.008,0.19628 0.0412,0.28165 m 0.30822,-1.57903 c 0.11717,0.0969 0.25648,0.1508 0.42009,0.15958 0.17207,0.008 0.31664,-0.0279 0.43593,-0.10971 0.11929,-0.0822 0.18367,-0.20904 0.19421,-0.38099 0.003,-0.0538 -0.001,-0.1109 -0.0136,-0.17633 -0.0116,-0.0634 -0.0371,-0.12566 -0.0781,-0.1847 -0.0401,-0.059 -0.0982,-0.10971 -0.17417,-0.15399 -0.076,-0.0423 -0.17733,-0.0666 -0.30188,-0.075 -0.0802,-0.003 -0.15834,0.004 -0.23433,0.0239 -0.076,0.02 -0.14354,0.0519 -0.20266,0.0942 -0.0591,0.0435 -0.10768,0.0969 -0.14354,0.16357 -0.0371,0.0666 -0.057,0.14561 -0.0633,0.23736 -0.01,0.17194 0.0443,0.30519 0.16149,0.40109" />
      <path
         style="fill:#ffffff;stroke-width:1.05551839"
         inkscape:connector-curvature="0"
         id="path2375"
         d="m 118.68319,144.45 c 0.10345,0.0886 0.22484,0.12886 0.36519,0.11609 0.14884,-0.012 0.26704,-0.0654 0.35361,-0.15957 0.0876,-0.0942 0.15515,-0.20386 0.20055,-0.33232 0.0464,-0.12885 0.076,-0.26489 0.0886,-0.40743 0.0128,-0.14242 0.0179,-0.27008 0.0168,-0.37979 l -0.0136,-0.008 c -0.0971,0.16796 -0.21638,0.29322 -0.35888,0.3746 -0.14142,0.0802 -0.30925,0.12886 -0.50243,0.14761 -0.17206,0.012 -0.342,-0.008 -0.51192,-0.0686 -0.16995,-0.059 -0.31771,-0.1476 -0.44226,-0.2629 -0.11717,-0.1121 -0.20689,-0.24375 -0.26917,-0.39574 -0.0644,-0.15199 -0.10236,-0.30718 -0.11505,-0.46656 -0.0179,-0.20465 -0.001,-0.39897 0.0507,-0.58156 0.0517,-0.18152 0.13192,-0.34429 0.24486,-0.48766 0.1119,-0.14123 0.25018,-0.25652 0.41588,-0.34828 0.16256,-0.0898 0.35042,-0.14441 0.55942,-0.16276 0.30295,-0.0239 0.55732,0.012 0.76525,0.11489 0.20581,0.10253 0.37576,0.24615 0.50982,0.43169 0.13512,0.18471 0.23645,0.40005 0.30187,0.64285 0.0686,0.24175 0.11294,0.48973 0.13405,0.7399 0.0211,0.24694 0.0136,0.49716 -0.0211,0.7494 -0.0371,0.25133 -0.10978,0.48344 -0.21638,0.69244 -0.10871,0.20984 -0.25544,0.38537 -0.44226,0.52671 -0.1879,0.14043 -0.42326,0.22261 -0.70931,0.24694 -0.17098,0.016 -0.33144,0.004 -0.48448,-0.0279 -0.152,-0.0319 -0.28923,-0.0941 -0.41165,-0.17952 -0.12244,-0.0854 -0.22588,-0.19309 -0.30926,-0.32394 -0.0845,-0.13085 -0.14565,-0.28165 -0.18367,-0.45387 l 0.76948,-0.0666 c 0.0391,0.12965 0.11082,0.24056 0.2153,0.33231 m 0.56998,-1.36268 c 0.076,-0.0455 0.13827,-0.10771 0.18682,-0.17952 0.0464,-0.073 0.0791,-0.15399 0.0982,-0.24694 0.02,-0.0918 0.0231,-0.18671 0.0168,-0.28604 -0.008,-0.091 -0.0295,-0.17952 -0.0665,-0.26689 -0.0359,-0.0866 -0.0845,-0.16277 -0.14673,-0.22899 -0.0602,-0.0642 -0.13301,-0.11489 -0.21639,-0.1508 -0.0823,-0.0319 -0.17629,-0.0475 -0.27969,-0.0399 -0.095,0.008 -0.17836,0.0359 -0.25017,0.0846 -0.0718,0.0487 -0.13301,0.10971 -0.17944,0.18152 -0.0475,0.073 -0.0802,0.15399 -0.0992,0.24375 -0.0199,0.0886 -0.0251,0.18032 -0.0179,0.27128 0.008,0.0961 0.0283,0.1867 0.0612,0.27327 0.0327,0.0886 0.076,0.16356 0.13193,0.23098 0.0559,0.0666 0.12455,0.11609 0.20478,0.15399 0.0823,0.0359 0.17417,0.0507 0.27762,0.0411 0.10978,-0.008 0.20369,-0.0359 0.27865,-0.0834" />
      <path
         style="fill:#ffffff;stroke-width:1.05551839"
         inkscape:connector-curvature="0"
         id="path2377"
         d="m 124.7387,141.4808 c -0.0971,0.2976 -0.16257,0.60379 -0.19843,0.92254 -0.0359,0.31995 -0.0486,0.63542 -0.0359,0.94787 0.0148,0.31556 0.0507,0.60164 0.10768,0.86342 l -0.84547,0.19827 c -0.094,-0.59322 -0.0897,-1.18536 0.0128,-1.77858 0.10133,-0.59214 0.28393,-1.15683 0.54887,-1.69304 l -1.84821,0.43699 -0.17206,-0.73464 2.66096,-0.62908 0.15834,0.67975 c -0.16149,0.22819 -0.29135,0.48977 -0.38845,0.78634" />
      <path
         style="fill:#ffffff;stroke-width:1.05551839"
         inkscape:connector-curvature="0"
         id="path2379"
         d="m 146.71565,107.7549 c 0,17.0086 -13.78824,30.79791 -30.79792,30.79791 -17.007568,0 -30.797915,-13.78823 -30.797915,-30.79791 0,-17.009678 13.78929,-30.797947 30.797915,-30.797947 17.00862,0 30.79792,13.788269 30.79792,30.797947" />
      <path
         id="polygon2381"
         d="m 134.01143,132.64297 -18.0937,-12.5913 -18.093695,12.5913 6.383775,-21.0977 -17.564881,-13.317483 22.037111,-0.448603 7.23769,-20.821154 7.23664,20.821154 22.03816,0.448603 -17.56488,13.317483 z"
         style="fill:#b21e28;stroke-width:1.05551839"
         inkscape:connector-curvature="0" />
    </g>
  </g>
</svg>
